<?xml version="1.0" encoding="UTF-8"?>
<svg id="Layer_2" data-name="Layer 2" xmlns="http://www.w3.org/2000/svg" viewBox="0 0 1080 792.24">
  <defs>
    <style>
      .cls-1 {
        fill: #fff;
      }
    </style>
  </defs>
  <g id="Layer_1-2" data-name="Layer 1">
    <g>
      <path class="cls-1" d="m24.59,184.11H0v-50.07h24.59v-16.79h24.13v-16.8h49.17v-16.79h24.59v-16.8H49.18v16.8H0v-33.59h24.59v-16.48h122.48v16.48h24.59v117.25h24.59v33.59h-49.17v-16.8h-49.17v16.8H24.59v-16.8Zm73.3-66.86v16.79h-24.59v16.8h-24.59v16.49h49.17v-16.8h24.59v-33.28h-24.59Z"/>
      <path class="cls-1" d="m221.28,66.86h-24.59v-33.28h49.17v33.28h24.13v33.59h24.59v33.59h49.17v-33.59h24.59v-33.59h24.59v-33.28h48.72v33.28h-24.13v33.59h-24.59v33.59h-24.59v33.28h-24.59v33.59h-49.17v-33.59h-24.59v-33.28h-24.59v-33.59h-24.13v-33.59Z"/>
      <path class="cls-1" d="m490.83,184.11h-24.59v-50.07h24.59v-16.79h24.13v-16.8h49.17v-16.79h24.59v-16.8h-73.31v16.8h-49.17v-33.59h24.59v-16.48h122.48v16.48h24.59v117.25h24.59v33.59h-49.17v-16.8h-49.17v16.8h-73.3v-16.8Zm73.3-66.86v16.79h-24.59v16.8h-24.59v16.49h49.17v-16.8h24.59v-33.28h-24.59Z"/>
      <path class="cls-1" d="m736.24,83.66v117.25h-49.17V33.59h49.17v16.48h24.59v-16.48h73.31v16.48h24.59v16.8h24.59v134.04h-49.17v-117.25h-24.59v-16.8h-48.72v16.8h-24.59Z"/>
      <path class="cls-1" d="m957.06,83.66h-49.17v-33.59h24.59v-16.48h24.59V0h49.17v33.59h-24.59v16.48h98.35v33.59h-73.76v83.66h24.59v-16.8h49.17v33.59h-24.59v16.8h-73.76v-16.8h-24.59v-100.45Z"/>
    </g>
    <g>
      <path class="cls-1" d="m20.82,454.59H0v-100.46h20.82v-16.8h20.43v-16.48h83.25v16.48h20.82v16.8h20.81v67.17H41.63v16.49h20.43v16.8h41.63v-16.8h62.44v16.8h-20.81v16.79h-20.82v16.8H41.24v-16.8h-20.43v-16.79Zm103.68-66.87v-17.1h-20.81v-16.8h-41.63v16.8h-20.43v17.1h82.87Z"/>
      <path class="cls-1" d="m228.56,370.93v117.25h-41.63v-167.32h41.63v16.48h20.81v-16.48h62.06v16.48h20.82v16.8h20.81v134.04h-41.63v-117.25h-20.81v-16.8h-41.24v16.8h-20.81Z"/>
      <path class="cls-1" d="m415.5,370.93v66.86h20.43v16.8h62.44v-16.8h20.82v-16.49h41.24v33.28h-20.43v16.79h-20.81v16.8h-104.07v-16.8h-20.43v-33.59h-20.82v-66.86h20.82v-33.59h20.43v-16.48h104.07v16.48h20.81v16.8h20.43v33.59h-41.24v-16.79h-20.82v-16.8h-62.44v16.8h-20.43Z"/>
      <path class="cls-1" d="m602.05,454.59h-20.82v-100.46h20.82v-16.8h20.81v-16.48h83.26v16.48h20.81v16.8h20.81v100.46h-20.81v16.79h-20.81v16.8h-83.26v-16.8h-20.81v-16.79Zm20.81-16.8h20.81v16.8h41.63v-16.8h20.82v-67.17h-20.82v-16.8h-41.63v16.8h-20.81v67.17Z"/>
      <path class="cls-1" d="m872.63,337.34h20.43v33.28h-40.86v-16.8h-21.2v16.8h-20.81v117.56h-41.63v-167.32h41.63v16.48h20.81v-16.48h41.63v16.48Z"/>
      <path class="cls-1" d="m934.69,454.59h-20.82v-100.46h20.82v-16.8h20.43v-16.48h83.25v16.48h20.82v16.8h20.81v67.17h-124.5v16.49h20.43v16.8h41.63v-16.8h62.44v16.8h-20.81v16.79h-20.82v16.8h-83.25v-16.8h-20.43v-16.79Zm103.68-66.87v-17.1h-20.81v-16.8h-41.63v16.8h-20.43v17.1h82.87Z"/>
    </g>
    <g>
      <path class="cls-1" d="m0,540.96h69.52v33.59h-34.6v184.11h34.6v33.59H0v-251.29Z"/>
      <path class="cls-1" d="m104.45,741.87h-17.46v-100.46h17.46v-16.8h17.14v-16.48h69.84v16.48h17.46v16.8h17.46v67.17h-104.45v16.49h17.14v16.8h34.92v-16.8h52.38v16.8h-17.46v16.79h-17.46v16.8h-69.84v-16.8h-17.14v-16.79Zm86.98-66.87v-17.1h-17.46v-16.8h-34.92v16.8h-17.14v17.1h69.52Z"/>
      <path class="cls-1" d="m278.73,658.21v117.25h-34.92v-167.32h34.92v16.48h17.46v-16.48h52.06v16.48h17.46v16.8h17.46v134.04h-34.92v-117.25h-17.46v-16.8h-34.6v16.8h-17.46Z"/>
      <path class="cls-1" d="m435.55,658.21v66.86h17.14v16.8h52.38v-16.8h17.46v-16.49h34.6v33.28h-17.14v16.79h-17.46v16.8h-87.31v-16.8h-17.14v-33.59h-17.46v-66.86h17.46v-33.59h17.14v-16.48h87.31v16.48h17.46v16.8h17.14v33.59h-34.6v-16.79h-17.46v-16.8h-52.38v16.8h-17.14Z"/>
      <path class="cls-1" d="m592.06,741.87h-17.46v-100.46h17.46v-16.8h17.46v-16.48h69.85v16.48h17.46v16.8h17.46v100.46h-17.46v16.79h-17.46v16.8h-69.85v-16.8h-17.46v-16.79Zm17.46-16.8h17.46v16.8h34.92v-16.8h17.46v-67.17h-17.46v-16.8h-34.92v16.8h-17.46v67.17Z"/>
      <path class="cls-1" d="m819.05,624.61h17.14v33.28h-34.28v-16.8h-17.79v16.8h-17.46v117.56h-34.92v-167.32h34.92v16.48h17.46v-16.48h34.92v16.48Z"/>
      <path class="cls-1" d="m871.12,741.87h-17.46v-100.46h17.46v-16.8h17.14v-16.48h69.84v16.48h17.46v16.8h17.46v67.17h-104.45v16.49h17.14v16.8h34.92v-16.8h52.38v16.8h-17.46v16.79h-17.46v16.8h-69.84v-16.8h-17.14v-16.79Zm86.98-66.87v-17.1h-17.46v-16.8h-34.92v16.8h-17.14v17.1h69.52Z"/>
      <path class="cls-1" d="m1080,540.96v251.29h-69.52v-33.59h34.6v-184.11h-34.6v-33.59h69.52Z"/>
    </g>
  </g>
</svg>