<svg id="Calque_1" data-name="Calque 1" xmlns="http://www.w3.org/2000/svg" viewBox="0 0 2048 2048"><defs><style>.cls-1{fill:#3a3335;}.cls-2{fill:#fce1b1;}.cls-3{fill:#c51e5b;}.cls-4{fill:#fff;}</style></defs><rect class="cls-1" width="2048" height="2048"/><g id="ZOZIOS"><path class="cls-2" d="M973.19,859.76l-9.6,7.41c-1.82-14.18-5.34-25.48-3.51-35.83.67-3.79,14-5.35,22.3-8.17-2.49-9.76-6.88-22-8.49-34.58-1.58-12.3-.35-25-.35-42.05L1004.38,766V723.74l20.2,6.94c6.67-31.73-3.63-62.8-9.83-95.48,19-3.71,32.45,7.31,47.72,15.12-.92-25.08,2-48.72,11.48-71.11v93.5c-8.24-6.77-14.91-13.27-22.57-18.26s-16.17-8.4-24.41-12.56c4,34.36,7.89,67.05,11.85,100.6L1028,746.28l-14.52-10c-7,7.66-.09,35.86,13.54,54.29l-4.43,5.21L982.33,761l-3.9,1.75c1.37,10.53,1.08,21.63,4.48,31.45,5.57,16.06,13.57,31.28,20.52,46.86,2.83,6.36,5.05,13.07,8.59,19,2,3.41,6.12,5.58,9.29,8.32,1-.9,1.93-1.79,2.9-2.68l-15.39-30.14,2.74-1.48,19.78,34h58.78c-8.45-19.77-15.59-36.46-22.73-53.15l3.29-1.43c7.27,16.33,14.54,32.67,22.36,50.22l35.14-17.56c-7.82-20.15-15.19-39.16-22.56-58.16l4-1.55c7.18,18.12,14.36,36.24,22,55.63l10.11-7.73-19.3-53.14,3.33-1.3c6.59,16.87,13.17,33.75,20.19,51.73l14.07-8.32-.24.22L1180.7,806l-13.81-39.16,3.22-1.55q3.51,8.4,7,16.8c2.39,5.74,4.76,11.49,9.4,22.69l23.08-27.67h0c8.63-5.55,17.07-11.44,25.92-16.6,25.55-14.89,53.55-21.76,85.63-24.29,3.16-11.78,7.15-23.93,9.61-36.37,9.51-48.06,21-96.17,16.89-145.54-4.78-58-12.71-115.81-17.72-173.83-5.32-61.68-26.42-118.49-50-174.75-4.36-10.38-8.19-21-12.52-31.36-.81-1.94-2.83-3.38-7.16-4.49.93,10,2.22,20,2.72,30,1,19.63,2.61,39.32,1.9,58.9-.43,11.78.87,21.51,9.56,29.92,3.48,3.37,5.78,7.94,8.68,11.91,5.77,7.92,5.32,15.2-3.28,22.18l-16.44-21.53c-9.85,33.34,8.68,62.69-3.12,94.46l-5.36-7.15c-20.23-2.13-18.74-26.07-35.8-30.92,0,5.52,0,11.36,0,17.19-.25,30-.37,60-1,90-.09,4.23-2.63,8.41-4.91,15.23l-34.3-39.39c-2,30.22-3.65,56.25-5.52,85l-39.15-70-2.46,1.87c-2.28,21.43-4.56,42.86-7.28,68.38l25.4,24.64c-11.59,5.81-19.11-7.22-31.78-6,1.15,20.75,2.31,41.78,3.46,62.69-27.08,3.55-29.88-25.24-50.86-32.11l8.06-8.41c10.76,11.42,20,21.21,30.5,32.34,0,0,2.72-1.81,2.84-3.8,1.17-18.07,1.93-36.17,2.64-54.26.07-1.8-1-3.64-1.64-5.88l8.57-4.09v-96l4.76-1.7c13.4,18.81,26.81,37.62,40.95,57.45,1.63-21.63,3.28-43.48,5.18-68.6l37.07,39.27V358.37c-66.29,47.2-130.77,38.15-194.23-4.76l-6.37,5.32c2.56,2,5,3.19,6.37,5.12,1.27,1.74,1.47,4.27,2.09,6.3,36.94,39.45,138.09,41.77,189.92,12.57-1.62,3.24-2.38,8-5,9.49-25.29,14.1-52.34,21-81.54,19-13-.89-26-.5-39-1-25.11-1-44.23-15.71-65.29-29.26-30.83,15.35-53.47-4.68-77.12-20.47-32.85-21.94-65.47-44.24-98.31-66.19-14-9.33-12.48-22.7-10.32-38.1L694.9,148.26l-13.67,7.34c-16.38-10.51-30.42-38.64-26.81-50.82,8.67-11.7,18.66-10,28.88-4.49,10.5,5.68,28,3.1,26.9,23.1L851.12,227.73c26.93-19.6,47.79-.71,67.89,12.37,33.36,21.71,64.94,46.13,97.49,69.09,10.26,7.24,22.28,12.94,19.27,28.62-.94,4.89-3.45,9.48-5.3,14.32,61,37.85,120.7,40,179.45-5.2-.33-4.11-.7-8.67-1.14-14.1l7.13-1.34c2.21,4.45,4,8,6.08,12.2l29.72-14.16c.88-9.56,1.77-19.19,2.79-30.29l-4.92-4.66,6.17-7.07L1270,300.75l1.43-1.3-15.89-18.79,3.41-.5-8.58-98.86a2.09,2.09,0,0,1,0-.86c2.74-7.55,3.6-19.57,8.65-21.73,10.82-4.61,16.31,6.6,19.46,15,16.66,44.4,32.59,89.07,48.79,133.64.58,1.6,1.29,3.16,2.71,6.58,11.54-6,23.06-11,33.63-17.54,48.47-30.09,98.17-58.37,155-68.19,52.3-9,99.39,3.91,132.24,48.84,17.24,23.56,21.5,52.2,21.38,80.93-.09,24.25-1.78,48.49-2.83,74.35,29.7,26,16.74,66.35,1.41,100.06-11.35,25-30,42.64-49.81,60.4-23.2,20.79-43.09,44.9-49.13,76.76-2.54,13.41-1.9,27.43-2.79,42.46,7-.45,11.53-.62,16-1,41.42-3.82,77.46,6,103.66,40.83,17.8,23.64,19.34,61.41,4.89,81.13-13.09,17.87-36.76,20.14-60.72,14.38-33.18-8-57.8-28.56-72-60.22-1.62-3.63-1.11-8.22-1.59-12.36l3.47-1.45c2,2.31,4.55,4.32,5.74,7,13.12,29.23,33.81,50.4,65.13,59,16.26,4.47,34.36,6.84,47.64-5.84,16.31-15.57,15-36,8.72-56.17-8-25.81-27-42.38-50.33-51.88-14.66-6-32.25-5.25-48.61-6.44-17.47-1.28-32.37,6.32-46.77,15.47-13.67,8.68-23.45,35.62-19.18,57.32,4.41,22.38,9.54,44.62,14.59,68,5.14,1.25,10.76,2.62,19.79,4.8-4.74-17.89-7.78-33.41-13-48.14-7.68-21.66-8.63-42.56,3.8-62.4,6.17-9.85,15.34-15.8,28.05-16.25s25.65-2.79,41.47-4.65c12.21,7.79,27.89,14.94,39.77,26.11,14.48,13.61,26.71,30.5,19.13,52.88-7.7,22.71-17.11,23.94-36.88,15.85-35.22-14.4-60.66-40.62-76.23-75.79-12.82,7.32-18.92,27.81-14.08,46.41s9.51,36.93,14,55.46c1,4.13.94,8.51,1.43,13.34L1588,878c-1.74,2.49-2.94,4.21-3.23,4.61L1559,875.27c.13-.41.25-.82.38-1.23-12.28-4-24.73-7.5-36.82-12-28.76-10.62-57.38-21.65-86-32.65-2.88-1.11-5.4-3.15-8.3-4.88.63-3.63,1.15-6.69,2-11.66-10.33-13.09-19.19-30-32.91-40.58-35.21-27.2-75.69-32.34-118.49-20.19a171.28,171.28,0,0,0-69,38.47c-16.66,15.09-33.21,30.29-50.19,45.78l-8.84-2c-29.33,30.47-65.62,45.38-109,44l-7.39-4.74c-.32,1.16-.65,2.33-1,3.5l-34-8.61-.22.27,9.78-3.2c-3-7.55-5.75-14.65-8.6-21.9l-6.54,1.54L995,840.9l-27.06-9.27-2.82,3.48q4,12.43,8,24.89ZM948.37,274.05l-22.63-19c-2,12.73-3.43,21.76-4.85,30.79l1.37.33q3.29-9.79,6.56-19.61l3.44,1.4q-1,7.38-2.08,14.75l1.32,0,4.89-11.34,2.76,1c.35,3.37.71,6.75,1,9.24l8.48-7.76v9l10.57-1,.63-2.41Zm705.5,213c-7.86,8.66-13.48,15.51-19.78,21.67-17.44,17.08-37.37,28.94-62.92,26.84-19.59-1.61-27.27-8.48-28.25-25.13-1.67-28,12.89-49.7,31.29-67.67,17-16.57,36.47-31.83,63.75-26.75,1.62-7.22,3.89-13.07,4.1-19,1.1-30.49-3.54-59.64-16.9-87.75-12.46-26.22-25.73-49.5-59.3-49.69a16.12,16.12,0,0,1-3.36-.86c-21.08-4.83-42.29-3.69-62,4.25-25.21,10.18-49.5,22.7-73.93,34.74-30.79,15.17-61.32,30.87-91.12,45.91,17.28,132.09,39,262.61-6.86,393,55.56,6.41,95.63,30.28,113.09,86.1l88,32.94c-1.23-5.2-2.1-8.4-2.74-11.64-4.21-21.26-9.91-42.37-12.1-63.84s11-37.61,25.22-53.7c-5.7-36.84.11-72.2,20.2-105.21,16.08-26.44,33.61-51.6,58.07-70.77C1638.39,534.83,1649.49,514.86,1653.87,487.05Zm-85.48,21.72c-.28-5.34-2-11-.6-15.83,5-17.54,11-34.8,27.88-45.1,13.78-8.43,28.26-16,44.82-10.16,17.25,6.12,21.26,22.44,23.09,37.83,4.34,36.46-17.94,61.25-39.69,85.48-36.12,4.16-87.68,115.94-74,159.55l11-6a67.29,67.29,0,0,0,0-7.58c-3.13-26,.56-51.75,14.92-73,14.09-20.88,33.09-38.47,50.23-57.24,4.62-5.07,12.08-8.2,15.17-13.88,12-22,24.86-43.87,33.18-67.29,7.68-21.58,5.11-50.11-20.42-62.54-7.32-3.56-15.2-6-24-9.36-35.75-2.51-78.57,50.86-77.28,84.38.22,5.68,5.32,14.39,10.06,16,8.19,2.7,18.11,2.28,26.86.7,21.86-4,36.3-19.3,49.83-35.47,4.48-5.36,8.9-10.77,14.46-17.5-1.37-3.74-3.1-9.24-5.38-14.49-4.2-9.63-11.07-16-22.27-13.82-16,3-29.67,10.83-38.59,24.53-6.75,10.36-13.66,21.47-9.43,36.11a93.3,93.3,0,0,0,9.72-.56c23.35-3.85,34.73-21.5,45.82-39.63,2.15-3.52,5.47-6.33,8.26-9.47l3.58,2.81c-2.27,17.15-15.36,27.85-26.58,39.35C1605.63,510.27,1589.72,516.5,1568.39,508.77Zm91.78-82.52c1-24,2.33-45.51,2.66-67,.43-27.48-4.22-54.71-20.37-77-34-46.86-80-55-132.71-44.11-42.85,8.85-81.53,28.64-118.74,51.29-19.42,11.82-39.17,23.09-59.26,34.89.84,3.4,1.71,7,2.88,11.76,10.19-5.73,19.21-11.32,28.68-16,36.15-18,72.82-35,108.57-53.71,28.41-14.91,57.28-21.08,89.5-16.86,27.94,3.67,51.21,12.74,64.52,38.7,21,41,33.16,83.76,21.59,130.9Zm-86.28,320.22c2,4.39,3.91,8.67,6,12.85,12.71,25.79,32.78,44.82,57.61,58.1,7.68,4.11,21.85,6.2,27.4,1.9,9.2-7.11,9.62-20.49,2.9-31.83-4.51-7.6-8.21-16.12-14.26-22.27-15-15.21-32.85-24.4-55.26-21.24C1590,745.14,1581.74,745.69,1573.89,746.47Zm-680-426.07,40.25,27.42c22.51-23.72,47.35-36.23,83.36-26.08L983,294.56C947,288.05,916.63,290.14,893.92,320.4ZM845.2,284.51c14.44-31.76,42.34-34.82,73.11-35.25-5.81-3.39-9.6-6.1-13.78-7.95-16.07-7.11-32.35-19.46-49.56-4-6.56,5.87-10.46,14.86-15.05,22.73C834.35,269.58,838.59,277.17,845.2,284.51ZM681.22,148l8.56-13.85L715.09,152l6.38-10-21.69-12.38c.38-4.19.73-8.1,1.28-14.17l-37.29-9.58c-.8,1.55-1.59,3.11-2.38,4.66Zm115,48.45-52.49-37.18-7.63,11.84L786.67,210ZM795,217.38l38.78,29.25,9.34-13.26-39.2-29C800.9,208.8,798.31,212.57,795,217.38Zm209.52,111.28c-.32-1.27-.63-2.54-.95-3.82l-33.83,6.83c-1.48,13.49-2.7,24.6-3.92,35.7l2.56.28,4.89-28.82,3,.26v14.7l1.44.09,3.15-10.17,3.6.55L980,375l5.42,1.17V353.39l2.85,1.09Zm5.06,47.57c-12-15.52-10-24.31,5.58-33.06l10.32,4.86c.53-7.23,1-13.09,1.51-20.71-22.66,3.52-22.11,23.86-32.11,34.75.94,3.94,1.73,7.27,2.74,11.49ZM874,301.74l3.11.42q3.34-17,6.67-33.92l4.51.79-6.77,41.9,8.16,5.62c-1.61-6.64-2.48-10.23-3.06-12.65,1.64-14.92,3.17-28.83,4.81-43.77l-10.55,3Zm364.83,60.8,14.25-8.3c-.4-5.13-.74-9.39-1.22-15.51l-24,10.35Zm-337.89-101-3.42-.52q-3,22.6-6,45.21l2.71.43Q897.57,284.12,900.91,261.56Zm341.72,105.11,6,12.22,8.9-3.53c-1-4-1.87-7.53-2.82-11.35ZM909.31,261.47l-3.23-.75q-1.87,16.75-3.74,33.5l2.49.31Q907.08,278,909.31,261.47Zm9.57-.89-3.62-.51q-1.75,14.24-3.52,28.49l2.51.36Q916.56,274.75,918.88,260.58Zm-45.12,7.77-2.82-.46q-2.72,15.83-5.42,31.63l2.33.37Zm-17.89,24.84,3.81.8,3.42-16.71-2.87-.65Q858.06,284.91,855.87,293.19ZM734.06,153.26l-3.55-2.49-5.88,9.45,3.51,2.2Zm223.2,208.11,2.84.57q1.29-8.69,2.59-17.36l-2.5-.38Q958.72,352.8,957.26,361.37Zm-7.12-4.64,1.59.39q1.21-4.62,2.44-9.22l-1.8-.45Q951.25,352.1,950.14,356.73Zm26.21,6.9-1-.14c-.32,1.91-.64,3.83-1,5.74l1.39.11C975.94,367.44,976.14,365.53,976.35,363.63Z"/><path class="cls-2" d="M1047.78,1532.64c13.91-14.77,27.73-29.63,41.8-44.25,4.86-5.06,9.87-10.22,15.62-14.14,23.52-16,47.34-31.62,71.68-47.79l5.24,7.94c1.27-.22,3-1.09,4.05-.62,5.78,2.48,11.43,5.3,17.12,8-3.79,5-6.57,11.61-11.55,14.61-23,13.86-46.62,26.7-69.1,41.83,34.51-14,69.3-24.26,108.58-22.34,33.46-26.19,42.62-61.86,33.59-103.3-8.8-40.36,4.37-75.18,25.45-108.38,15.56-24.51,39.9-30,66.44-32.17,23.26-1.93,47.64-1.85,65.39-21a87.62,87.62,0,0,0,11.53-16.17c13.9-24.33,30.45-47.74,40-73.7,5.35-14.46,2-34.17-2.76-49.94-13.24-44.26-1.29-84.16,17-123.35,7.15-15.27,16.55-29.49,25.78-45.7-14.65,5.74-29.44,2.32-43.33,14.45-12,10.5-31.36,13.28-48,17.6-10,2.59-20.85,1.58-31.32,2.19-.35-1.56-.71-3.13-1.06-4.69,3-1.1,6.08-3.08,9.17-3.16,21.32-.59,41.73-4.58,64.32-16-22.43,1.2-41.32,10.51-61.5,1.68l171.87-33.07c.85,3.91,1.37,6.28,2.08,9.52l-12.68,3.52c-13.75,24.11-31,48.76-42.26,75.89-8.35,20.17-11.69,43.5-12.22,65.54-.62,25.86,6.14,51.86,6,77.78-.11,15-6.58,30.28-12,44.76a224,224,0,0,1-48.35,77.19c-26.06,27.19-57.83,37.33-95.35,33.62-27.64-2.74-40.11,2.86-53.13,27.22-4.68,8.75-5.13,20.89-4.3,31.22,1.63,20.11,7.25,40,8.12,60.06,1.58,36.69-6.15,70-32.62,99.06-16.21,17.79-35,24.28-56.22,27.82-13.71,2.28-27.92,1.48-41.88,2.5-3.83.28-7.54,2.13-11,5.85,11.12,2,22.54,3,33.3,6.22a501.12,501.12,0,0,1,48.08,17.37c3.57,1.47,5.47,7,8.13,10.64-4.15,2.41-8.64,7.34-12.41,6.84-24.94-3.29-49.67-8.18-74.59-11.67a292.52,292.52,0,0,0-40.14-2.47c-3,0-7.33,4.28-8.62,7.54-11.22,28.37-5.26,57.45-3.42,86.51,1.8,28.41,10.07,57.46-1,85.27-18.17,45.68-60.83,97.72-118.56,97-36.67-.44-72.28-7.64-101.85-31-17.71-14-31.74-31.37-39.31-53.82a232.63,232.63,0,0,0-22.23-47c-9.59-15.58-26-19.89-43.44-19.11-32.89,26.86-37.95,64.06-40.12,103.36l-7.44-1.2c-.62-2.76-1.7-5-1.52-7.16,2.94-34.91,7.91-68.66,34.84-95.35,11-10.89,25.49-9.66,44.44-3.26,14.5,4.9,22.61,16.53,28.57,29.7,7.48,16.53,13.66,33.69,21.77,49.88,11.44,22.82,29,40,52.6,50.3,35.31,15.42,71.6,23.9,109,8.4,38.52-15.95,87.18-76.47,78-126.76-5.83-32-5.47-65.2-6.59-97.91-.35-10.35,3.5-20.85,5.52-31.77l-9,2.33c-10.76,32.16-7.53,64.1-3.67,96.44,4.41,37.06-1.34,72.48-27.57,101.21-11.84,13-24.86,25.63-39.49,35.13-18.5,12-41,10.87-61.09,5.73-42.67-10.91-75.47-33.75-86.61-80.44-5.64-23.61-18.9-45-42.05-54.12C819.7,1650.79,794,1643.12,774,1663c-12,12-20.69,28.51-27.5,44.43-7.42,17.34-10.84,36.38-16.29,54.59-1,3.32-3.39,6.21-6.63,11.94-7.48-26.13,19.27-102.06,48.91-124.56l-12.36,6.54c-3.55-30.3.43-59.14,4.86-89.24-25.12,15.43-40.66,42.69-70.73,48.21-2,.38-4.38-.89-9.24-2,2-5.8,2.39-12,5.63-15.59,13-14.56,27.9-27.47,40.13-42.59,17.5-21.64,41.52-39.45,44.86-70.24,1-9.26,2.08-18.51,3-26.54,12.33-4.45,12.33-4.45,28.14,19.74L872,1427.25l-22.88-54.54c-39.95-18.54-78.24-38.73-100.62-73.42-13.23,6.91-24.57,13.39-36.56,18.28-1.28.52-6.35-8.25-10-13.15C674.29,1332.5,645.17,1362.19,601,1367c-11.94-9.94-9.48-34.83,7-63.47l39.8-5.2q.46,3.09.91,6.16l-37.61,6.1-11.51,46.37c30.81-2.18,51.23-17,69.76-32.79s33.67-35.26,52.53-52.73l-11.09,34.18c9.6,4,21.9-4.32,28.14-18.07L724.65,1268c.35-1.24,1.09-3.81,3.06-10.66,34.36,49.11,73.24,88.56,130.46,106.34,13.18-7.77,27.21,1.32,41.62,2.89,4.75.52,9.67.47,14.19,1.79,2.79.81,5,3.72,7.42,5.69q-1.14,1.88-2.29,3.75L882.89,1374l11.83,7c1.9,11.64,5.11,24.31,5.84,37.13,1.64,28.65-16,46-38.34,59.22-18.58,11-37.8,21-57,31-3.49,1.82-8.13,1.44-12.25,2.07l5.78,8.35-21.16-9.19c-1.71,15,10.25,17.31,22.55,22.18L808,1520l75.27,99.94c-7.24,13.77-14.17,14.71-24.57,2.74-20.77-23.9-41.33-48-63.89-74.2-4.64,34.54-8.78,65.33-12.93,96.14,10.47,0,22.16.27,33.84,0,29.11-.8,49.65,13.56,63.22,37.7,8.53,15.16,13.77,32.14,21.31,47.91,9.82,20.55,23.43,36.49,46,45.63,21.09,8.54,41.62,13.15,63.94,9.32a61,61,0,0,0,39.62-24.23c11.41-15.25,26.65-29.61,32-46.91,6.53-21.08,7.09-45,5.53-67.36-2-28.7-4.76-57,3.32-88.18-10.93,5-20.06,9.19-29.16,13.43s-18.23,8.59-27.49,13c-14.07-15,1-26.7-.21-38-10.75-30.42-34.85-48.9-57.74-68.35-24.91-21.16-41.21-47.45-47.53-79.56-1.14-5.77-.17-12-.17-18.1l8.37-2.3c2.77-11.86,12.78-12.58,22-12.3,36,1.12,71.37-3.4,104.89-15.52,20.93-7.58,39.51-21.47,59.51-31.82,27.69-14.32,51.57-33,69.7-58.51,6-8.39,10.54-17.77,16-26.51,1.93-3.06,4.78-5.54,9.36-10.71.33,5.95,1.62,9.37.45,11-17,23.1-30.82,50.31-52.46,67.8a379.81,379.81,0,0,1-96.66,56.71c-30.7,12.24-65.48,14.27-99.47,21l2.4,7.21-3.33.94c3.75,12.82,5.17,27,11.78,38.16,11.13,18.71,25.66,35.38,38.55,53.06,9.17,12.57,18.51,25.08,26.67,38.29,2.49,4,1.33,10.33,1.86,15.6l-6.75,4.47,4.91,9.43c-1.53,4.72-3.65,9.35-4.29,14.19-.24,1.78,3,4,5.45,7-.49-8.43-.86-14.8-1.26-21.18C1046.58,1542.05,1047.18,1537.34,1047.78,1532.64Zm13.36,3.33,4.59-2.83v19.53l13,2.36c-2.46-5.66-4.34-10-6.19-14.32,2.09-4.74,4.17-9.48,6.4-14.52L1072.6,1516v15.79l-7.08,1.6-3.13-2.25q-.51,2.55-1,5.09c-10.44,4.23-12.54,15.5-4.27,26.06l6.28-1.74-4.14-1.31C1059.88,1551.5,1060.53,1543.77,1061.14,1536Zm493.37-645.09c-9.93,2.83-18.82,2.68-22.74,7-9.35,10.34-17.13,22.34-24.15,34.47-25.37,43.8-40.67,89.37-26.54,141.07,4.1,15,9.22,34,3.59,46.51-14.64,32.66-33.33,63.89-53.57,93.54-15.48,22.7-42.65,23.34-67.8,26.89-17.27,2.43-37,4.61-50.31,14.23-25.15,18.16-35.43,47.83-39.41,77.68-2.33,17.48,1.19,36,3.81,53.82,5.45,37-10.28,66-32.55,91.87l17.39,9.6c17.39-17.35,31.21-35.74,35.56-61.79,4.76-28.51-3.56-55.21-4.69-82.77-1-25.16-4.49-49.93,18.47-69.82,13.06-11.32,27-13.94,42-13.07,29.36,1.69,57.07.94,81.77-19.19,35-28.54,52.2-68.22,67.39-108.14,6-15.88,1.6-36.39-.38-54.54-5.24-48-6.45-94.85,22.29-137.35C1534.78,925.93,1543.27,909.84,1554.51,890.88ZM732.89,1582.77l31.61-29.06-11-12.32c-2.91,4.53-5.35,8.33-7.23,11.24l5.52,13.24-10.4-7.21-3,3.23,3.1,10.7-2.64,1.17c-2.26-2.39-4.53-4.79-7.28-7.68l-7.15,6.14ZM781.23,1546l15.77-4.43-25.9-21.75C763.27,1533.05,780.9,1534.78,781.23,1546Zm179.48-96.89,7.76,8.66,13.3-10.17-3.85-6.63-13.2,1Zm-104.38,3.51,15.42,6.83c3-3.13,5-5.26,7.39-7.73l-14.28-9.14Zm96.32-14.7,4.55,1.36,16.46-10L956.8,1423Zm8.51-47.2c-12-.37-19.09,7.82-19.42,19.08l20.27-14.6Zm-1.5-14-1.68-2-13.35,2.11c-2.29,5.69-4.61,11.49-7.55,18.8C945.77,1388.34,952.72,1382.52,959.66,1376.69ZM944.41,1422l2.57,1.48,18.41-9.07L961.85,1403Zm-181,107.49-5.79,8.47,10.55,11.53,5-6.82ZM866,1386.23l14.66-2.57-16.29-7.42,9.83-4.25-15,.75C862.22,1378.72,864.13,1382.5,866,1386.23Zm121.21,84,6,11.84,10.8-9.36-6.27-5.52Zm-164.11,6.28,9.15,8.16,7.32-4.2c-2.59-3.61-4.88-6.81-7.63-10.63Zm-31.57,34.51c1-3.17,1.78-5.73,2.57-8.28L781.36,1496c-.58,3.26-1,5.66-1.49,8.4Zm59.87-43.7,15.05-1.27-15.05-12.32ZM989,1458.44c-.79-1.39-2-3.47-4.43-7.77l-7.75,16.24,3,.64Zm106.1,34.75-5.83,7.54,3.46,8.77,9.21-6.61C1099.67,1499.71,1097.75,1497,1095.08,1493.19Zm-225.53-52.73,15,5.18,3-6.53-11.74-4.78Zm291.84,21.23-5.81-12.56h-3.33c-.45,5.09-.9,10.18-1.57,17.72ZM843,1479.42l8.28-6.73-8.29-10-3.69,1.21C840.38,1468.38,841.44,1472.85,843,1479.42Zm172.87,7.52-7.72-6.75-8.14,6.62,7.63,6.87Zm-142.77-88.45c-.41,1.63-.81,3.27-1.22,4.91l17.75,2.4q.47-2.64.94-5.28ZM766.59,1611.17l15.73-4.69-13.12-8.36C768.42,1602,767.82,1605,766.59,1611.17Zm4.06-25.11c-.8,3.46-1.35,5.86-2,8.72l11.56,2.6v-7.06Zm308.48-40.18,18,4.69c-1.95-5.41-2.91-8.1-4-11.19ZM879.48,1422.82l-2.41,2.31c2.1,2.28,4.14,6.33,6.32,6.41,2.85.1,5.81-2.93,12.16-6.59Zm295.27,30.94-5.89-11.27-6.49,4.35,6.06,10.28ZM719.42,1594.47l-7.56-8.69c-2.17,2.52-3.81,4.42-5.7,6.63l5.33,6.88ZM784.15,1482c-.57,4.41-1,7.41-1.39,10.71l9,1.79c-.23-4.26-.41-7.63-.6-11.31Zm356.95-8.83,4-.6c-.28-4.79-.55-9.58-.93-16.28l-7.81,7.1C1138.05,1466.88,1139.58,1470,1141.1,1473.18ZM877,1410.55l-.89,3.45,15.26,4.47c.44-1.84.89-3.67,1.33-5.51Zm-109.7,214.87,8.45.88c.56-3.38,1-6,1.48-9l-9.48-2.06C767.56,1618.66,767.44,1621.4,767.26,1625.42Zm382.62-117.32,3.34.79c1.36-3.78,2.73-7.57,4.94-13.72l-11.25,4.24Zm-362.74-47-2.26,13.65,12.11,4.12C793.5,1472.6,791.25,1468.55,787.14,1461.14Zm16.49,87.17,6.94-13.47-2.24-1.57-9.61,5.27C800.06,1541.2,801,1543.15,803.63,1548.31Zm312.88-58,5.4-.34-2.22-14-3.18.12Zm43.78,25.78-22,4.72c.08.57.15,1.15.23,1.72h16.27ZM826.8,1485.14l-15.3-1.38-.47,3.65,6.82,4.89ZM720.22,1577l-3.18,1.29,5.33,13.07,6.1-5.21Zm387.13-79.94,3.12-.15c-1-4.3-1.93-8.61-3.1-13.81l-6.69,4.73C1103.18,1491.32,1105.27,1494.2,1107.35,1497.08Zm-3.62,49.4,3.22,0c.56-3.77,1.12-7.55,1.83-12.4l-8.66,2.72Zm63.82-13.46-3.79,8.54,8.3.53c.79-2.89,1.44-5.3,2.26-8.3Zm31.62,4.7c-1.26,3.1-2.19,5.36-3.48,8.51L1203,1549l3.74-7.8ZM775.59,1572.6l-2.72,1.72v7.57l7.52,1.81c.72-.75,1.44-1.49,2.15-2.24Zm350-38.59-3.62-2.67q-3.37,4.53-6.76,9l4.06,2.93Zm95.51,18.89c1.23-2.45,2.3-4.59,3.38-6.72l-1.66-2.63-13.69,5.92Zm-36.87-7.27,3.25-.94c.73-2.64,1.45-5.27,3.34-12.14-5.19,3.51-8.34,4.52-8.87,6.3S1183.39,1543.34,1184.26,1545.63Zm-151.81-19.31,4.62,7.14c2.14-2.53,3.69-4.36,5.42-6.42-1.71-2.19-3-3.9-4.5-5.77Zm80.19-11.15.91,3.06,13.46-4.15-1.37-4Zm29.26,19.4-3.7-3.77-6.77,7.38,3.09,3.13Zm13.9-1.09-2.28-2.35-9.61,8.28,10.08,1C1154.67,1537.8,1155.23,1535.64,1155.8,1533.48Zm-286.39-142.7.47,3.47,15.51-1.5c-.16-1-.31-2.08-.46-3.12Zm267.41,89.38-9.61-14.41v12.64Zm-314.57,66.59c-6.09,1-9.23.76-10.85,2.19-1,.88.37,4.4,1,9.52Zm-39.69,13.34c-3.45,2-5.53,3-7.26,4.38-.56.46-.21,2-.31,3.64l8.14,2.41C782.94,1567.09,782.81,1564.74,782.56,1560.09Zm82.56,58.33,3.8-2.2-5.83-8.32-3.23,2.08Zm-40.44-60.12-4.43,1.62,4.14,8.74,3.84-1.63Zm379.15-72.77-3.46,3.74,5.27,8.1,4.58-4.53Zm-181,6-7.75,7.27,6.39,7.11C1022,1500.67,1022.25,1497.6,1022.82,1491.52Zm-254.09,153.9,6-11.38-7.79-2.17C767.42,1635.57,767.79,1638.4,768.73,1645.42Zm366.6-131.18c2.73-3.78,4.33-5.68,5.49-7.83.31-.55-.78-1.86-1.41-3.23l-6.69,2.51C1133.38,1507.88,1133.93,1509.67,1135.33,1514.24Zm-26.35,3.15c-4.71,3.2-8.56,5.83-14.83,10.11l15.33-3.15C1109.31,1522.07,1109.18,1520.25,1109,1517.39Zm56.88-13.2,2.24-1.19c-.94-3.16-1.87-6.31-3-10.17l-5.11,3.3Zm16.46-2.31c-2-6.47-2.83-9.19-3.9-12.69l-7.26,3.55Zm-150.83,6.27-4.12-.26v8.41l2.89.3Zm152.16-62.92,1.49,3.47,8.64-3.88c-.39-1-.79-1.92-1.19-2.88Zm6.16,51.07,2.92,0v-8.61l-2.92,0Zm-98.2,31.66-2.79-3-6.37,6.24,2.28,2.39Zm-250.86,56.67-.92,3.51,8.13,2.71c.35-1.26.71-2.53,1.07-3.79Zm402-29.55.52-2.56-10-1.17c-.08.94-.15,1.88-.22,2.82Zm-19.46-68.57h-6.54l6.54,9.78Zm-388.65,86-3.11,1.48,3.41,6,2.72-1.44Zm249.93-63.21-3.15.67,1.5,7.5,2.92-.55C1085.4,1514.43,1085,1511.89,1084.55,1509.35ZM780.16,1555.6l3.8-.38c-.57-1.76-1.1-3.53-1.78-5.25-.08-.19-1,0-2,0Zm457.17-66.78-2.49.28c.28,1.64.56,3.28.83,4.92l1.66-.17ZM800,1495.44l2.37,1.23,3-4.87-2.77-1.49Q801.32,1492.88,800,1495.44ZM697.49,1602.73l1,2.06,5-2.16c-.34-.75-.69-1.5-1-2.24Zm481.1-162.19-1.6,1,3,4.91,1.52-.93Zm-322.43,158-2.15.68,1.35,3.89,1.71-.5C856.77,1601.26,856.46,1599.91,856.16,1598.55Zm358-92.1c0-.47,0-.93,0-1.39H1210v1.39Z"/><path class="cls-2" d="M550.86,1068.15l69.86,19.79,51.15-53,2.51,2.71v-22.55c-4.9.53-8.78.89-12.64,1.38-11.5,1.45-18.41-5.2-15.6-16.46,2.46-9.86,6.75-19.27,10.55-29.75l-21.86-3.55c-8.19-15.58-4.19-26.85,8.73-27.73.29.47.93,1.16.79,1.41-7.86,13.76-4.35,20.14,11.93,20.79,4.72.18,9.23,5.5,13.59,8.31l-17.7,28.94,6.58,9.17,27.18-1.41c-1.26,8-2.56,16.15-3.92,24.71l17.53,2.4c0,12-3.33,25.18.76,35.43,6.49,16.25,20.37,4.64,33.27,2.91-4.73,15.54-12.33,31.18,3.25,46l12-9.91c.65-11.21-4.54-21.85,4.66-32.23,3.29,13.94,5.94,25.1,9.08,38.35l15.29-12.65c4.56,13.46,8.62,25.46,12.68,37.46l4.85,1.37L813,1119.19c12,6.51-1.54,29,19,31.82,5.62-4,12.31-8.77,19-13.54,14.6,17.82,15.64,18.07,25,9l31.26,5.86L892.82,1162l-13.65-5.7c-16.1,8.76-26.06,4.15-31.56-6.36-21.4,15.25-26.39,14-39.41-9.63-23.75,13.23-29.9,8.37-31.92-24.93l-16.43,6.79-7.81-5.83c.11,1.25.21,2.5.32,3.76-7.26,1.32-14.87,4.67-21.68,3.47-8.79-1.55-9.9-7.93-11-36.76L692.12,1083c-1.7-14-3.25-26.72-5-41.15l-7.51-1.78L626,1097.58l-69.89-20.43c-.71,1.8-1.43,3.6-2.14,5.39,15.76,18.24,39.1,24.86,60.19,36.12l8.64-15.41,5.26,4.29c-5.76,12.06-11.09,23.2-16.4,34.33l27.06,60.45c-19.43-11.87-25.34-30.6-25.71-52-7.8,2.31-10.83-3.94-7.54-13.37,1.51-4.3,3.51-8.43,6-14.23-45.37-5.92-88-23.71-133.72-21.69l-1.38,4.64,67.19,26.07c-.12.56-.75,3.54-1.53,7.16l42.23,20.29,14.75-1,.67,7.25c-83.29,13.17-164.6,29.94-239.49,74.79,36.95,12.53,72.86,5.3,109,3.52V1252c-16.59,12.57-118,2.41-124.64-14.42,69.45-40.22,144.16-65.07,224.63-77.07l-111.71-57.29c-.11-1.68-.27-4.16-.48-7.46,38.68-10.58,74.76,3.11,113,10.39C561.33,1094.7,542.93,1090.54,550.86,1068.15Z"/><path class="cls-2" d="M720.8,235c-12,46.23-49.22,80.14-51.32,130.28,15.19,28.32,15.19,28.32,7,33.18L659.8,387.34c-1.17,4.75-2.42,9.87-3.8,15.5L679.38,437l-5.2,9-27.67-40.42c3.18-15.06,5.49-26,8-37.73l5.75,3.35c.55-5.61.7-11.83,1.82-17.88,5.57-30.18,20.94-56.09,35.45-82.52,6.44-11.73,9.76-25.16,14.66-37.75,1.34-3.45,3.24-6.69,5.31-10.88,26.26,20.74,32.23,47.63,32.06,77.19-.14,24.88-.59,49.78.43,74.62,1.88,46.28,3.82,92.59,7.44,138.74,3.4,43.44,11.68,86.38,29,126.48C815.74,707.32,854.81,769.29,907,822.78c23.32,23.89,47.07,46.25,78.69,58.62,2.55,1,4.65,3.18,6.71,7.74-2.69.15-5.65,1.11-8,.32-31.93-10.58-58-29.86-79.25-55.53-26.52-32.06-54.8-63-77.93-97.44-30.4-45.2-56.2-93.79-66.5-148a972.17,972.17,0,0,1-15.15-118.85c-3.81-59.56-4-119.35-6.69-179C738,271.66,734.82,252.62,720.8,235Z"/><path class="cls-2" d="M504.23,1243.56,526.86,1214c5.48,13.09-7.2,20.55-10.39,33.1h27.31c-.09.48-.17,1-.26,1.45l20-3.71c-5.5-7.67-.75-12.13,7.45-15.17,19.58-7.27,39.09-14.75,58.77-21.77,3-1.07,6.71-.15,11,2.09L569,1239c8.38,9.34,23.87,7.07,26,23.48l-14.85-7.89c-.85,2.11-1.59,4-3,7.46-19.52-15.83-35.36-2.38-51.13,6.23-25,13.61-46.56,31.34-59.94,57.32-.74,1.44-.84,3.22-2.09,8.37l74-9.79c4.16-12.93,7.14-22.16,11.38-35.31l10.74,26,51.75-26c30.12-43.31,38.41-50.75,47.93-43.64l-35.9,36.89c36.31,9.68,36.31,9.68,35.8,15.39-8.45-1.22-17-3.88-25.3-3.26-8.7.65-17.56,3.55-25.64,7.08-17.67,7.72-34.89,16.46-51.65,24.49l-8.26-6.61L545,1333.62l-89.81,9.63c0-6.74-1.55-12,.25-15.57,15.36-30.47,38.8-53,69.34-68.17a42.29,42.29,0,0,0,4.48-2.58c.35-.23.35-1,.7-2.16H503.83c.25-4.49.45-8,.64-11.41Z"/><path class="cls-2" d="M636.28,639.73,630,646.32c-41.45-46.8-54.35-102.56-59.35-162.1l5.77-3.07,13.26,10.52,1.72-1.45a67,67,0,0,1-3.58-6C583.9,476,577.61,468,576.68,459.41c-3.8-35.19-5.95-70.56-8.71-105.86l-3.93-.39,5.35-4.16c15,6.65,61.6,86.59,61,106.91-3.59-3.09-7.18-4.62-7.56-6.74-5.26-29.37-27.39-48-43.42-70.82,3,30.22,4.89,59.9,9.49,89.14,1.29,8.13,10.2,15.35,16.35,22.34,7.28,8.27,6.68,13.69-3.36,17.55L580.38,497C585,551.24,601.7,598.09,636.28,639.73Z"/><path class="cls-2" d="M603,745.74c-.2,2.18-.41,4.37-.6,6.39l-65.67-23.59c20.66,33.65,30.92,72.64,67.18,95.48l-34.17,22.33c12.93,26,40.52,22.52,58.33,36.87-1.75,1.92-3.44,3.65-5,5.49-4.4,5.18-13.44,13-12.26,15.14,4.21,7.61,11.79,13.42,18.36,19.63,2.1,2,5,3.09,9.22,5.58-13,6.7-21.19.89-28.41-5.45-10.78-9.44-11-21.76-1.83-39.22-9.93-4.49-19.89-8.89-29.76-13.47-9.1-4.23-15.77-10.55-13.87-21.49,2-11.52,9-19.21,20.45-22.44,1.83-.51,3.72-.78,8.76-1.81-40.86-25.22-47.44-72.6-78.16-103.91l3.62-6.13c12.61,3.66,23.92,6.62,35,10.25,13.61,4.45,27,9.47,40.55,14.25l-.29-.25,7.32,5.42A14.16,14.16,0,0,1,603,745.74Z"/><path class="cls-2" d="M603,745.74a14.16,14.16,0,0,0-1.23-.93l-7.32-5.42.29.25L539,665.8c3.58-4.55,5.14-6.53,7-9-17.66-8.15-19.23-26.77-26.91-41.48-9.28-17.75-18.37-35.59-27.6-53.36-1-2-2.38-3.79-3.36-5.35.54-1.51.61-2.55,1.17-3.08a38.25,38.25,0,0,1,3.9-3c7,4.1,13.48,8.35,20.35,11.84,25.35,12.9,53.8,20.47,73.78,42.56,2.63,2.91,3.75,7.19,5.25,10.19l-79.55-45-2,3c9.45,21.41,17.9,43.37,28.9,64,4,7.4,14,11.52,22.42,18l-2.53,3.7,10.23,1.29c-.31,2.73-.58,5-.85,7.34l-14.5,2c16.1,26.61,29.93,54.05,59.18,69.56-.61,2.49-1.18,4.84-1.93,7.88Z"/><path class="cls-2" d="M1227.83,1182c.51-5,.62-10.19,1.61-15.14,3.4-16.9,8-33.61,10.37-50.64,1.45-10.38-1.82-21.41-.37-31.78,2.14-15.32,9.21-30.27,9.48-45.46.54-29.23,14.68-51.42,31.31-73.11a7.34,7.34,0,0,1,2-1.65c.72-.43,1.55-.66,5.32-2.2-1.09,5.72-.5,10.82-2.78,13.32-20.33,22.4-27.58,49.16-29.65,78.65-1.1,15.61-10.57,31.6-8.44,46.28,4,27.58-7.63,51.32-11.9,76.77-.35,2.08-2.21,3.91-3.36,5.85Z"/><path class="cls-2" d="M677.13,456.26C672.77,460,672.77,460,647.24,437c-2.89,42.47,4.26,81.48,29.15,116-4.89,5.72-10.78,5-14.65-3.82-7.4-16.84-16-33.89-19-51.71-3.72-22.2-2.28-45.26-3-68-.18-5.76,0-11.54,0-20.08Z"/><path class="cls-2" d="M1326.27,800.08c-1.55,7.91-2,10.31-2.84,14.48l6.84-2.81c.45-4.61.8-8.11,1.2-12.11,16.39,9,19.65,15.84,13.57,26.79-5.31,9.56-15.51,12.7-24.93,7.67-10.85-5.79-16.9-18.44-11.16-26.43C1311.56,804,1318.31,803.37,1326.27,800.08Z"/><path class="cls-2" d="M1321.84,951.71c-8.44,11-19.82,9.93-30.64,8.94-27.65-2.53-41-22.32-51.57-44.7-1.53-3.25-.21-7.86,1.87-13.09C1257.7,937.58,1278.86,962.12,1321.84,951.71Z"/><path class="cls-2" d="M504.47,1243.36l-11.27,8.46c-.87-1.51-2-3.5-3.16-5.43l20.66-31.46,3.92,1.7a93.25,93.25,0,0,1-2.81,9.71c-2.34,5.82-5.05,11.5-7.59,17.23Z"/><path class="cls-2" d="M1215.47,1223.24c3.28-13.06,6.56-26.11,10.55-42,3.57,4.67,5,6.53,6.15,8l-11.73,35.61Z"/><path class="cls-2" d="M999.43,868.48l-15.22,8.82c-4.6-7.31-7.81-12.43-11-17.54l-.13.24,14.59,7,4.07-.62L983.23,847l3.52-1.79Q993,857,999.21,868.75Z"/><path class="cls-2" d="M1096.54,793.13l21.48,51-3.43,1.47-22.32-50.8Z"/><path class="cls-2" d="M933.26,1148.46l35.08-11.64C963.49,1150.69,943.79,1157.17,933.26,1148.46Z"/><path class="cls-2" d="M1052.66,808.07q11.25,26.13,22.52,52.26l-3.16,1.41q-11.54-25.9-23.09-51.81Z"/><path class="cls-2" d="M1042.05,865.77l-21.81-40.72,3.73-2,22.35,40.59Z"/><path class="cls-2" d="M1040.23,820q11.22,23.93,22.45,47.84l-3.34,1.61-22.68-47.72Z"/><path class="cls-2" d="M1082.11,803.9,1102.39,847l-3.17,1.57q-10.59-21.2-21.19-42.4Z"/><path class="cls-2" d="M1160.08,823.24c-2-1.55-5-2.67-5.93-4.72-5.64-12.2-10.82-24.6-16.15-36.94l3.91-1.84q9,21.85,17.93,43.72Z"/><path class="cls-2" d="M1321.72,955.62l29.52-15.71C1348.06,951.71,1333.63,960,1321.72,955.62Z"/><path class="cls-2" d="M1165.52,806,1151.85,774l3.9-1.7,14.31,32Z"/><path class="cls-2" d="M476.43,1251.24l3-21.17,5.61.69q-1.2,10.44-2.41,20.87Z"/><path class="cls-2" d="M1183.66,760.3l12.06,23-4,2.05-11.79-23.14Z"/><path class="cls-2" d="M1209.61,777.08l-6.53,2.24-9.89-21.85,3-1.78,13.44,21.4Z"/><path class="cls-2" d="M1210.92,750.29q4.8,7.63,9.59,15.29l-4.07,2.7q-4.51-7.9-9-15.81Z"/><path class="cls-2" d="M1351.94,943.7l12.84-7,2.37,3.82-12.67,8.15Z"/><path class="cls-2" d="M1224.81,755.67l-3.85-4.21c1.1-.76,1.8-1.42,1.94-1.32,1.39,1.05,2.7,2.21,4,3.34Z"/><path class="cls-2" d="M1370.58,942.27c4-2.85,6.79-5.18,10.74-8l2.84,3.48c-3.85,3.23-6.08,4.15-9.92,7.38C1373.19,943.56,1371.63,943.81,1370.58,942.27Z"/></g><rect class="cls-3" y="1427.73" width="2048" height="620.27"/><g id="BIG_PIAF_FESTIVAL_2022" data-name="BIG PIAF FESTIVAL 2022"><path class="cls-4" d="M597.29,1587.27q3,2.22,5.89,4.38a39.2,39.2,0,0,0,6,3.73,20.22,20.22,0,0,1,6.08,4.51,23.11,23.11,0,0,1,4,6.21,53.4,53.4,0,0,1,5.37,19,44.84,44.84,0,0,1-3.14,19.82c-1.49,3.83-3,7.52-4.65,11a33.82,33.82,0,0,1-7,9.87,59.4,59.4,0,0,1-20,13.6,115.77,115.77,0,0,1-23.21,6.67,61.27,61.27,0,0,1-9.94.79q-6.15,0-12.1-.59t-12.1-.59c-3.57,0-7.08-.18-10.52-.52s-6.92-.57-10.4-.66q-3.4,0-6.67.26l-6.67.53a77.13,77.13,0,0,1-10.86.78,54.11,54.11,0,0,1-7.06-.46,30,30,0,0,1-7.19-1.89,20.59,20.59,0,0,0-.66-2.49,7.81,7.81,0,0,1-.39-2.48q-.13-16.35-.26-32.37t.13-32.37q.27-16.74.72-33.15t.85-33.16q.26-9.81.39-19.61t.13-19.62a39,39,0,0,0-.39-5.49q-.39-2.76-.65-5.5c-.18-3.14.24-5.36,1.24-6.67s3-2,5.95-2H481q9.93.27,19.74.85t19.62,1l9,.26q4.38.13,8.83.13c1.74,0,3.42,0,5-.06s3.25-.11,4.91-.2a96.62,96.62,0,0,1,30.54,4.58A98.07,98.07,0,0,1,605.92,1510a40.64,40.64,0,0,1,13.67,16.28,31.52,31.52,0,0,1,2,20.34q-1.18,5.22-2.49,10.79a54.3,54.3,0,0,1-3.66,10.59,39.21,39.21,0,0,1-6.08,9.28,30,30,0,0,1-9.61,7.13,2.69,2.69,0,0,0-1.18,1C598.25,1586,597.82,1586.57,597.29,1587.27Zm-73.76,57.94,9.42,1.24q4.44.58,8.76.72c1.57,0,3.46,0,5.69-.07a60.85,60.85,0,0,0,6.86-.52,57.77,57.77,0,0,0,6.67-1.24,14.46,14.46,0,0,0,5.11-2.23,20.28,20.28,0,0,0,5.55-6.14,25.4,25.4,0,0,0,3-7.78,23.2,23.2,0,0,0,.2-8.31,20.22,20.22,0,0,0-2.88-7.71,15,15,0,0,0-2.55-2.69,11.53,11.53,0,0,0-3.2-1.89,68.16,68.16,0,0,0-20.93-3.27,81.37,81.37,0,0,0-10.85.72q-5.37.72-10.86,1.89Zm.79-73.9c2.7.27,5.42.48,8.17.66s5.51.48,8.3.91a9.32,9.32,0,0,0,1.57.13h1.57a25.78,25.78,0,0,0,8.57-1.43,53.14,53.14,0,0,0,8.17-3.67,15.09,15.09,0,0,0,5.37-4.64,25.13,25.13,0,0,0,3.13-6.21,10.89,10.89,0,0,0-.26-4.64,52.78,52.78,0,0,0-1.83-6.67,55.18,55.18,0,0,0-2.61-6.41,9.87,9.87,0,0,0-2.62-3.73,5,5,0,0,0-2.35-.92l-4-1a22.24,22.24,0,0,0-4.12-.66c-2-.08-4-.13-5.89-.13h-5.88c-2.53,0-5.06,0-7.59.07s-5.1.06-7.71.06Z"/><path class="cls-4" d="M656.15,1684.31q-1.57-3.27-2.75-5.62t-2.23-4.58q.27-3.52.79-7.19a35,35,0,0,0,.26-7.46,185.27,185.27,0,0,1-.33-21.32q.47-10.59,1.38-21.31a139.83,139.83,0,0,0,.33-16.35q-.33-8.12-.07-16.35.26-15.44-.65-30.6t-2.36-30.47a121.15,121.15,0,0,1-.46-16.35q.33-8.12.33-16.48a17.13,17.13,0,0,1,4.25-1.18,32.9,32.9,0,0,1,4.12-.26,49.31,49.31,0,0,1,6.21.39,48.33,48.33,0,0,0,6.08.39h1.44a23.88,23.88,0,0,1,2.42-.13h2.55c2.27,0,4.56,0,6.87.13s4.6.14,6.86.14h1.9a15.06,15.06,0,0,0,1.9-.14h1.18c2.52,0,4.09.53,4.7,1.57s.79,3.06.53,6A28.12,28.12,0,0,0,702,1505c.57,2.61,1,5.23,1.38,7.84q.64,4.32,1.31,8.64c.43,2.87.74,5.75.91,8.63q.66,11.64,1,23.08t.52,23q0,8.64-.59,17.2t-1.11,17.2c-.18,3.92-.44,7.83-.78,11.7S704.1,1630,704,1634q-.25,8.89-.13,17.59t0,17.59c0,1,0,1.94.07,2.94a13.73,13.73,0,0,1-.2,3q-.66,5.35-2.68,7.25t-7.52,1.9c-2.62.09-5.23.13-7.85.13H656.15Z"/><path class="cls-4" d="M853.89,1614.87h-26a27.13,27.13,0,0,1-2.42-7.85,64.8,64.8,0,0,1-.65-8.37c0-2.88-.09-5.82-.13-8.83a62.73,62.73,0,0,0-.85-9.22c2.27,0,4.42,0,6.47.07s4.08.06,6.08.06h3.34c1.09,0,2.24,0,3.47-.13q6.93-.52,13.79-.78t13.93-.27q6.68,0,13.34.33t13.34,1a29.92,29.92,0,0,1,4.19.66,4.82,4.82,0,0,1,2.42,1.3,5.13,5.13,0,0,1,1.17,2.42,26.84,26.84,0,0,1,.46,4.12q.26,5.37.59,10.53c.22,3.45.41,6.91.59,10.4,0,2-.09,4-.26,5.88s-.31,3.84-.4,5.76c-.08,3.57-.24,7.13-.45,10.66a42,42,0,0,0,.58,10.26,44,44,0,0,1,.66,8.63,17.44,17.44,0,0,1-1.7,7.13,19.21,19.21,0,0,1-4.71,6,39.9,39.9,0,0,1-8.37,5.37q-6.93,3.52-14.78,6.6t-16,5.43a143.49,143.49,0,0,1-16.48,3.72,98.51,98.51,0,0,1-16.15,1.38,126,126,0,0,1-16.15-1.31,100.21,100.21,0,0,1-20.6-5.23,99.16,99.16,0,0,1-21.71-11.25A76.58,76.58,0,0,1,751,1649.78a89.49,89.49,0,0,1-5.69-11.64c-1.61-4-3.25-8-4.9-12a57.17,57.17,0,0,1-4.12-16.41,114.3,114.3,0,0,1-.39-17.39q.45-8.83,1.76-17.73t2.49-17.26a48.49,48.49,0,0,1,4-13.67q2.94-6.33,6.6-12.62,3.54-6,7.46-11.77a82.18,82.18,0,0,1,8.63-10.66,68.65,68.65,0,0,1,10.33-8.82,52.66,52.66,0,0,1,12.56-6.41,64.69,64.69,0,0,1,8.56-2.49q5.18-1.17,10.66-2.09t10.79-1.5a82.19,82.19,0,0,1,9.09-.59,97.17,97.17,0,0,1,18.83,1.83,141,141,0,0,1,18.44,5,31,31,0,0,1,11.58,7.91A83.69,83.69,0,0,1,888,1514.49a126,126,0,0,1,8.24,14.71,120,120,0,0,1,5.37,13q1.95,5.88.19,8.37c-1.17,1.66-3.86,2.66-8,3-3.66.26-7.28.57-10.86.91s-7.19.66-10.85.92a17.45,17.45,0,0,1-2.22.13h-4.58a24.18,24.18,0,0,1-2.49-.13q-6.93-.27-8.24-6.8a19,19,0,0,0-.72-2.81,20.78,20.78,0,0,1-.71-2.82,21.2,21.2,0,0,0-3.6-7.84,19.85,19.85,0,0,0-5.76-5.1,22.91,22.91,0,0,0-7.39-2.75,44.85,44.85,0,0,0-8.5-.78q-9,.52-15,5.1a38.46,38.46,0,0,0-9.87,11.31,64.59,64.59,0,0,0-6.22,14.65q-2.28,7.9-4.12,15.1-1.44,5.49-2.94,11.05a35.53,35.53,0,0,0-1.24,11q.39,5.37,1.24,10.66t1.37,10.79a30.32,30.32,0,0,0,2.16,8.44,33,33,0,0,0,4.19,7.19,48.41,48.41,0,0,0,5.75,6.28q3.21,2.94,6.61,5.56a17,17,0,0,0,5.29,2.55,68.13,68.13,0,0,0,7.33,1.89q3.85.8,7.58,1.18t6,.39a29.49,29.49,0,0,0,5.89-.58,25.87,25.87,0,0,0,5.88-2q15-7.32,9-22.76-.79-2.08-1.44-4.38T853.89,1614.87Z"/><path class="cls-4" d="M1045,1624.41q-.64,7.06-1.5,13.73a122.31,122.31,0,0,0-1,13.34,132.15,132.15,0,0,0,.19,13.8q.46,6.87,1,13.8a10.67,10.67,0,0,1-.59,5.3c-.57,1.09-1.73,1.63-3.47,1.63a15.09,15.09,0,0,1-3-.39,51.9,51.9,0,0,0-11-1.18,66.55,66.55,0,0,0-12.23,1.11q-6,1.11-12.1,2.55a7.12,7.12,0,0,1-1.7.27c-.52,0-1.05,0-1.57-.07s-1-.06-1.57-.06a11.68,11.68,0,0,1-1.17-7.33q.65-3.53,1.17-6.93c.09-.87.13-2.64.13-5.3s0-5.82-.06-9.48-.13-7.63-.26-11.9-.25-8.48-.33-12.62-.18-8-.26-11.64-.13-6.61-.13-9q-.13-16.74-.79-33.15t-1.31-33.16q-.25-6.66-.65-13.4t-.39-13.41c.08-3.75.28-7.49.59-11.24s.67-7.5,1.11-11.25a11.77,11.77,0,0,1,1.5-5c.66-.87,1.9-1.31,3.73-1.31.52,0,1.09,0,1.7.07s1.26.11,2,.19a64.38,64.38,0,0,0,7.06.39h2.36a20.56,20.56,0,0,0,2.35-.13c4.62-.34,9.2-.74,13.73-1.17l13.74-1.31c2-.09,4-.15,5.88-.2s3.88-.06,5.89-.06q13.86,1.17,27.53,2.68a141.57,141.57,0,0,1,27,5.69q19.62,6.27,29.63,20.27t8.95,35.18a120.59,120.59,0,0,1-1.3,13.73q-1,6.81-2.62,13.6a32.07,32.07,0,0,1-6.86,13.87,76.33,76.33,0,0,1-28.25,20.33,61.8,61.8,0,0,1-19.29,4.25q-10.6.79-21.32,2.1Zm-3.79-37.53a11.76,11.76,0,0,0,1.5.19c.57,0,1.2.07,1.9.07,1.74,0,3.62-.07,5.62-.2s3.71-.19,5.1-.19h1a22.77,22.77,0,0,0,2.29.13h2.29c1.22,0,2.4-.05,3.53-.13s2.31-.22,3.53-.4l4-1c2-.47,4.14-1,6.41-1.63s4.38-1.22,6.35-1.83a23.71,23.71,0,0,0,3.86-1.44,21.8,21.8,0,0,0,5.36-5,24.32,24.32,0,0,0,3.46-6.34,21.57,21.57,0,0,0,.2-14.25,60.36,60.36,0,0,0-2.75-6.87c-1-2.22-2.18-4.47-3.4-6.74a17,17,0,0,0-5-6.21,18.82,18.82,0,0,0-7.13-3.33q-4.58-1.05-9-1.64a69,69,0,0,0-9-.59,49.12,49.12,0,0,0-9.41.92,42.15,42.15,0,0,0-9.55,3.14q-.27,9.81-.59,19.68t-.59,19.68c0,.53-.06,1.42-.2,2.68s-.24,2.64-.32,4.12-.11,2.9-.07,4.25A6.59,6.59,0,0,0,1041.17,1586.88Z"/><path class="cls-4" d="M1179.41,1684.31c-1.05-2.18-2-4-2.75-5.62s-1.52-3.1-2.22-4.58q.25-3.52.78-7.19a35.62,35.62,0,0,0,.27-7.46,180.86,180.86,0,0,1-.33-21.32q.45-10.59,1.37-21.31a135.59,135.59,0,0,0,.33-16.35q-.33-8.12-.07-16.35.27-15.44-.65-30.6t-2.36-30.47a121.14,121.14,0,0,1-.45-16.35q.32-8.12.32-16.48a17.25,17.25,0,0,1,4.25-1.18,33.15,33.15,0,0,1,4.12-.26,49.35,49.35,0,0,1,6.22.39,48.09,48.09,0,0,0,6.08.39h1.44a23.72,23.72,0,0,1,2.42-.13h2.55c2.26,0,4.55,0,6.86.13s4.6.14,6.87.14h1.9a15,15,0,0,0,1.89-.14h1.18c2.53,0,4.1.53,4.71,1.57s.78,3.06.52,6a27.76,27.76,0,0,0,.59,7.85c.56,2.61,1,5.23,1.37,7.84.44,2.88.87,5.76,1.31,8.64s.74,5.75.91,8.63q.66,11.64,1.05,23.08t.52,23q0,8.64-.58,17.2t-1.12,17.2c-.17,3.92-.43,7.83-.78,11.7s-.57,7.79-.65,11.71q-.27,8.89-.14,17.59t0,17.59c0,1,0,1.94.07,2.94a13.12,13.12,0,0,1-.2,3c-.43,3.57-1.33,6-2.68,7.25s-3.86,1.9-7.52,1.9c-2.61.09-5.23.13-7.84.13h-29.56Z"/><path class="cls-4" d="M1322.35,1493.89q5.12,0,10.21.07t10.2.06h6.6q3.21,0,6.48-.13a57.38,57.38,0,0,1,6.08.26,8.79,8.79,0,0,1,3.79,1.24,8.47,8.47,0,0,1,2.62,2.95,40.7,40.7,0,0,1,2.41,5.36q4.18,11.25,8.83,22.17t8.83,22.16q3.4,9.3,6.15,18.64t5.88,18.77a50.58,50.58,0,0,0,2.55,6.6q1.5,3.21,2.81,6.48,5.24,13.2,10.27,26.22t10.27,26.09q1.83,5,3.79,9.81t4.19,9.55a26.91,26.91,0,0,1,2.35,7.91,17,17,0,0,1-1.31,8.57c-.52.17-1.09.34-1.7.52a7.25,7.25,0,0,1-2,.26c-5.58-.18-11.14-.41-16.67-.72s-11.1-.59-16.68-.85h-2.55a13.29,13.29,0,0,1-2.55-.26,16.34,16.34,0,0,1-6-2.29c-1.65-1.09-2.7-3-3.13-5.82q-1-5-2.23-9.81c-.78-3.22-1.66-6.45-2.61-9.68q-1.32-4.57-3.27-6.47c-1.31-1.26-3.32-1.9-6-1.9a11.5,11.5,0,0,0-2,.13q-8.37.66-16.61,1.84t-16.61,1.83c-1.22.08-2.44.15-3.66.19s-2.44.07-3.66.07q-3,0-6-.07c-2,0-4-.06-6.15-.06q-2.22,6.27-4.58,12.55t-4.31,12.95a10.15,10.15,0,0,1-2.42,4.32,6.81,6.81,0,0,1-4.51,1.57c-1.66.17-3.32.37-5,.58s-3.32.37-5,.46q-13.35,1-26.68,1.57a14.32,14.32,0,0,1-3.34-.39c-1.09-.26-2.15-.57-3.2-.92q-4.85-1.69-3.27-6.54,1.05-3.39,2-6.86a58.41,58.41,0,0,1,2.22-6.74q4.46-12,9-23.93t9.15-23.93q4.18-10.73,8.31-21.45t8.17-21.58q4.57-12.3,8.83-24.39t8.83-24.39q3-8.25,6.28-16.29T1322.35,1493.89Zm9.42,118.23,14.65.78q7.32.4,15.3.79-4.18-13.74-8.17-26.62t-8-26.35a195.08,195.08,0,0,0-9.74,27.66A110.59,110.59,0,0,0,1331.77,1612.12Z"/><path class="cls-4" d="M1502.31,1527.24q.27,9.94.66,19.62t.78,19.88h36q12.94,0,26,.26a25.76,25.76,0,0,1,3.14.26,20.07,20.07,0,0,1,3.86.92,12.64,12.64,0,0,1,3.34,1.7,3.59,3.59,0,0,1,1.56,2.74q.13,3.41.59,6.8t.85,6.8c.26,2.27.42,4.56.46,6.87a30,30,0,0,1-.72,7,11,11,0,0,1-2.29,5,6.67,6.67,0,0,1-4.51,1.9c-3.84.26-7.61.44-11.31.52s-7.48.22-11.32.39c-3.48.18-6.93.33-10.33.46s-6.84.2-10.33.2h-2q-5.49,0-10.92-.39t-11.31-.79c-.35,3.58-.64,7.09-.85,10.53s-.55,6.86-1,10.27q-1.05,9.8-1.9,19.61a66.22,66.22,0,0,0,1.24,19.62,4.1,4.1,0,0,1,.2,1.64c0,.56-.07,1.15-.07,1.76,0,3-.06,5.21-.19,6.74a5.65,5.65,0,0,1-1.31,3.46,6,6,0,0,1-3.53,1.57l-6.74,1.05a39.48,39.48,0,0,1-4.44.52c-1.49.09-3,.13-4.45.13a114.39,114.39,0,0,1-14-.85,119.4,119.4,0,0,0-14.38-.85h-1.31c-.09-2.35-.15-4.55-.2-6.6s-.06-4.08-.06-6.08q-.27-11.39-.46-22.63t-.46-22.76q-.12-4.18-.32-8.37a77.9,77.9,0,0,1,.06-8.37q.66-16.33,1.57-32.5t1.18-32.5a168.39,168.39,0,0,0-.85-19.22q-1-9.55-1.64-19.23c-.08-1.83-.11-3.66-.06-5.49s0-3.66-.07-5.49q-.26-3.4,1.44-4.58a8.93,8.93,0,0,1,4.71-1.31q17.38-.26,34.46-.59t34.33-.32h6.93q10.6.12,20.93,1t20.92,1.57a6.47,6.47,0,0,0,1.31.13h1.31q1,0,2.22-.06c.79,0,1.62-.07,2.49-.07a18.3,18.3,0,0,1,3,8.76,58.18,58.18,0,0,1-.2,9c-.31,3-.57,6.13-.78,9.22a23.88,23.88,0,0,0,1.24,9.35l-17.53-.52q-8.5-.27-17-.26h-3.14c-1,0-2.14,0-3.27.13q-10.07.25-20.2,1T1502.31,1527.24Z"/><path class="cls-4" d="M506.52,1727.61q.23,8.36.55,16.48c.22,5.43.44,11,.66,16.71H538q10.88,0,21.87.22a20.4,20.4,0,0,1,2.63.22,15.91,15.91,0,0,1,3.24.77,10.58,10.58,0,0,1,2.81,1.42,3.09,3.09,0,0,1,1.32,2.31c.07,1.91.23,3.81.49,5.72s.5,3.81.72,5.71.34,3.83.38,5.77a24.68,24.68,0,0,1-.6,5.88,9.27,9.27,0,0,1-1.93,4.23,5.58,5.58,0,0,1-3.79,1.6c-3.22.22-6.39.36-9.51.44s-6.28.18-9.5.33c-2.93.14-5.83.27-8.68.38s-5.76.17-8.69.17h-1.65q-4.61,0-9.17-.33l-9.51-.66q-.43,4.5-.71,8.84c-.19,2.9-.46,5.77-.83,8.63q-.87,8.25-1.59,16.49a55.5,55.5,0,0,0,1,16.48,3.55,3.55,0,0,1,.17,1.38c0,.47-.06,1-.06,1.48,0,2.49-.05,4.38-.16,5.66a4.72,4.72,0,0,1-1.1,2.91,5.08,5.08,0,0,1-3,1.32q-2,.33-5.66.88a31.84,31.84,0,0,1-3.73.44c-1.25.07-2.5.11-3.74.11a95.69,95.69,0,0,1-11.76-.72,100.62,100.62,0,0,0-12.09-.71h-1.1c-.07-2-.13-3.83-.16-5.55s-.06-3.42-.06-5.11q-.22-9.55-.38-19t-.39-19.13q-.11-3.51-.27-7a63.41,63.41,0,0,1,.05-7q.56-13.74,1.32-27.31t1-27.32a142.34,142.34,0,0,0-.71-16.15q-.83-8-1.38-16.16c-.07-1.53-.09-3.07-.05-4.61s0-3.08-.06-4.62c-.15-1.9.26-3.19,1.21-3.84a7.42,7.42,0,0,1,4-1.1q14.61-.23,29-.5t28.85-.27h5.82q8.9.1,17.59.88t17.58,1.32a5.77,5.77,0,0,0,1.1.1h1.1c.58,0,1.21,0,1.87,0s1.35,0,2.08,0a15.29,15.29,0,0,1,2.53,7.36,48.16,48.16,0,0,1-.16,7.58q-.39,3.86-.66,7.75a20,20,0,0,0,1,7.86l-14.73-.44q-7.14-.23-14.28-.22h-2.64c-.88,0-1.8,0-2.75.11q-8.46.22-17,.82T506.52,1727.61Z"/><path class="cls-4" d="M603.82,1857.62a20.17,20.17,0,0,1-1.6-6,34.28,34.28,0,0,1-.05-5.82c.14-1.94.35-3.85.6-5.72a40.26,40.26,0,0,0,.39-5.55q.21-11.2.66-22.2t1-22.2q.21-3.73.6-7.42a52.73,52.73,0,0,0,.27-7.31q-.43-10.11-1.09-20.11t-1-20q-.23-9.35-.22-18.41t.11-18.41c0-2.63,1.5-4,4.5-4.17q11.65-.22,23-.66t22.91-.44h1.32q15.06.11,30,.49t30.28.83a42.92,42.92,0,0,1,1.76,8.29,79.14,79.14,0,0,1,.44,8.3c0,2.79-.08,5.59-.22,8.41s-.22,5.66-.22,8.52h-70v30.66q14.07.22,28.08.33t28.74.33a44.3,44.3,0,0,0,0,7.64c.22,2.52.45,5,.71,7.47s.42,5,.5,7.47a34.18,34.18,0,0,1-.66,7.64H645.8v34.18a12.48,12.48,0,0,1,1.59.5,7.17,7.17,0,0,0,1.38.38q9.66.43,19.34.71t19.34.94c1.83.15,3.61.27,5.33.38s3.46.17,5.22.17c1.47,0,3-.07,4.51-.22a33.74,33.74,0,0,0,4.62-.77c.36-.07.69-.13,1-.17s.63,0,1,0c2.71,0,4.44,2,5.17,6a74.09,74.09,0,0,1,1.1,13.8,47.21,47.21,0,0,1-2.53,14.12H678c-2.12,0-4.25,0-6.37-.11q-11.65-.1-23.14-.33l-23.13-.44c-.74,0-1.45,0-2.15,0s-1.44-.06-2.25-.06a20.19,20.19,0,0,0-2,.11,16.22,16.22,0,0,0-2,.33,13.23,13.23,0,0,1-1.87.33,17.94,17.94,0,0,1-1.87.11,17.65,17.65,0,0,1-4.67-.61Z"/><path class="cls-4" d="M855,1748.16c-2.85.22-5.73.46-8.62.71s-5.81.53-8.74.83a2,2,0,0,1-.77.11,4.88,4.88,0,0,1-3.85-1.49,11,11,0,0,1-2.08-3.57,23.47,23.47,0,0,0-8.47-12.2,23.88,23.88,0,0,0-14.28-4.17,21.88,21.88,0,0,0-5.28.6,10.33,10.33,0,0,0-7,5.22,9.16,9.16,0,0,0-1.43,4.18,17.32,17.32,0,0,0,.88,6.1,22,22,0,0,0,7.2,10.38,19.36,19.36,0,0,0,5.55,3.19q6.48,2.42,13,4.56t12.86,4.67q4.29,1.76,8.46,3.57a84.63,84.63,0,0,1,8.14,4.07A61.52,61.52,0,0,1,858,1780a39.21,39.21,0,0,1,6.54,6.53,51.13,51.13,0,0,1,10.22,20.17q2.52,10.6-1.32,22.59c-1,3-2,6-2.86,9a21.82,21.82,0,0,1-4.73,8.3,40.8,40.8,0,0,1-9.78,8.13,45.57,45.57,0,0,1-11.54,4.84q-6.48,1.86-13,3.08L818.38,1865a4.06,4.06,0,0,1-1.32.22h-1.32c-1,0-1.91,0-2.86-.11s-1.87-.18-2.75-.33l-9.94-1.31c-3.34-.44-6.63-1-9.89-1.65a78,78,0,0,1-9.62-2.59,53.63,53.63,0,0,1-9.23-4.12q-2.87-1.65-5.83-3.46a15.47,15.47,0,0,1-4.72-4.34,136.18,136.18,0,0,1-9.4-15.33,74.48,74.48,0,0,1-6.32-16.76c-.59-2.64-.49-4.74.28-6.32s2.43-2.69,5-3.35a49.69,49.69,0,0,1,7.31-1.43,62.15,62.15,0,0,1,7.3-.44,73.27,73.27,0,0,1,9.07.55c3,.37,6,.84,9.07,1.43a3.72,3.72,0,0,1,2.69,1.7,4.74,4.74,0,0,1,.6,3.13,14.4,14.4,0,0,0,2,8.52,23.57,23.57,0,0,0,6,6.76,31.14,31.14,0,0,0,8.19,4.51,24.39,24.39,0,0,0,8.4,1.64,30.07,30.07,0,0,0,10.77-1.92,14,14,0,0,0,7.7-7.42,10.52,10.52,0,0,0-1.43-12.31,27.42,27.42,0,0,0-7.8-6.65,73,73,0,0,0-9.24-4.34q-8-3.18-16-6.26t-15.94-6.82a67.27,67.27,0,0,1-12-7.19,44.66,44.66,0,0,1-9.84-10.17,53.24,53.24,0,0,1-6.37-12.53,43.42,43.42,0,0,1-2.48-13.35,42.21,42.21,0,0,1,1.87-13.41,41.69,41.69,0,0,1,6.54-12.69,25.4,25.4,0,0,1,5.72-5.5c2.12-1.46,4.35-2.93,6.7-4.39a50.3,50.3,0,0,1,8.57-4.57,90.58,90.58,0,0,1,8.91-3.13q4.5-1.32,9.17-2.2l9.29-1.75q3.51-.55,7-.88t7-.33a76.89,76.89,0,0,1,15.6,1.59,54.8,54.8,0,0,1,14.4,5.11A43.09,43.09,0,0,1,861,1710a38.48,38.48,0,0,1,7.91,13.68,71,71,0,0,1,2.47,9.18c.63,3.11,1.19,6.21,1.71,9.28.36,2.13.09,3.7-.83,4.73s-2.43,1.61-4.56,1.76c-.8.07-1.63.13-2.47.16s-1.67.06-2.47.06c-1.25,0-2.53,0-3.85-.06s-2.6,0-3.85,0Z"/><path class="cls-4" d="M941,1731.67q-11.1,0-21.65-.16t-21.76-.17a23.17,23.17,0,0,0-.44-2.41c-.22-1-.43-2-.61-3.08s-.37-2.2-.55-3.3-.31-2-.38-2.86c-.3-3.22-.53-6.39-.72-9.5s-.38-6.28-.6-9.51q-.22-2.52.6-3.3c.55-.51,1.78-.77,3.69-.77h.22l14.67.22q7.3.12,14.67.11h5c1.65,0,3.31,0,5-.11h7.25q5.71,0,14.24.06t17.86,0q9.33,0,18.46.06t16,0h9.57a38.37,38.37,0,0,1,4.56.28q2.25.27,4.56.6c3.22.52,4.72,2.49,4.5,5.94-.14,2.56-.16,5.13-.05,7.69a48.21,48.21,0,0,1-.28,7.69c-.14,1.84-.22,4-.22,6.43a28.51,28.51,0,0,1-.87,7.09q-6.93,0-14.29-.49t-14.84-.5c-2.93,0-5.81.1-8.63.28a71.9,71.9,0,0,0-8.4,1q-1.87,31.65-2,63.2t.22,64.07c-1,.14-2,.29-3,.44a19.67,19.67,0,0,1-2.86.22h-.44q-6.91-.22-13.68-.61t-13.68-.71H950a25.63,25.63,0,0,1-3.19-.33,3.77,3.77,0,0,1-1.87-.82,3.42,3.42,0,0,1-.93-1.82,19.9,19.9,0,0,1-.38-3.19q-.23-9.78-.22-19.45v-19.45q-.12-11.33,0-22.59t-.11-22.69q-.12-6.6-.39-13t-.71-13c-.08-1.17-.15-2.2-.22-3.07s-.17-1.74-.28-2.59-.22-1.72-.33-2.63S941.09,1733,941,1731.67Z"/><path class="cls-4" d="M1068.36,1859.6q-1.32-2.74-2.31-4.73c-.66-1.32-1.29-2.6-1.87-3.84.15-2,.36-4,.66-6a30.34,30.34,0,0,0,.22-6.26,155.56,155.56,0,0,1-.28-17.92q.39-8.9,1.16-17.91a117,117,0,0,0,.27-13.74q-.27-6.81,0-13.74.21-13-.55-25.71t-2-25.61a102.06,102.06,0,0,1-.39-13.74q.29-6.81.28-13.85a13.87,13.87,0,0,1,3.57-1,26.46,26.46,0,0,1,3.46-.22,41.1,41.1,0,0,1,5.22.33,40.29,40.29,0,0,0,5.11.32h1.21a19.36,19.36,0,0,1,2-.1h2.14c1.9,0,3.83,0,5.77.1s3.86.11,5.77.11h1.59a11.84,11.84,0,0,0,1.6-.11h1c2.12,0,3.44.44,4,1.32s.66,2.57.44,5.06a23.27,23.27,0,0,0,.5,6.59c.47,2.2.86,4.4,1.15,6.6.37,2.42.73,4.83,1.1,7.25s.62,4.84.77,7.25q.54,9.8.88,19.4t.44,19.29q0,7.26-.5,14.45t-.93,14.45q-.22,5-.66,9.84c-.29,3.26-.48,6.54-.55,9.84q-.22,7.47-.11,14.78t0,14.78c0,.81,0,1.63,0,2.47a10.75,10.75,0,0,1-.16,2.48q-.55,4.5-2.25,6.1t-6.32,1.59q-3.3.1-6.6.11h-24.83Z"/><path class="cls-4" d="M1298.19,1698.15q-4.5,12.75-8.57,24.62t-8.24,23.63q-2.76,7.69-5.55,15.28t-5.55,15.16q-2.21,6.27-4.13,12.37t-4,12.36q-2.52,7.59-5.05,15t-4.95,15c-1.1,3.37-2.12,6.75-3.08,10.11s-1.9,6.78-2.85,10.23a13.4,13.4,0,0,1-4.34,6.92,12,12,0,0,1-7.75,2.42q-6.7-.23-13.3-.5t-13.3-.49a59.57,59.57,0,0,1-6.26-.44,8.64,8.64,0,0,1-3.79-1.37,7.49,7.49,0,0,1-2.42-3.08,53.09,53.09,0,0,1-2.14-5.77q-4.29-13.08-8.19-26.16t-8.08-26.27q-6.6-21-13.68-41.54t-14.57-41.21c-.8-2.35-1.72-4.65-2.74-6.93s-2.13-4.72-3.3-7.36a22.9,22.9,0,0,0,3.57-1.37,9.37,9.37,0,0,1,3.46-.94q5.61-.43,11.16-.6t11.15-.17c1.69,0,3.36.08,5,.22s3.32.22,5,.22q6.7-.21,8.69,5.83c.95,2.64,1.81,5.29,2.58,8s1.59,5.36,2.47,8.07q1.88,5.61,3.85,11t3.63,11q3.73,13.08,7.25,26.11t7.14,26.1q.89,3.08,1.87,6.1a44.57,44.57,0,0,0,2.53,6.1q1-3.86,1.92-7.75t2.15-7.75q3.84-13.08,7.8-26t7.69-26.1q2.21-7.26,3.85-14.62t3.52-14.73a2.17,2.17,0,0,0,.11-.66,2.16,2.16,0,0,1,.1-.66,50.13,50.13,0,0,0,1.65-5.93,13.37,13.37,0,0,1,2.31-5.28,4,4,0,0,1,1.7-1.48,5,5,0,0,1,1.93-.38,11.33,11.33,0,0,1,3.68.66,11.58,11.58,0,0,0,3.79.65h.22c1.25,0,2.46,0,3.63,0s2.38,0,3.63,0q5.26,0,10.44.16t10.44.38a8.42,8.42,0,0,1,2.85.77A29.06,29.06,0,0,0,1298.19,1698.15Z"/><path class="cls-4" d="M1351.42,1699.58q4.27,0,8.57.06c2.86,0,5.71,0,8.57,0h5.55c1.79,0,3.61,0,5.44-.11a48.84,48.84,0,0,1,5.11.22,7.38,7.38,0,0,1,3.19,1,7,7,0,0,1,2.2,2.47,35.07,35.07,0,0,1,2,4.5q3.51,9.47,7.42,18.63t7.42,18.63q2.85,7.8,5.16,15.66t5,15.77a41.33,41.33,0,0,0,2.14,5.55q1.26,2.7,2.36,5.44,4.4,11.1,8.63,22t8.63,21.92c1,2.79,2.09,5.54,3.18,8.25s2.27,5.38,3.52,8a22.4,22.4,0,0,1,2,6.65,14.3,14.3,0,0,1-1.1,7.2l-1.43.44a6.21,6.21,0,0,1-1.65.22q-7-.23-14-.61t-14-.71h-2.15a11.43,11.43,0,0,1-2.14-.22,13.55,13.55,0,0,1-5-1.93q-2.1-1.37-2.64-4.89-.88-4.17-1.87-8.24t-2.2-8.13a12.29,12.29,0,0,0-2.74-5.44,7.06,7.06,0,0,0-5.06-1.6,9.49,9.49,0,0,0-1.65.11q-7,.56-14,1.54c-4.61.66-9.27,1.18-14,1.54-1,.08-2.06.13-3.08.17s-2,.05-3.08.05c-1.69,0-3.37,0-5-.05s-3.41-.06-5.17-.06q-1.87,5.28-3.85,10.55T1338,1855.2a8.49,8.49,0,0,1-2,3.63,5.67,5.67,0,0,1-3.79,1.32c-1.39.14-2.78.31-4.17.49s-2.79.31-4.18.39q-11.2.87-22.42,1.32a11.91,11.91,0,0,1-2.8-.33c-.92-.22-1.82-.48-2.7-.77q-4.07-1.44-2.74-5.5c.58-1.9,1.13-3.83,1.65-5.77a48.67,48.67,0,0,1,1.86-5.66q3.73-10.11,7.59-20.11t7.69-20.11q3.51-9,7-18t6.87-18.13q3.84-10.34,7.42-20.5t7.41-20.49q2.53-6.93,5.28-13.69T1351.42,1699.58Zm7.91,99.35,12.31.66,12.86.66q-3.52-11.54-6.87-22.36t-6.76-22.15a161.94,161.94,0,0,0-8.19,23.25A92.69,92.69,0,0,0,1359.33,1798.93Z"/><path class="cls-4" d="M1521,1826.19h41c1.68,0,3.33,0,4.94-.06s3.26-.05,5-.05c1,0,2.07,0,3.13.05s2.14.1,3.24.17a16.93,16.93,0,0,1,3.91.55,4.12,4.12,0,0,1,2.19,1.37,4.58,4.58,0,0,1,.83,2.48,20.1,20.1,0,0,1-.22,4q-.88,6.27-1.54,12.36t-1.43,11.82q-8.58-.22-16.6-.33t-16-.33c-3.67-.15-7.27-.31-10.83-.49s-7.12-.28-10.71-.28h-3.08q-9.67.22-19.34.83t-19.34,1.26a10.76,10.76,0,0,1-1.43.11h-1.21c-2.79,0-4.64-.61-5.55-1.81s-1.45-3.58-1.6-7.09q-.54-12-1-23.69t-1-23.57q-.45-7.47-1.1-14.78t-1.1-14.78a40.36,40.36,0,0,1,.05-6.32q.27-3.13.5-6.32c.07-.81.12-1.61.16-2.42s.06-1.61.06-2.42q-.23-3.18-.55-6.32a44.31,44.31,0,0,1-.22-6.32q.11-10.32.38-20.44t.39-20.44a18.38,18.38,0,0,1,.93-5.44,6.67,6.67,0,0,1,3.13-3.68h26.6a2,2,0,0,0,1-.28,1.53,1.53,0,0,1,1.05-.16q3.4.33,5.55.66a7.61,7.61,0,0,1,3.4,1.26,5.17,5.17,0,0,1,1.82,2.91,29.37,29.37,0,0,1,.77,5.61q.33,7.14.22,14.23t-.11,14.34c0,1.69.07,3.41.22,5.17s.22,3.51.22,5.27q-.12,6.6-.33,13t-.11,12.91q.21,7.8.44,15.55t.77,15.55q.43,6.5,1.15,13T1521,1826.19Z"/><path class="cls-4" d="M883.38,1911.2q-3,0-6,0c-2,0-3.93,0-5.89,0q-3.82,0-7.57-.22a14.65,14.65,0,0,1-3.35-.55,3.67,3.67,0,0,1-1.94-1.32,5,5,0,0,1-.85-2.35,15.94,15.94,0,0,1,0-3.57,41.72,41.72,0,0,1,4.81-16.1A37.57,37.57,0,0,1,874,1874.65a17.67,17.67,0,0,1,7.1-3.16q3.78-.73,7.61-1.32a37.74,37.74,0,0,1,3.9-.55c1.32-.12,2.62-.19,3.89-.19a34.74,34.74,0,0,1,5.33.41,23.46,23.46,0,0,1,5,1.36c1.86.73,3.76,1.4,5.7,2s3.85,1.28,5.73,2.06a38.39,38.39,0,0,1,5.45,2.8,21,21,0,0,1,4.74,4,59.09,59.09,0,0,1,3.9,5.11,29.08,29.08,0,0,1,2.9,5.48,24.79,24.79,0,0,1,1.55,6,22.3,22.3,0,0,1-.19,6.54,48.84,48.84,0,0,1-3.67,12.61,108.26,108.26,0,0,1-6.11,11.66,57.7,57.7,0,0,1-6.1,8.31q-3.39,3.82-7.21,7.42a62.33,62.33,0,0,0-6.39,7q-3,3.75-6.4,7.79c.93.1,1.71.2,2.35.3s1.23.17,1.77.22h16.39c.84,0,1.68,0,2.54,0l2.54,0a36.9,36.9,0,0,1,4.74.29,27.59,27.59,0,0,1,4.67,1,3.59,3.59,0,0,1,2.35,3.75,52.61,52.61,0,0,0,0,5.33c.07,1.79.06,3.59,0,5.41,0,1.12-.14,2.28-.26,3.45s-.26,2.45-.4,3.83h-6.62c-2.89,0-5.76,0-8.6,0s-5.72-.11-8.61-.26q-6.31-.15-12.54-.51t-12.46-.37a67,67,0,0,0-8,.48c-2.67.32-5.33.52-8,.62a15.38,15.38,0,0,1-3.23-.33c-1-.22-2.09-.5-3.16-.84a9.07,9.07,0,0,1-3.94-2.36c-1-1-1.24-2.55-.84-4.56q-.37-4.18-.45-6.5a10.69,10.69,0,0,1,.56-4,10.34,10.34,0,0,1,2.06-3.31q1.42-1.62,4.08-4.27,4.26-4.26,8.23-8.75t8-8.89q3.6-4,7.13-7.91t7.06-7.9a38.72,38.72,0,0,0,5.11-7,32.43,32.43,0,0,0,3.2-8.12,13.51,13.51,0,0,0-.18-7.72,18.43,18.43,0,0,0-4-6.55,6.12,6.12,0,0,0-4.41-2.13,7,7,0,0,0-4.71,2.06q-2.79,2.43-4.38,4.12a16.73,16.73,0,0,0-2.53,3.42,16.33,16.33,0,0,0-1.51,3.89Q884.12,1907.9,883.38,1911.2Z"/><path class="cls-4" d="M1026.41,1927a69.91,69.91,0,0,1-2.91,24.49,64.28,64.28,0,0,1-11.72,21.54,43.42,43.42,0,0,1-5.23,5.37q-2.87,2.5-5.66,5a8.85,8.85,0,0,1-1.91,1.44,6.28,6.28,0,0,1-2.21.77q-2.79.59-5.58.88a52.46,52.46,0,0,1-5.59.29,37.2,37.2,0,0,1-9.82-1.28,27.82,27.82,0,0,1-9.23-4.6q-2.64-2-5.15-4.12t-5-4.33a21.45,21.45,0,0,1-5.55-7.17,34.14,34.14,0,0,1-2.68-8.79q-1.26-7.8-1.95-15.48a111.76,111.76,0,0,1-.33-15.55c.05-.93.06-1.88,0-2.83a9.33,9.33,0,0,1,.34-2.76,52.36,52.36,0,0,0,1.72-11.14q.25-5.62.85-11.29a23.54,23.54,0,0,1,3.49-10.4,42.7,42.7,0,0,1,7.1-8.5,10.81,10.81,0,0,1,1.73-1.29,14,14,0,0,0,1.72-1.21,33.08,33.08,0,0,1,8.06-4.71,24.81,24.81,0,0,1,9.15-1.61,53.44,53.44,0,0,0,6-.33q2.94-.33,5.88-.48a28.55,28.55,0,0,1,11.73,2.28,22.06,22.06,0,0,1,9,7.87,79.09,79.09,0,0,1,9.92,19.37,75.51,75.51,0,0,1,4.05,21.51,20.81,20.81,0,0,1,0,3.53C1026.53,1924.66,1026.46,1925.83,1026.41,1927Zm-36.92-36.1a28.19,28.19,0,0,0-4.41-.45,7,7,0,0,0-2.39.37A4.29,4.29,0,0,0,981,1892a9.86,9.86,0,0,0-1.39,2.28c-.44,1-1,2.15-1.55,3.57a45.94,45.94,0,0,0-2.9,10.66,56,56,0,0,0-.48,11q.15,3.75.33,7.5t.63,7.51q.58,4.85,1.28,9.59t1.66,9.45a4.21,4.21,0,0,0,1,1.95,8.9,8.9,0,0,0,1.91,1.62,10.21,10.21,0,0,0,2.39,1.1,8.2,8.2,0,0,0,2.46.4,4.55,4.55,0,0,0,2.28-.58,24.39,24.39,0,0,0,3.57-3,7.74,7.74,0,0,0,2.09-4.19q1-5.52,2.06-10.92a43.37,43.37,0,0,0,.66-11.07c-.09-1.47-.22-3-.36-4.45a44.29,44.29,0,0,1-.22-4.44,47.65,47.65,0,0,0-1.25-11.48q-1.33-5.58-2.65-11.17a12.8,12.8,0,0,0-1.36-3.42C990.54,1892.9,990,1891.89,989.49,1890.91Z"/><path class="cls-4" d="M1052.29,1911.2q-3,0-6,0l-5.89,0q-3.83,0-7.57-.22a14.65,14.65,0,0,1-3.35-.55,3.67,3.67,0,0,1-1.94-1.32,5,5,0,0,1-.85-2.35,15.94,15.94,0,0,1,0-3.57,41.72,41.72,0,0,1,4.81-16.1,37.57,37.57,0,0,1,11.29-12.51,17.67,17.67,0,0,1,7.1-3.16q3.78-.73,7.61-1.32a37.93,37.93,0,0,1,3.89-.55c1.33-.12,2.63-.19,3.9-.19a34.65,34.65,0,0,1,5.33.41,23.46,23.46,0,0,1,5,1.36c1.86.73,3.76,1.4,5.7,2s3.85,1.28,5.74,2.06a38.82,38.82,0,0,1,5.44,2.8,21,21,0,0,1,4.74,4,59.09,59.09,0,0,1,3.9,5.11,29.08,29.08,0,0,1,2.9,5.48,24.79,24.79,0,0,1,1.55,6,22.3,22.3,0,0,1-.19,6.54,48.86,48.86,0,0,1-3.68,12.61,106.4,106.4,0,0,1-6.1,11.66,57.7,57.7,0,0,1-6.1,8.31q-3.39,3.82-7.21,7.42a62.42,62.42,0,0,0-6.4,7q-2.94,3.75-6.39,7.79c.93.1,1.71.2,2.35.3s1.22.17,1.76.22h16.4c.84,0,1.68,0,2.54,0l2.54,0a36.79,36.79,0,0,1,4.74.29,27.59,27.59,0,0,1,4.67,1,3.59,3.59,0,0,1,2.35,3.75,52.61,52.61,0,0,0,0,5.33c.07,1.79.06,3.59,0,5.41,0,1.12-.14,2.28-.26,3.45s-.26,2.45-.4,3.83h-6.62c-2.89,0-5.76,0-8.6,0s-5.72-.11-8.61-.26c-4.22-.1-8.39-.27-12.54-.51s-8.29-.37-12.46-.37a67,67,0,0,0-8,.48c-2.67.32-5.33.52-8,.62a15.45,15.45,0,0,1-3.23-.33c-1-.22-2.09-.5-3.16-.84a9.07,9.07,0,0,1-3.94-2.36c-1-1-1.24-2.55-.84-4.56q-.37-4.18-.45-6.5a10.49,10.49,0,0,1,.56-4,10.34,10.34,0,0,1,2.06-3.31q1.43-1.62,4.08-4.27,4.26-4.26,8.23-8.75t8-8.89q3.6-4,7.13-7.91t7.06-7.9a38.72,38.72,0,0,0,5.11-7,32.43,32.43,0,0,0,3.2-8.12,13.6,13.6,0,0,0-.18-7.72,18.43,18.43,0,0,0-4-6.55,6.12,6.12,0,0,0-4.41-2.13,7,7,0,0,0-4.71,2.06q-2.79,2.43-4.38,4.12a16.73,16.73,0,0,0-2.53,3.42,16.33,16.33,0,0,0-1.51,3.89Q1053,1907.9,1052.29,1911.2Z"/><path class="cls-4" d="M1135.53,1911.2c-2,0-4,0-6,0l-5.88,0q-3.83,0-7.58-.22a14.65,14.65,0,0,1-3.35-.55,3.67,3.67,0,0,1-1.94-1.32,5.06,5.06,0,0,1-.85-2.35,15.94,15.94,0,0,1,0-3.57,41.89,41.89,0,0,1,4.81-16.1,37.68,37.68,0,0,1,11.29-12.51,17.67,17.67,0,0,1,7.1-3.16q3.78-.73,7.61-1.32a37.74,37.74,0,0,1,3.9-.55c1.32-.12,2.62-.19,3.89-.19a34.65,34.65,0,0,1,5.33.41,23.46,23.46,0,0,1,5,1.36c1.86.73,3.76,1.4,5.7,2s3.85,1.28,5.74,2.06a38.82,38.82,0,0,1,5.44,2.8,21,21,0,0,1,4.74,4,59.09,59.09,0,0,1,3.9,5.11,29.08,29.08,0,0,1,2.9,5.48,24.79,24.79,0,0,1,1.55,6,22,22,0,0,1-.19,6.54,48.84,48.84,0,0,1-3.67,12.61,108.26,108.26,0,0,1-6.11,11.66,57.7,57.7,0,0,1-6.1,8.31q-3.39,3.82-7.21,7.42a62.33,62.33,0,0,0-6.39,7q-3,3.75-6.4,7.79c.93.1,1.71.2,2.35.3s1.23.17,1.77.22h16.39c.84,0,1.68,0,2.54,0l2.54,0a36.79,36.79,0,0,1,4.74.29,27.38,27.38,0,0,1,4.67,1,3.59,3.59,0,0,1,2.35,3.75,52.61,52.61,0,0,0,0,5.33c.07,1.79.06,3.59,0,5.41-.05,1.12-.14,2.28-.26,3.45s-.25,2.45-.4,3.83h-6.62c-2.89,0-5.76,0-8.6,0s-5.71-.11-8.61-.26q-6.32-.15-12.53-.51t-12.47-.37a67,67,0,0,0-8,.48c-2.67.32-5.33.52-8,.62a15.45,15.45,0,0,1-3.23-.33c-1-.22-2.09-.5-3.16-.84a9.07,9.07,0,0,1-3.94-2.36c-1-1-1.24-2.55-.84-4.56q-.37-4.18-.44-6.5a10.5,10.5,0,0,1,.55-4,10.34,10.34,0,0,1,2.06-3.31q1.42-1.62,4.08-4.27,4.26-4.26,8.23-8.75t8-8.89q3.6-4,7.13-7.91t7.06-7.9a38.72,38.72,0,0,0,5.11-7,32.43,32.43,0,0,0,3.2-8.12,13.43,13.43,0,0,0-.18-7.72,18.43,18.43,0,0,0-4-6.55,6.09,6.09,0,0,0-4.41-2.13,7,7,0,0,0-4.71,2.06,59.62,59.62,0,0,0-4.37,4.12,15.75,15.75,0,0,0-4,7.31Q1136.27,1907.9,1135.53,1911.2Z"/></g></svg>