<svg id="Calque_1" data-name="Calque 1" xmlns="http://www.w3.org/2000/svg" viewBox="0 0 892.4 765.13"><defs><style>.cls-1{fill:#333;}.cls-2,.cls-4{fill:#fff;}.cls-3{fill:#ffbf33;}.cls-4{stroke:#000;stroke-linecap:round;stroke-linejoin:round;stroke-width:7.35px;}.cls-5{fill:#2994d2;}</style></defs><g id="COULEUR"><path class="cls-1" d="M603.25,473a3.53,3.53,0,0,1-1.3-.25,3.67,3.67,0,0,1-2.13-4.74c5.53-14.54,6.24-27.06,2.13-37.21-2.77-6.85-7.59-12.28-11.84-17.08-5.89-6.64-11.46-12.92-9.3-20.95,1.14-4.26,3.75-6.36,5.85-8.05,1.74-1.4,3-2.41,3.61-4.6,1.05-3.74-.12-9.11-3-14.06-5.95,16.05-21.4,31.2-35.22,28.09-8.66-1.94-15.92-10.8-16.51-20.15-.42-6.51,2.63-13.35,8.34-18.78,7.11-6.75,17.15-10.3,26.2-9.25a28.94,28.94,0,0,1,12.64,4.7c.21-14.74-7.05-30.22-15.87-40.68a69,69,0,0,0-13.64-12.12c-5.77-4.17-10.77-7.77-12.36-15.78s1-18.34,6.57-25.53c.33-.44.68-.86,1-1.27a69.94,69.94,0,0,1-1.36-17.16c.92-17.95,11.49-46.47,31.25-50.66,18.46-3.9,32.44,15.27,48.63,37.47,18.39,25.21,39.23,53.77,71,55.91,19.18,1.29,46-6.84,59.68-27.74,8.14-12.48,9.31-26.25,8.86-35.61a3.67,3.67,0,0,1,7.34-.36c.72,15-2.75,28.81-10,40-15.25,23.38-45.07,32.49-66.32,31.06-35.22-2.37-58.09-33.73-76.47-58.92-14.69-20.14-27.38-37.53-41.17-34.61-15.1,3.2-24.63,28-25.44,43.85A61.17,61.17,0,0,0,555,250a15.31,15.31,0,0,1,6.06-1.73c8.33-.52,15.79,6.45,20,13.14,3.83,6.12,6.74,14.77,3.4,20.69-2.32,4.1-7.81,6.64-13.07,6-8.82-1-16.15-11.07-20.39-23.54-2.68,5.08-3.85,11.2-2.89,16,1,5.18,4.2,7.47,9.46,11.26a76.32,76.32,0,0,1,15,13.34c10.21,12.12,20,32,17.16,51.52a36.37,36.37,0,0,1,2.75,3.6c4.82,7.19,6.72,15.52,5,21.75-1.25,4.45-3.93,6.6-6.08,8.33-1.86,1.5-2.86,2.37-3.35,4.22-1.08,4,2.22,8,7.7,14.18,4.64,5.24,9.9,11.17,13.15,19.19,4.84,11.93,4.14,26.26-2.07,42.59A3.69,3.69,0,0,1,603.25,473ZM566.84,353.1a26.71,26.71,0,0,0-17.9,7.42c-4.13,3.92-6.34,8.66-6.07,13,.39,6.06,5.33,12.22,10.79,13.44,10,2.25,22.82-11.52,27.21-24.86.32-1,.59-2,.83-3a22.62,22.62,0,0,0-12.47-5.88A21,21,0,0,0,566.84,353.1Zm-10.35-95.4c3.16,12.32,9.39,22.42,15.68,23.14,2.29.26,5-.82,5.84-2.36,1.15-2,.41-7.35-3.23-13.17-3.86-6.16-9-10-13.3-9.7A9.24,9.24,0,0,0,556.49,257.7Z" transform="translate(-99.94 -110.82)"/><polygon class="cls-2" points="662.73 86.21 658.68 118.41 678.99 120.96 683.04 88.76 678.02 88.13 681.53 60.21 686.3 60.81 679.01 34.19 666.23 58.29 670.6 58.84 667.09 86.76 662.73 86.21"/><path d="M778.93,235.46l-.45,0-20.32-2.56a3.68,3.68,0,0,1-3.19-4.1l4-32.2a3.68,3.68,0,0,1,1.39-2.45,3.72,3.72,0,0,1,2.71-.74l.72.09,2.59-20.63-.71-.09a3.66,3.66,0,0,1-2.79-5.36l12.77-24.1a3.68,3.68,0,0,1,6.8.75l7.29,26.62a3.68,3.68,0,0,1-4,4.62l-1.12-.15-2.6,20.63,1.38.17a3.69,3.69,0,0,1,3.19,4.11l-4,32.2a3.69,3.69,0,0,1-3.65,3.22ZM762.72,226l13,1.64,3.13-24.91-1.38-.17a3.69,3.69,0,0,1-3.19-4.11l3.51-27.92a3.63,3.63,0,0,1,1.39-2.44,3.7,3.7,0,0,1,2-.77l-3.4-12.44-6,11.31a3.66,3.66,0,0,1,2.32,3.88L770.67,198a3.66,3.66,0,0,1-4.1,3.19l-.72-.09Z" transform="translate(-99.94 -110.82)"/><path class="cls-3" d="M779.3,400c.94-3.24,3.18-9.28,1.2-10.68s-6,3.2-8,2c-4.51-2.7,8.09-29.24,4.91-31-2.6-1.45-13.61,14.92-16.15,13.44s5.37-18.67,2.54-20.2c-1.2-.65-3,2.18-4.52,1.65-4.58-1.6,2.73-30.28-1-31.55-2.49-.85-7.43,11.34-10.6,10.51-4.9-1.28.89-31.8-4.74-33.5-4-1.2-10.26,13.31-14,12-2.53-.87-1.9-8.42-1.18-22.15,1.68-31.93.56-33.85-.1-34C725,256,718.24,282,715.1,281.35s1-25.07-4-26.54c-4.14-1.22-10.63,14.26-13.84,13.19-5.11-1.7,5.85-43.07,1.11-44.67-3.5-1.17-14,20-15.54,19.24-1.11-.56,5.37-11,3.34-23.8a33.12,33.12,0,0,0-3.43-10.19c2.57-17.88,5.12-40.26,1.48-41.19-3.92-1-13.52,23.18-18.33,37.12C659.57,222.85,646.22,263,652,316.2c1.17,10.85,2.58,23.75,7.79,40.2,6.27,19.81,16.78,53,46.39,71.94,29.39,18.8,69.09,18.09,75.08,6.42C785.07,427.32,774.27,417.22,779.3,400Z" transform="translate(-99.94 -110.82)"/><path d="M684,167.36l.24,0c3.64.93,1.09,23.31-1.48,41.19a33.12,33.12,0,0,1,3.43,10.19c2,12.79-4.45,23.24-3.34,23.8a.16.16,0,0,0,.1,0c1.78,0,11.45-19.3,15.15-19.3a.92.92,0,0,1,.29,0c4.74,1.6-6.22,43-1.11,44.67a1,1,0,0,0,.34.06c3.17,0,9-13.32,13-13.32a1.55,1.55,0,0,1,.48.07c5,1.47,1,25.93,4,26.54h.11c3.16,0,9.71-24.81,12.4-24.81h.09c.66.14,1.78,2.06.1,34-.72,13.73-1.35,21.28,1.18,22.15a1.61,1.61,0,0,0,.48.08c3.59,0,9.15-12.19,13-12.19a1.61,1.61,0,0,1,.49.07c5.63,1.7-.16,32.22,4.74,33.5a1.12,1.12,0,0,0,.32,0c3.06,0,7.55-10.59,10-10.59a.75.75,0,0,1,.26,0c3.74,1.27-3.57,30,1,31.55a1.47,1.47,0,0,0,.41.07c1.26,0,2.66-1.82,3.72-1.82a.81.81,0,0,1,.39.1c2.83,1.53-5,18.75-2.54,20.2a.75.75,0,0,0,.37.09c3,0,12.41-13.63,15.41-13.63a.66.66,0,0,1,.37.1c3.18,1.76-9.42,28.3-4.91,31a1.45,1.45,0,0,0,.77.2c1.8,0,4.5-2.49,6.34-2.49a1.45,1.45,0,0,1,.88.27c2,1.4-.26,7.44-1.2,10.68-5,17.25,5.77,27.35,1.94,34.79-2.71,5.28-12.33,8.31-24.77,8.31a97.12,97.12,0,0,1-50.31-14.73c-29.61-18.93-40.12-52.13-46.39-71.94-5.21-16.45-6.62-29.35-7.79-40.2-5.76-53.21,7.59-93.35,13.91-111.69,4.71-13.66,14-37.15,18.09-37.15m0-7.35c-6.27,0-10.28,6.25-15.49,17.78-3,6.71-6.6,15.8-9.54,24.33-5.56,16.12-20.33,58.94-14.27,114.87,1.18,10.88,2.64,24.43,8.09,41.63,6.58,20.78,17.59,55.54,49.44,75.91a104.9,104.9,0,0,0,54.27,15.89c9.33,0,25.81-1.59,31.31-12.3,3-5.86,1.25-11.8-.3-17.05-1.65-5.59-3.36-11.38-1.13-19.05.12-.4.26-.84.41-1.32,1.61-5.22,4-13.11-2-17.41a8.78,8.78,0,0,0-4.46-1.59c.61-2.17,1.29-4.4,1.79-6,1-3.41,2-6.64,2.62-9.33.5-2.29,2-9.27-3.71-12.47a8.24,8.24,0,0,0-4-1,9.45,9.45,0,0,0-5.32,1.71c-.26-4.25-2.42-6.4-4.43-7.49a8.09,8.09,0,0,0-2.09-.78c.18-2.49.47-5.3.69-7.38.4-3.78.78-7.35.83-10.33,0-2.41.19-9.76-6.07-11.9a8.47,8.47,0,0,0-7.73,1.25c.2-11.78.23-21.88-7.87-24.32a9.16,9.16,0,0,0-2.61-.38h0a11,11,0,0,0-7.61,3.35c0-.85.09-1.72.13-2.58l.17-3.07c.75-14.29,1-23.95.83-29.55a28.11,28.11,0,0,0-.6-5.7,7.91,7.91,0,0,0-7.76-6.49h0c-4,0-6.4,2.76-7.86,5.26a10,10,0,0,0-6.58-6.7,8.79,8.79,0,0,0-2.55-.37,10.08,10.08,0,0,0-6.06,2.09c.17-1.23.33-2.41.48-3.46.75-5.29,1.51-10.76,1.79-15,.26-4,.79-12.29-6.11-14.61a8.16,8.16,0,0,0-2.64-.43h0a8.78,8.78,0,0,0-4.7,1.33,40,40,0,0,0-3-9.88c1.46-10.41,2.41-18.91,2.82-25.3a75.79,75.79,0,0,0,.06-11.06c-.57-6.07-3-9.69-7.17-10.76A8.49,8.49,0,0,0,684,160h0Z" transform="translate(-99.94 -110.82)"/><path class="cls-3" d="M575.09,403.51c-.21-1.35,4-3.15,15.1-6.88,23.53-7.94,30.14-8.5,35.86-15.54,3.47-4.27,1.8-5,5.45-9.37,8.66-10.37,22.69-11.86,28-12.36,4.33-.4,22.38-1.56,38.57,10,11.12,7.92,8,12.28,19.73,20.18,8.3,5.57,16.3,7.71,31.75,11.86,12.14,3.26,18.21,4.89,21.61,4.74,15.89-.72,26.84-15.09,48.1-43.81,15.62-21.1,23.43-31.66,27.89-46.34,4.67-15.37,4.5-28,4.22-48.52-.35-25.74-4.2-38,2-58.82,2.6-8.79,7.37-20.39,10.78-19.91,2.11.3,2.6,5,4.84,12.38,3.51,11.5,7.4,16.47,10.7,23.48,11.1,23.57,5.69,49.24,8.78,49.48,2,.16,2.93-11,11.2-27,3.59-6.94,10-17.45,12.31-16.55,1.33.51.3,4.26-.47,17.64-.71,12.34-.1,13.85-1.51,18.91-2.16,7.81-6.1,13.18-5.6,13.5s5.58-8.53,7.38-7.82c2.3.91-.33,17.73-7,33.57-2.86,6.8-5.72,11.29-4.57,12.21,1.53,1.22,7.73-5.72,20.28-13.3,2.14-1.29,15.55-9.38,17.41-7.12C939,299.5,934.3,303,930.08,313c-3,7.14-2.24,9.29-5.6,13.49-3.48,4.37-7.94,6.6-7.38,7.82.49,1.06,3.91-.43,4.76.67,2.52,3.26-21.19,24.46-19.43,26.69,1.53,1.94,21-12.5,23.6-9.55.32.36.59,1.19-4.68,11.05-4.41,8.24-6.62,12.36-9,15-5.47,6.23-11.31,8.94-10.61,10.51.56,1.23,4.1-.5,7.21,1.58,2.69,1.8,4.55,6.13,3.3,9-2.19,5.11-12.73,2.7-14.45,7.4-1.28,3.47,3.84,6.54,2.27,10.31-1.09,2.61-3.84,1.79-7.63,5.5-3.06,3-2,4.29-5.05,7.57-4.26,4.63-8.34,4.27-8.66,6.78-.46,3.57,7.49,6.52,6.78,8.66s-8.57-.25-11.34,3.55c-1.52,2.08-.79,5-.55,5.92,1.14,4.53,4.75,5,11.15,11.12,5.67,5.41,5.79,7.84,9.1,8.42,2,.35,3-.38,10.19-3.43,10.34-4.4,11.76-4.35,12.51-3.68,1.52,1.38.43,5.66-1.46,8.36s-4.45,3.47-4.27,4c.36,1,9.81-2.4,21.91-3.51,4.34-.39,13.56-1.24,14.15.84.67,2.33-9.75,7.37-20.91,12.78-15,7.27-22,9.35-21.68,11.1.44,2.39,13.63-1.08,32.55,3,10,2.15,17.26,5.46,29.31,11s19.22,8.76,18.74,10.9c-1.11,5-42.71,3.28-50.09,3-3-.12-11.24-.49-11.6,1.23-.32,1.54,6,3,12.58,8.05,6.88,5.28,14,14.46,11.89,18.08-3,5.06-23.44-1.87-25.48-2.57-17.3-6-29.4-16.14-30.31-15-.5.66,3.49,3.33,6.26,9.3,2.06,4.44,4.35,12.66,1.09,15.71-3.52,3.29-12.39-.43-17.37-3.43-16.08-9.66-17.55-27.32-23.95-26.76-4.44.39-3.5,8.89-13.86,18.47-3.08,2.86-6.79,4.91-13.69,9.08-4.66,2.81-7,4.22-9.42,5.11a10.49,10.49,0,0,0-3.36,1.52c-2.4,1.89-2,4-3.77,8.61-2.17,5.71-4.75,7.58-3.65,9.77.34.68.74.79,2.56,2.07.11.07,2,1.6,5.78,4.66,8.13,6.59,11.35,10.72,13.34,9.72,1.35-.67.6-2.92,3-5,.45-.39,2-1.76,3.36-1.53,2.94.5,2.32,8.27,5.2,15.86,2.5,6.58,5.08,6.31,14.21,17.83,3.56,4.49,13.24,16.73,11.37,18.72-1.46,1.55-9.93-3-16.18-8.83s-9.07-11.72-10-11.25,1.55,5.39,3.16,13.15c.21,1,3.7,18.34-.23,20-2,.84-5.84-2.67-7.69-6.21-1.7-3.24-1.36-5.76-1.36-12.75,0-10.44,0-15.68-1.72-16.23-1.55-.51-3.59,2.93-7.38,7.82-6.69,8.62-16.74,19-18.62,17.8-1.39-.89,1.28-8.32,5-14a52.59,52.59,0,0,1,5.18-6.41c8.12-9.44,12.18-14.16,11.66-17.07-.81-4.59-7.78-3.8-20.15-13.1-7.12-5.35-9.06-8.49-10-11.24-1.22-3.65-.93-7.06-.59-11.08.52-6.07,2.09-7.91,2.62-8.48a7,7,0,0,1,1.06-1c1.36-1.14,2.24-1.55,2.17-1.73s-1.2.06-2.12.27a43.61,43.61,0,0,1-5.25,1c-1.69.08-7.18-.08-7.25,0h0l-.1,0c-1,.64.3,3.23.26,6.08,0,1.67-.74,3.37-2.22,6.68a61.43,61.43,0,0,1-7.4,13.1c-4.88,6.41-6.87,5.69-16,14.6-11.43,11.13-10.88,14.74-10.63,15.79.58,2.38,2.76,4.35,2.66,8.51,0,2-.07,3-.79,3.6-2.92,2.38-10.85-8.27-25.18-10.81a70,70,0,0,0-8.88-.81,109.53,109.53,0,0,0-14,.32c-17.35,1.2-24.78,2.25-25.11.91-.12-.46.65-1,1-1.28,8.67-6.08,20.89-7.5,20.89-7.5,16.5-1.92,19-2.12,19.07-2.61.13-2.08-43.7-4.57-43.73-8.84,0-1.92,8.84-4.08,16-4a34.22,34.22,0,0,1,13.12,2.12c2.54,1,5.56,2.6,10.29,3,1.57.14,4.33.37,4.64-.49.21-.61-.66-1.94-11.42-8.17-10.06-5.82-14.15-7.32-13.86-9.07s4.69-2.54,7.35-2.55c1.1,0,3.68.14,8.48,2.62a44.47,44.47,0,0,1,8.21,5.57c14.66,12,13.47,10.13,16.68,13.47,5.27,5.5,7.49,9.62,9.74,8.93,1.21-.37,1.37-1.82,3-5,.76-1.49,1.36-2.43,5.58-8.21,8.87-12.14,9.17-12,11.27-15.27,4.94-7.7,9.82-15.32,7.3-19.53-2.15-3.6-8.22-2.25-16.72-2.91-15.46-1.21-26.63-8.11-34.19-12.78a83.36,83.36,0,0,1-29.07-30.91c-6.6-12.36-12.86-32.29-11.47-52.71a65.29,65.29,0,0,0-2.71-25.5c-2.54-7.79-5.49-11.18-8.44-13.17-4-2.74-6.77-2-13.24-3.28-8.55-1.75-8.09-4-23.39-10.41a136.19,136.19,0,0,0-20.69-7.18,151,151,0,0,0-15.44-3c-1.93-.26-10.75-1.43-19.73-2.78C577,404.69,575.22,404.35,575.09,403.51Z" transform="translate(-99.94 -110.82)"/><path d="M863.89,188.7h.21c2.11.3,2.6,5,4.84,12.38,3.51,11.5,7.4,16.47,10.7,23.48,11.1,23.57,5.69,49.24,8.78,49.48h0c2,0,2.94-11.11,11.16-27,3.44-6.65,9.44-16.6,12-16.6a.81.81,0,0,1,.31.05c1.33.51.3,4.26-.47,17.64-.71,12.34-.1,13.85-1.51,18.91-2.16,7.81-6.1,13.18-5.6,13.5h0c.76,0,5.2-7.87,7.11-7.87a.54.54,0,0,1,.22,0c2.3.91-.33,17.73-7,33.57-2.86,6.8-5.72,11.29-4.57,12.21a.73.73,0,0,0,.45.14c2.08,0,8.25-6.45,19.83-13.44,1.88-1.14,12.46-7.52,16.26-7.52a1.4,1.4,0,0,1,1.15.4C939,299.5,934.3,303,930.08,313c-3,7.14-2.24,9.29-5.6,13.49-3.48,4.37-7.94,6.6-7.38,7.82.15.31.55.4,1.06.4.7,0,1.61-.16,2.37-.16a1.59,1.59,0,0,1,1.33.43c2.52,3.26-21.19,24.46-19.43,26.69a.6.6,0,0,0,.5.18c3.09,0,17.35-10.13,22-10.13a1.46,1.46,0,0,1,1.14.4c.32.36.59,1.19-4.68,11.05-4.41,8.24-6.62,12.36-9,15-5.47,6.23-11.31,8.94-10.61,10.51.19.42.73.49,1.47.49l1.46,0a7.39,7.39,0,0,1,4.28,1.11c2.69,1.8,4.55,6.13,3.3,9-2.19,5.11-12.73,2.7-14.45,7.4-1.28,3.47,3.84,6.54,2.27,10.31-1.09,2.61-3.84,1.79-7.63,5.5-3.06,3-2,4.29-5.05,7.57-4.26,4.63-8.34,4.27-8.66,6.78-.46,3.57,7.49,6.52,6.78,8.66s-8.57-.25-11.34,3.55c-1.52,2.08-.79,5-.55,5.92,1.14,4.53,4.75,5,11.15,11.12,5.67,5.41,5.79,7.84,9.1,8.42a5.41,5.41,0,0,0,.87.08c1.6,0,3.23-.92,9.32-3.51,7.37-3.14,10.21-4,11.5-4a1.39,1.39,0,0,1,1,.33c1.52,1.38.43,5.66-1.46,8.36s-4.45,3.47-4.27,4c0,.12.24.18.55.18,2.22,0,10.77-2.72,21.36-3.69,2.17-.2,5.56-.51,8.49-.51s5.37.31,5.66,1.35c.67,2.33-9.75,7.37-20.91,12.78-15,7.27-22,9.35-21.68,11.1.14.77,1.62.93,4.21.93,1.81,0,4.17-.07,7-.07A100,100,0,0,1,936.9,504c10,2.15,17.26,5.46,29.31,11s19.22,8.76,18.74,10.9c-.63,2.82-14.36,3.5-27.45,3.5-9.92,0-19.46-.39-22.64-.52-1.07,0-2.8-.12-4.61-.12-3.26,0-6.76.25-7,1.35-.32,1.54,6,3,12.58,8.05,6.88,5.28,14,14.46,11.89,18.08-.78,1.33-2.79,1.84-5.35,1.84-7.14,0-18.63-3.89-20.13-4.41-16.36-5.64-28.07-15-30.07-15a.3.3,0,0,0-.24.09c-.5.66,3.49,3.33,6.26,9.3,2.06,4.44,4.35,12.66,1.09,15.71a5.65,5.65,0,0,1-4,1.28c-4.17,0-9.81-2.54-13.41-4.71-15.83-9.51-17.5-26.77-23.65-26.77H858c-4.44.39-3.5,8.89-13.86,18.47-3.08,2.86-6.79,4.91-13.69,9.08-4.66,2.81-7,4.22-9.42,5.11a10.49,10.49,0,0,0-3.36,1.52c-2.4,1.89-2,4-3.77,8.61-2.17,5.71-4.75,7.58-3.65,9.77.34.68.74.79,2.56,2.07.11.07,2,1.6,5.78,4.66,7.32,5.94,10.66,9.87,12.7,9.87a1.4,1.4,0,0,0,.64-.15c1.35-.67.6-2.92,3-5a5.57,5.57,0,0,1,3-1.56,1.63,1.63,0,0,1,.31,0c2.94.5,2.32,8.27,5.2,15.86,2.5,6.58,5.08,6.31,14.21,17.83,3.56,4.49,13.24,16.73,11.37,18.72a1.25,1.25,0,0,1-.94.31c-2.74,0-9.82-4.11-15.24-9.14-6-5.6-8.85-11.27-9.88-11.27l-.11,0c-.85.44,1.55,5.39,3.16,13.15.21,1,3.7,18.34-.23,20a1.63,1.63,0,0,1-.67.13c-2.12,0-5.36-3.16-7-6.34s-1.36-5.76-1.36-12.75c0-10.44,0-15.68-1.72-16.23a.87.87,0,0,0-.31,0c-1.52,0-3.53,3.3-7.07,7.87-6.33,8.16-15.66,17.9-18.25,17.9a.62.62,0,0,1-.37-.1c-1.39-.89,1.28-8.32,5-14a52.59,52.59,0,0,1,5.18-6.41c8.12-9.44,12.18-14.16,11.66-17.07-.81-4.59-7.78-3.8-20.15-13.1-7.12-5.35-9.06-8.49-10-11.24-1.22-3.65-.93-7.06-.59-11.08.52-6.07,2.09-7.91,2.62-8.48a7,7,0,0,1,1.06-1c1.36-1.14,2.24-1.55,2.17-1.73s-.11-.08-.25-.08a11.65,11.65,0,0,0-1.87.35,43.61,43.61,0,0,1-5.25,1c-.35,0-.86,0-1.44,0-2,0-5-.08-5.69-.08h-.12l-.1,0c-1,.64.3,3.23.26,6.08,0,1.67-.74,3.37-2.22,6.68a61.43,61.43,0,0,1-7.4,13.1c-4.88,6.41-6.87,5.69-16,14.6-11.43,11.13-10.88,14.74-10.63,15.79.58,2.38,2.76,4.35,2.66,8.51,0,2-.07,3-.79,3.6a1.59,1.59,0,0,1-1,.34c-3.54,0-11.26-8.86-24.16-11.15a70,70,0,0,0-8.88-.81c-1.53-.07-3-.11-4.32-.11-3.31,0-6.29.19-9.71.43-11.59.8-18.75,1.54-22.33,1.54-1.78,0-2.67-.18-2.78-.63s.65-1,1-1.28c8.67-6.08,20.89-7.5,20.89-7.5,16.5-1.92,19-2.12,19.07-2.61.13-2.08-43.7-4.57-43.73-8.84,0-1.9,8.68-4,15.78-4h.2a34.22,34.22,0,0,1,13.12,2.12c2.54,1,5.56,2.6,10.29,3,.68.06,1.58.14,2.4.14,1.09,0,2.06-.14,2.24-.63s-.66-1.94-11.42-8.17c-10.06-5.82-14.15-7.32-13.86-9.07s4.69-2.54,7.35-2.55h0c1.11,0,3.69.15,8.47,2.62a44.47,44.47,0,0,1,8.21,5.57c14.66,12,13.47,10.13,16.68,13.47,4.88,5.1,7.15,9,9.24,9a1.74,1.74,0,0,0,.5-.08c1.21-.37,1.37-1.82,3-5,.76-1.49,1.36-2.43,5.58-8.21,8.87-12.14,9.17-12,11.27-15.27,4.94-7.7,9.82-15.32,7.3-19.53-2.15-3.6-8.22-2.25-16.72-2.91-15.46-1.21-26.63-8.11-34.19-12.78a83.36,83.36,0,0,1-29.07-30.91c-6.6-12.36-12.86-32.29-11.47-52.71a65.29,65.29,0,0,0-2.71-25.5c-2.54-7.79-5.49-11.18-8.44-13.17-4-2.74-6.77-2-13.24-3.28-8.55-1.75-8.09-4-23.39-10.41a136.19,136.19,0,0,0-20.69-7.18,151,151,0,0,0-15.44-3c-1.93-.26-10.75-1.43-19.73-2.78-5.33-.8-7.15-1.14-7.28-2-.21-1.35,4-3.15,15.1-6.88,23.53-7.94,30.14-8.5,35.86-15.54,3.47-4.27,1.8-5,5.45-9.37,8.66-10.37,22.69-11.86,28-12.36,1-.09,2.84-.23,5.23-.23,7.6,0,21,1.42,33.34,10.2,11.12,7.92,8,12.28,19.73,20.18,8.3,5.57,16.3,7.71,31.75,11.86,11.62,3.12,17.67,4.75,21.15,4.75h.46c15.89-.72,26.84-15.09,48.1-43.81,15.62-21.1,23.43-31.66,27.89-46.34,4.67-15.37,4.5-28,4.22-48.52-.35-25.74-4.2-38,2-58.82,2.55-8.61,7.18-19.92,10.57-19.92m0-7.35c-6.13,0-9.75,5.8-12.21,10.86a96.88,96.88,0,0,0-5.4,14.32c-4.73,16-4,27.33-3.11,41.72.35,5.6.75,12,.85,19.29.28,20,.44,32-3.9,46.28-4.09,13.47-11.67,23.71-26.77,44.11-20.67,27.92-30.32,40.29-42.53,40.84h-.12c-2.51,0-9.16-1.79-19.24-4.5-14.83-4-22.28-6-29.56-10.87a25.47,25.47,0,0,1-8.28-8.33,40.4,40.4,0,0,0-11.28-11.73c-13.43-9.56-27.86-11.56-37.61-11.56-2,0-4,.09-5.91.26-5.49.51-22.17,2.06-33,15a21.35,21.35,0,0,0-4.07,6.93,6.78,6.78,0,0,1-1.44,2.52c-2.92,3.59-6,4.68-18.73,8.71-3.72,1.19-8.35,2.66-13.79,4.5-6.21,2.09-9.92,3.47-12.43,4.59-2.12.95-8.57,3.85-7.58,10.36.31,2,1.65,5.62,7.15,7,1.51.38,3.57.71,6.3,1.12,7.74,1.16,15.34,2.19,18.59,2.63l1.24.17a139,139,0,0,1,14.63,2.87,130.54,130.54,0,0,1,19.65,6.83A114.91,114.91,0,0,1,648,431.41a36.31,36.31,0,0,0,12.11,4.69c2.42.49,4.37.73,5.94.92,2.76.33,3.46.44,4.65,1.24.88.6,3.23,2.19,5.57,9.36a58,58,0,0,1,2.4,22.29l0,.44C676.8,498,687.63,520.71,691,527a90.31,90.31,0,0,0,31.7,33.7c8.06,5,20.24,12.51,37.48,13.86,2.66.2,5,.23,7.11.25.92,0,2,0,3,.07A88.58,88.58,0,0,1,764,585.73a44.3,44.3,0,0,1-2.69,3.73c-1.41,1.85-3.79,4.95-8.33,11.17-2.3,3.15-3.62,5-4.5,6.33-.77-.87-1.62-1.81-2.56-2.79a30.38,30.38,0,0,0-4.75-4.14c-1.91-1.42-5.11-3.81-12.56-9.93l-.06,0a51.15,51.15,0,0,0-9.44-6.38c-4.47-2.31-8.35-3.44-11.85-3.44-6.39,0-13.57,2.3-14.62,8.71a8.31,8.31,0,0,0,1.66,6.54c-4.6.28-14,1.36-18,5.43a8.3,8.3,0,0,0-2.48,5.91c0,6.44,6.34,8.68,11.93,9.89a41.62,41.62,0,0,0-5,3c-4.76,3.33-4.35,7.44-3.95,9,.7,2.84,3,6.23,9.92,6.23,2.5,0,6.1-.29,11.55-.71,3.24-.26,6.91-.55,11.28-.85,3.2-.22,6.11-.41,9.21-.41,1.31,0,2.61,0,4,.1a64,64,0,0,1,7.94.71c6.51,1.15,11.5,4.43,15.51,7.06,3.57,2.35,6.39,4.2,9.93,4.2a8.88,8.88,0,0,0,5.67-2c3.34-2.72,3.43-6.42,3.49-9.12a18.91,18.91,0,0,0-2.43-9.55l0,0c.72-1.3,2.73-4.27,8.21-9.6a82.29,82.29,0,0,1,8.37-7.22,38.05,38.05,0,0,0,8.38-8.2,60.21,60.21,0,0,0,5.51-8.73c.14.56.3,1.12.5,1.69,1.7,5.08,5.34,9.36,12.53,14.78a75.7,75.7,0,0,0,15.45,9l.45.2c-1.86,2.52-5.14,6.34-8.57,10.32l-1.48,1.7a42.31,42.31,0,0,0-4.29,5.51c-.32.49-7.79,12.12-6.3,19A8.14,8.14,0,0,0,805,658a8,8,0,0,0,4.34,1.26c3.61,0,7-2.11,12.93-8,2.25-2.26,4.71-5,7.07-7.72,0,.63,0,1.21,0,1.76,0,5.39-.08,9,2.2,13.32,2,3.82,7.1,10.29,13.54,10.29a9.19,9.19,0,0,0,3.46-.67c7.48-3.07,6.58-13.28,6.2-17.64v-.14c4.3,3,9.36,5.61,13.32,5.61a8.5,8.5,0,0,0,6.3-2.63c5.24-5.58.12-13.1-2.93-17.59-2.78-4.09-6.2-8.4-8-10.72a120.55,120.55,0,0,0-9-10.25c-2.56-2.63-3.16-3.25-4.07-5.63a45.91,45.91,0,0,1-1.94-7.81c-.9-4.87-2.13-11.54-8.9-12.69a9.8,9.8,0,0,0-1.54-.13,12.21,12.21,0,0,0-7.88,3.37c-.19.16-.37.33-.54.5-1.7-1.5-3.77-3.32-6.33-5.39l-4.5-3.64a42.33,42.33,0,0,0,2.06-4.53,47.84,47.84,0,0,0,1.45-4.56c.08-.3.17-.63.25-.91l.12,0,1-.34c3.1-1.13,5.8-2.76,10.7-5.72l2.68-1.61c5.41-3.24,9-5.39,12.2-8.36a44.93,44.93,0,0,0,9.69-12.7l.07.12c3.44,6.13,8.65,15.38,19.28,21.77,2.24,1.35,10.13,5.76,17.19,5.76a12.76,12.76,0,0,0,9-3.26c3.8-3.55,4.34-8.7,3.75-13.38a106.18,106.18,0,0,0,11.8,4.9c3.27,1.13,14.57,4.81,22.52,4.81,5.64,0,9.57-1.85,11.7-5.49,2.56-4.4,1.59-9.89-2.89-16.32a51.33,51.33,0,0,0-6-7c3.72.09,8,.17,12.33.17,7.94,0,14.37-.25,19.14-.73,5.19-.53,13.89-1.41,15.48-8.52,1.54-6.85-5.33-10.61-8.26-12.22-3.46-1.89-8.38-4.13-14.6-7-12.07-5.51-20-9.14-30.81-11.45-2.51-.54-4.91-.95-7.19-1.27,5-2.42,9.66-4.71,13.29-6.78,4-2.29,11.49-6.54,9.46-13.65-1.91-6.68-9.77-6.68-12.73-6.68-3.26,0-6.81.33-9.16.54-2.62.24-5.11.58-7.42,1a9.88,9.88,0,0,0-3.16-7.91,8.65,8.65,0,0,0-5.94-2.24c-2.42,0-5.19.69-14.38,4.59l-3.63,1.57c-.77.34-1.55.68-2.19.94l-.23-.28a57.48,57.48,0,0,0-5.28-5.76,69.63,69.63,0,0,0-6.72-5.59c-.54-.4-1.16-.86-1.63-1.24l.48,0c2.8-.15,8.63-.44,10.51-6.12,1.45-4.38-.86-7.59-3.1-9.7a24.49,24.49,0,0,0,3.41-3.08,20,20,0,0,0,3.75-5.73,3.62,3.62,0,0,1,1-1.56,7.92,7.92,0,0,1,2.65-1.69,11.64,11.64,0,0,0,6.62-6.24,11.79,11.79,0,0,0-.31-9.52c3.86-.78,9.92-2.18,12.47-8.11,2.47-5.77.09-12.37-3.87-16.3.9-.87,1.81-1.82,2.73-2.86,2.9-3.3,5.25-7.68,9.92-16.41a95.07,95.07,0,0,0,4.85-10c1.41-3.79,1-7-1.16-9.4a8.61,8.61,0,0,0-5.83-2.84c2-2.69,4.94-7.3,3.21-11.77.44-.49.89-1,1.32-1.55a24.15,24.15,0,0,0,4.62-9.44,48,48,0,0,1,2-5.78,51.57,51.57,0,0,1,5.46-9.75,27.07,27.07,0,0,0,2.1-3.41,8.45,8.45,0,0,0-.87-9.28,8.63,8.63,0,0,0-6.82-3.06c-1.75,0-5.85,0-20.06,8.58L915,300a121.16,121.16,0,0,0,3.51-12.89c2.51-11.92,1.07-15.34.53-16.63a8.65,8.65,0,0,0-1.65-2.57,43,43,0,0,0,1.07-10.07c.06-2.28.15-5.12.39-9.25.25-4.47.55-7.9.76-10.4.23-2.73.39-4.53.36-6-.11-5.88-3.79-7.91-5.37-8.52a8.31,8.31,0,0,0-2.93-.53c-4.67,0-8.08,3.61-11.75,9a122.42,122.42,0,0,0-6.78,11.54l-.07.14a83.09,83.09,0,0,0-6.73-22.39c-1.09-2.31-2.22-4.39-3.32-6.4A77.44,77.44,0,0,1,876,199c-.58-1.9-1-3.64-1.45-5.18-1.42-5.36-3-11.44-9.39-12.34a10.06,10.06,0,0,0-1.24-.08Z" transform="translate(-99.94 -110.82)"/><path d="M660.48,389.89a6.54,6.54,0,0,1-5.92-4.07,6.72,6.72,0,0,1,2.14-7.9h0a6.29,6.29,0,0,1,5.16-1,6.39,6.39,0,0,1,4.27,3.25,6.68,6.68,0,0,1-.11,6.19,6.46,6.46,0,0,1-4.8,3.52A6.3,6.3,0,0,1,660.48,389.89Zm-.35-7.32a1.1,1.1,0,0,0-.62.35,1.08,1.08,0,0,0,.71,1.12,1.1,1.1,0,0,0,.84-.2Zm0,0,.93,1.27a.69.69,0,0,0,.3-.82,1,1,0,0,0-1.09-.47Z" transform="translate(-99.94 -110.82)"/><polygon class="cls-3" points="621.4 7.35 635.37 39.35 639.53 28.16 655.51 37.75 637.11 11.51 633.91 21.56 621.4 7.35"/><path d="M721.34,118.17l12.51,14.21,3.2-10,18.4,26.24-16-9.59-4.16,11.19-14-32m0-7.35A7.25,7.25,0,0,0,717.4,112a7.34,7.34,0,0,0-2.79,9.14l14,32a7.35,7.35,0,0,0,6.73,4.41h.21a7.35,7.35,0,0,0,6.68-4.79l1.08-2.89,8.38,5a7.35,7.35,0,0,0,9.81-10.52l-18.41-26.24a7.34,7.34,0,0,0-6-3.14,7.14,7.14,0,0,0-1.12.09,7.34,7.34,0,0,0-4.88,3l-4.19-4.76a7.36,7.36,0,0,0-5.52-2.49Z" transform="translate(-99.94 -110.82)"/><polygon class="cls-3" points="729.74 19.32 701.45 42.18 722.18 35.37 720.02 46.32 748.39 27.37 730.04 33.05 729.74 19.32"/><path d="M829.68,130.14l.3,13.73,18.35-5.68L820,157.14l2.16-10.95L801.39,153l28.29-22.86m0-7.35a7.34,7.34,0,0,0-4.62,1.63l-28.29,22.86a7.35,7.35,0,0,0,4.62,13.07,7.27,7.27,0,0,0,2.29-.37l8.93-2.93a7.35,7.35,0,0,0,11.43,6.2l28.37-18.95a7.35,7.35,0,0,0-4.08-13.46,7.42,7.42,0,0,0-2.17.33l-9,2.8-.09-4a7.34,7.34,0,0,0-7.35-7.19Z" transform="translate(-99.94 -110.82)"/><path class="cls-4" d="M807,180.54" transform="translate(-99.94 -110.82)"/><path class="cls-4" d="M740.81,191" transform="translate(-99.94 -110.82)"/><line class="cls-2" x1="661.87" y1="103.32" x2="680.09" y2="104.86"/><path d="M780,219.36l-.31,0L761.5,217.8a3.67,3.67,0,1,1,.62-7.32L780.34,212a3.68,3.68,0,0,1-.31,7.34Z" transform="translate(-99.94 -110.82)"/><line class="cls-2" x1="662.73" y1="86.21" x2="682.32" y2="88.67"/><path d="M782.26,203.17l-.46,0-19.59-2.47a3.67,3.67,0,0,1,.91-7.29l19.6,2.46a3.68,3.68,0,0,1-.46,7.33Z" transform="translate(-99.94 -110.82)"/><line class="cls-2" x1="670.98" y1="65.15" x2="680.09" y2="65.97"/><path d="M780,180.46l-.33,0-9.11-.81a3.67,3.67,0,0,1,.65-7.32l9.12.81a3.68,3.68,0,0,1-.33,7.34Z" transform="translate(-99.94 -110.82)"/><path class="cls-5" d="M226.23,383l5.42,4a35.65,35.65,0,0,0,5.55,3.43,19.08,19.08,0,0,1,5.6,4.16,21.72,21.72,0,0,1,3.67,5.72,49.06,49.06,0,0,1,4.94,17.53,41.06,41.06,0,0,1-2.89,18.26q-2.06,5.29-4.28,10.18a31.28,31.28,0,0,1-6.44,9.1,54.68,54.68,0,0,1-18.38,12.53A107.24,107.24,0,0,1,198,474.07a57.3,57.3,0,0,1-9.16.72c-3.77,0-7.49-.18-11.14-.54s-7.37-.54-11.15-.54a96.78,96.78,0,0,1-9.7-.48q-4.75-.5-9.57-.61-3.13,0-6.15.25l-6.14.48a71,71,0,0,1-10,.72,50.82,50.82,0,0,1-6.51-.42,28.09,28.09,0,0,1-6.63-1.75,19.14,19.14,0,0,0-.6-2.29,7.18,7.18,0,0,1-.36-2.29q-.12-15.06-.24-29.82t.12-29.82q.24-15.42.66-30.54t.78-30.54q.25-9,.37-18.07t.12-18.08a36,36,0,0,0-.36-5.06c-.25-1.68-.45-3.37-.61-5.06q-.24-4.33,1.15-6.14t5.48-1.81h.72q9.16.24,18.2.78t18.07.91l8.25.24q4,.12,8.13.12c1.61,0,3.16,0,4.64-.06s3-.1,4.52-.18a88.67,88.67,0,0,1,28.13,4.22,90.34,90.34,0,0,1,25.12,13.37,37.47,37.47,0,0,1,12.59,15,29,29,0,0,1,1.87,18.73q-1.08,4.83-2.29,9.94a49.35,49.35,0,0,1-3.37,9.76,36.09,36.09,0,0,1-5.6,8.56,27.71,27.71,0,0,1-8.86,6.56,2.51,2.51,0,0,0-1.08,1C227.12,381.78,226.71,382.34,226.23,383Zm-67.95,53.38L167,437.5a80.47,80.47,0,0,0,8.08.67c1.44,0,3.19,0,5.24-.06a55.84,55.84,0,0,0,6.32-.49,54.26,54.26,0,0,0,6.15-1.14,13.26,13.26,0,0,0,4.7-2.05,18.76,18.76,0,0,0,5.12-5.66,23.41,23.41,0,0,0,2.77-7.17,21.37,21.37,0,0,0,.18-7.65,18.66,18.66,0,0,0-2.65-7.11,14,14,0,0,0-2.35-2.47,11,11,0,0,0-2.95-1.75,63,63,0,0,0-19.28-3,75.43,75.43,0,0,0-10,.66c-3.29.45-6.63,1-10,1.75Zm.72-68.07q3.74.36,7.53.6t7.65.84a9,9,0,0,0,1.45.12h1.45a23.89,23.89,0,0,0,7.89-1.32,50.06,50.06,0,0,0,7.53-3.38,14.07,14.07,0,0,0,4.94-4.27,23.35,23.35,0,0,0,2.89-5.73,10.26,10.26,0,0,0-.24-4.27,52.87,52.87,0,0,0-1.69-6.15,49.62,49.62,0,0,0-2.41-5.9,9.1,9.1,0,0,0-2.41-3.44,4.52,4.52,0,0,0-2.17-.84l-3.67-1a20.34,20.34,0,0,0-3.8-.61c-1.85-.08-3.65-.12-5.42-.12H173.1q-3.49,0-7,.06c-2.33.05-4.7.06-7.11.06Z" transform="translate(-99.94 -110.82)"/><path d="M188.88,479.52c-3.91,0-7.82-.19-11.61-.57-3.48-.34-7.07-.52-10.68-.52-3.42,0-6.85-.17-10.17-.5-3-.31-6.11-.5-9.16-.58-1.95,0-3.87.08-5.71.22l-6,.48a65.55,65.55,0,0,1-17.63.28,32.71,32.71,0,0,1-7.74-2l-2.4-.94-.51-2.52a14,14,0,0,0-.45-1.73,12,12,0,0,1-.61-3.79L106,437.54c-.08-9.85,0-19.93.12-29.93.17-10.3.39-20.6.67-30.6.28-10.17.55-20.44.78-30.52.16-6,.28-12.06.36-18s.12-12.13.12-18a31,31,0,0,0-.31-4.39c-.25-1.76-.47-3.54-.63-5.28v-.18c-.23-4.1.46-7.14,2.11-9.29,1.86-2.42,5-3.65,9.23-3.65h.85c6.16.16,12.34.43,18.35.79s12,.66,18,.9l8.2.24c4.14.12,8.57.17,12.5.06,1.45,0,2.92-.1,4.4-.18h.25a94,94,0,0,1,29.62,4.46A95.75,95.75,0,0,1,237,308a42.15,42.15,0,0,1,14.08,16.84,33.75,33.75,0,0,1,2.19,21.71q-1.09,4.88-2.31,10a55.09,55.09,0,0,1-3.69,10.69,41.08,41.08,0,0,1-6.33,9.66,30.8,30.8,0,0,1-7.06,5.9l.62.46a31.86,31.86,0,0,0,4.82,3,23.58,23.58,0,0,1,7,5.21,26.55,26.55,0,0,1,4.46,6.9,53.86,53.86,0,0,1,5.36,19.14,45.89,45.89,0,0,1-3.19,20.33c-1.4,3.62-2.87,7.13-4.39,10.45a36.08,36.08,0,0,1-7.4,10.48,59.63,59.63,0,0,1-19.93,13.56,112.19,112.19,0,0,1-22.33,6.42A62.84,62.84,0,0,1,188.88,479.52ZM147.32,467.9h.11c3.31.08,6.65.29,9.94.63,3,.3,6.11.45,9.22.45,3.92,0,7.82.19,11.61.57,3.49.34,7.08.52,10.68.52a52.53,52.53,0,0,0,8.4-.66,102.77,102.77,0,0,0,20.36-5.86,50.07,50.07,0,0,0,16.79-11.47,26.82,26.82,0,0,0,5.52-7.75c1.43-3.14,2.84-6.48,4.16-9.92a36.64,36.64,0,0,0,2.59-16.16,44.54,44.54,0,0,0-4.48-15.85l-.06-.15a16.88,16.88,0,0,0-2.87-4.47,14.17,14.17,0,0,0-4.21-3.1,41.17,41.17,0,0,1-6.26-3.88l-5.4-4L219.6,384l2.85-3.8c.43-.56.78-1,1.06-1.48a7.09,7.09,0,0,1,3-2.63,23.06,23.06,0,0,0,7.27-5.39,31.24,31.24,0,0,0,4.88-7.44,45,45,0,0,0,3.05-8.84q1.2-5.08,2.28-9.89a24.2,24.2,0,0,0-1.55-15.74,33.1,33.1,0,0,0-11-13.12,86.23,86.23,0,0,0-23.85-12.73,84.57,84.57,0,0,0-26.53-4c-1.52.08-3,.14-4.51.18-4.09.12-8.72.07-13-.06l-8.25-.24c-6.08-.24-12.19-.55-18.22-.91s-11.93-.61-18-.77h-.66a7.86,7.86,0,0,0-1.77.16,9.53,9.53,0,0,0-.14,2.71c.15,1.57.34,3.16.56,4.74a41,41,0,0,1,.41,5.73c0,5.92,0,12-.12,18.14s-.2,12.11-.36,18.13c-.24,10.08-.5,20.37-.79,30.55-.27,10-.5,20.22-.66,30.49-.16,9.93-.2,19.92-.12,29.7l.24,29.83a2.55,2.55,0,0,0,.12.83l0,.14a21.51,21.51,0,0,0,3.31.7,56.4,56.4,0,0,0,15.23-.29l.3,0,6.14-.48C142.9,468,145.09,467.9,147.32,467.9ZM116.73,297ZM175,442.89h-.14a84.58,84.58,0,0,1-8.56-.7l-12.78-1.69V398.2l3.74-.8c3.47-.74,7-1.35,10.36-1.81a80.08,80.08,0,0,1,10.63-.7A68.1,68.1,0,0,1,199,398.12l.26.1a15.41,15.41,0,0,1,4.26,2.51,18,18,0,0,1,3.16,3.33l.18.26a23.46,23.46,0,0,1,3.32,8.9,26.34,26.34,0,0,1-.22,9.33,28.21,28.21,0,0,1-3.33,8.62,23.47,23.47,0,0,1-6.41,7.08,18.14,18.14,0,0,1-6.34,2.81,56.61,56.61,0,0,1-6.68,1.25,62.55,62.55,0,0,1-6.84.52C178.28,442.87,176.5,442.89,175,442.89Zm-12-10.67,4.57.6a73,73,0,0,0,7.53.62c1.4,0,3.1,0,5.07-.06a53.56,53.56,0,0,0,11.42-1.48,9,9,0,0,0,3-1.28,14,14,0,0,0,3.85-4.25,18.87,18.87,0,0,0,2.21-5.73,16.35,16.35,0,0,0,.14-6A13.8,13.8,0,0,0,199,409.5a8.52,8.52,0,0,0-1.46-1.49,5.82,5.82,0,0,0-1.52-.93,58.35,58.35,0,0,0-17.69-2.74,71.24,71.24,0,0,0-9.37.62q-2.92.39-5.91.94Zm14.08-57.64h-1.45a13.79,13.79,0,0,1-2.23-.19c-2.36-.37-4.79-.63-7.17-.79-2.56-.16-5.15-.37-7.68-.61l-4.27-.42V328.26H159q3.57,0,7-.06c2.36,0,4.71-.06,7.07-.06h5.42c1.8,0,3.69,0,5.62.12a26.1,26.1,0,0,1,4.77.75l3.52.92a9,9,0,0,1,4,1.68,13.12,13.12,0,0,1,3.82,5.14,54,54,0,0,1,2.64,6.46,57.65,57.65,0,0,1,1.85,6.72,14,14,0,0,1,.17,6.47l-.1.3a28,28,0,0,1-3.48,6.88,18.55,18.55,0,0,1-6.57,5.73,54.47,54.47,0,0,1-8.22,3.68A28.61,28.61,0,0,1,177.08,374.58ZM163.73,364c1,.08,2.07.16,3.1.22,2.67.17,5.38.47,8.08.89a4,4,0,0,0,.72.07h1.45a19.25,19.25,0,0,0,6.33-1.06,46,46,0,0,0,6.81-3.06,9.2,9.2,0,0,0,3.34-2.84,18,18,0,0,0,2.18-4.21,11.51,11.51,0,0,0-.28-2.14,46.37,46.37,0,0,0-1.53-5.57,46.87,46.87,0,0,0-2.18-5.35,12,12,0,0,0-.95-1.66l-.17,0-.43-.09-3.64-1a16,16,0,0,0-2.92-.46c-1.7-.07-3.45-.11-5.12-.11H173.1c-2.3,0-4.61,0-6.91.06l-2.46,0Zm27-24.84Z" transform="translate(-99.94 -110.82)"/><path class="cls-5" d="M280.45,472.38c-1-2-1.81-3.73-2.53-5.18s-1.41-2.85-2.05-4.21q.24-3.25.72-6.63a32.07,32.07,0,0,0,.24-6.87,169.62,169.62,0,0,1-.3-19.64q.42-9.75,1.27-19.64a126.52,126.52,0,0,0,.3-15.06q-.3-7.47-.06-15.06.24-14.2-.6-28.19t-2.17-28.07a111.8,111.8,0,0,1-.42-15.06q.3-7.47.3-15.18a15.18,15.18,0,0,1,3.91-1.09,29.82,29.82,0,0,1,3.8-.24,45.28,45.28,0,0,1,5.72.36,44.46,44.46,0,0,0,5.6.36h1.33a20.14,20.14,0,0,1,2.23-.12h2.35c2.09,0,4.19,0,6.32.12s4.24.12,6.33.12h1.75a14.14,14.14,0,0,0,1.74-.12h1.09c2.33,0,3.77.49,4.33,1.45s.73,2.81.49,5.54a26,26,0,0,0,.54,7.23q.78,3.62,1.26,7.23.62,4,1.21,7.95t.84,7.95q.6,10.73,1,21.27t.48,21.14q0,8-.54,15.85t-1,15.84q-.24,5.43-.72,10.78c-.32,3.58-.52,7.17-.6,10.79-.17,5.46-.2,10.86-.12,16.2s.07,10.75,0,16.21c0,.88,0,1.79.06,2.71a12.2,12.2,0,0,1-.18,2.71q-.62,4.94-2.47,6.69t-6.93,1.74q-3.62.12-7.23.12H280.45Z" transform="translate(-99.94 -110.82)"/><path d="M307.68,477.11h-30.2l-1.29-2.68q-1.43-3-2.5-5.12c-.74-1.48-1.44-2.91-2.1-4.31l-.52-1.13.09-1.23c.17-2.27.42-4.61.76-6.95a28,28,0,0,0,.2-5.87,174.34,174.34,0,0,1-.31-20.17c.29-6.55.72-13.22,1.28-19.84a122.8,122.8,0,0,0,.29-14.47c-.21-5.08-.23-10.26-.06-15.4.15-9.23-.05-18.6-.6-27.76s-1.28-18.62-2.16-27.91a116.24,116.24,0,0,1-.43-15.69c.19-4.92.29-10,.29-15v-3.17l2.93-1.2a20.1,20.1,0,0,1,5.1-1.4,41.89,41.89,0,0,1,10.73.12,40.46,40.46,0,0,0,5,.32h1.09c.81-.08,1.64-.12,2.47-.12h2.35c2.11,0,4.3,0,6.5.12,2,.08,4.11.12,6.15.12h1.75a10.6,10.6,0,0,0,1.15-.08l.59,0h1.09c4.11,0,6.95,1.27,8.41,3.79,1.11,1.9,1.46,4.47,1.11,8.34a21.11,21.11,0,0,0,.46,5.81c.54,2.52,1,5.08,1.33,7.6l1.19,7.87c.42,2.78.72,5.59.89,8.38.4,7.21.73,14.4,1,21.39s.4,14.14.48,21.25c0,5.44-.18,10.88-.55,16.22s-.7,10.52-1,15.81c-.16,3.58-.41,7.28-.74,10.92-.31,3.46-.5,7-.58,10.46-.16,5.39-.2,10.77-.12,16s.08,10.86,0,16.35c0,.74,0,1.58.06,2.43a17.45,17.45,0,0,1-.23,3.62c-.56,4.41-1.84,7.49-3.92,9.44s-5.45,3-10.07,3C312.58,477.07,310.12,477.11,307.68,477.11Zm-24.27-9.45h24.27c2.36,0,4.74,0,7.07-.12h.16a9.13,9.13,0,0,0,3.71-.5,9.14,9.14,0,0,0,1-3.78l0-.27a8.38,8.38,0,0,0,.11-1.67c0-1-.07-2-.07-2.91.08-5.46.08-10.87,0-16.14s0-10.92.12-16.41c.08-3.66.29-7.39.62-11.07.32-3.49.55-7.05.71-10.57.33-5.39.67-10.68,1-16,.35-5.12.53-10.35.53-15.52-.08-7-.24-14.06-.48-21s-.56-14-1-21.16c-.15-2.48-.42-5-.79-7.51l-1.21-7.95c-.31-2.36-.72-4.67-1.21-6.94a30.76,30.76,0,0,1-.64-8.54c.08-.84.1-1.48.1-2h-1a18.17,18.17,0,0,1-2,.12h-1.75c-2.16,0-4.35,0-6.51-.12s-4.15-.12-6.14-.12h-2.35a16.23,16.23,0,0,0-1.72.09l-.51,0h-1.33a50.13,50.13,0,0,1-6.2-.4,34,34,0,0,0-8.12-.15c0,4-.14,7.92-.29,11.8a107.29,107.29,0,0,0,.4,14.42c.89,9.4,1.62,18.9,2.18,28.23s.78,19,.61,28.56c-.15,5-.14,9.94.06,14.79a131.83,131.83,0,0,1-.31,15.63c-.56,6.51-1,13.05-1.26,19.47a164.74,164.74,0,0,0,.3,19.09,37.47,37.47,0,0,1-.28,7.87c-.24,1.72-.44,3.42-.59,5.08.47,1,1,2,1.47,3C282.53,465.87,283,466.72,283.41,467.66Z" transform="translate(-99.94 -110.82)"/><path class="cls-5" d="M462.62,408.41h-24a24.79,24.79,0,0,1-2.22-7.23,58.42,58.42,0,0,1-.61-7.71c0-2.65-.08-5.37-.12-8.14a56.79,56.79,0,0,0-.78-8.49q3.13,0,6,.06t5.61.06h3.07c1,0,2.07,0,3.19-.12q6.39-.48,12.71-.72t12.83-.24q6.15,0,12.29.3t12.29.9a28.31,28.31,0,0,1,3.86.6,4.48,4.48,0,0,1,2.23,1.21,4.62,4.62,0,0,1,1.08,2.23,24.58,24.58,0,0,1,.42,3.79q.24,4.95.54,9.7c.2,3.18.39,6.37.55,9.58,0,1.85-.08,3.66-.24,5.42s-.29,3.54-.37,5.3q-.12,4.95-.42,9.82a39,39,0,0,0,.54,9.46,39.87,39.87,0,0,1,.61,7.95,16,16,0,0,1-1.57,6.57,17.58,17.58,0,0,1-4.34,5.48,36.49,36.49,0,0,1-7.71,4.94q-6.39,3.25-13.61,6.08t-14.76,5a131.94,131.94,0,0,1-15.18,3.44,91.51,91.51,0,0,1-14.88,1.26,116.09,116.09,0,0,1-14.88-1.2,92.51,92.51,0,0,1-19-4.82,91.38,91.38,0,0,1-20-10.36,70.49,70.49,0,0,1-17.95-17.95,81.84,81.84,0,0,1-5.24-10.73q-2.24-5.53-4.52-11.08a52.47,52.47,0,0,1-3.79-15.12,105.5,105.5,0,0,1-.37-16q.44-8.13,1.63-16.32t2.29-15.91a45.06,45.06,0,0,1,3.67-12.59q2.71-5.83,6.09-11.62,3.26-5.55,6.87-10.85a76.8,76.8,0,0,1,7.95-9.82,63.37,63.37,0,0,1,9.52-8.13,48.76,48.76,0,0,1,11.56-5.9,59.1,59.1,0,0,1,7.89-2.29c3.18-.72,6.45-1.37,9.82-1.93s6.69-1,9.94-1.38a75.76,75.76,0,0,1,8.38-.55A89.91,89.91,0,0,1,456.84,292a130.69,130.69,0,0,1,17,4.58,28.59,28.59,0,0,1,10.66,7.29,77.35,77.35,0,0,1,9.58,12.05,116.36,116.36,0,0,1,7.59,13.55,110,110,0,0,1,4.94,11.93q1.8,5.41.18,7.71t-7.41,2.77q-5.07.36-10,.84t-10,.85a16.75,16.75,0,0,1-2.05.12H473.1c-.72,0-1.48,0-2.29-.12-4.25-.16-6.79-2.25-7.59-6.27a18.9,18.9,0,0,0-.66-2.59,18.54,18.54,0,0,1-.66-2.59,19.49,19.49,0,0,0-3.32-7.23,18.41,18.41,0,0,0-5.3-4.7,21.42,21.42,0,0,0-6.8-2.53,41.41,41.41,0,0,0-7.84-.72,24.35,24.35,0,0,0-13.79,4.7,35.46,35.46,0,0,0-9.1,10.42A59.51,59.51,0,0,0,410,355.57c-1.41,4.87-2.67,9.5-3.8,13.92q-1.32,5.06-2.71,10.18a33,33,0,0,0-1.14,10.18q.36,4.95,1.14,9.82c.52,3.25,1,6.57,1.27,9.94a27.71,27.71,0,0,0,2,7.77,30.5,30.5,0,0,0,3.85,6.63,44.28,44.28,0,0,0,5.3,5.78q3,2.71,6.09,5.12a15.51,15.51,0,0,0,4.88,2.35,60.77,60.77,0,0,0,6.74,1.75q3.56.72,7,1.08c2.29.24,4.12.37,5.48.37a27.18,27.18,0,0,0,5.43-.55,23.72,23.72,0,0,0,5.42-1.86q13.85-6.75,8.31-21c-.48-1.28-.92-2.63-1.32-4S463.1,410.09,462.62,408.41Z" transform="translate(-99.94 -110.82)"/><path d="M439.61,479.64a120.66,120.66,0,0,1-15.51-1.25,96.79,96.79,0,0,1-41-15.95A75.48,75.48,0,0,1,364,443.31l-.23-.36a87.46,87.46,0,0,1-5.55-11.34c-1.48-3.67-3-7.36-4.5-11a57.76,57.76,0,0,1-4.13-16.46,110.84,110.84,0,0,1-.37-16.73c.28-5.55.84-11.19,1.67-16.77s1.56-10.74,2.28-15.87a49.71,49.71,0,0,1,4.07-13.92c1.86-4,4-8.07,6.29-12,2.22-3.79,4.59-7.53,7-11.13A81.72,81.72,0,0,1,379,307.24a68.29,68.29,0,0,1,10.22-8.73,54.05,54.05,0,0,1,12.63-6.46,63,63,0,0,1,8.49-2.47c3.22-.73,6.62-1.4,10.09-2s6.9-1.06,10.19-1.42a82.28,82.28,0,0,1,8.9-.57,95.37,95.37,0,0,1,18.26,1.77,135.33,135.33,0,0,1,17.61,4.75,33.55,33.55,0,0,1,12.51,8.45A83.31,83.31,0,0,1,498,313.36a123,123,0,0,1,7.9,14.11,115.83,115.83,0,0,1,5.15,12.45c1.73,5.19,1.58,9.09-.45,11.95s-5.51,4.29-10.87,4.74c-3.33.24-6.66.52-9.94.84s-6.61.6-10,.84a22.16,22.16,0,0,1-2.5.14H473.1c-.84,0-1.72,0-2.62-.13-6.34-.29-10.67-3.95-11.89-10.05a15.42,15.42,0,0,0-.51-2,23.41,23.41,0,0,1-.8-3.07,14.65,14.65,0,0,0-2.44-5.35,13.6,13.6,0,0,0-3.95-3.51,16.71,16.71,0,0,0-5.31-2,36.26,36.26,0,0,0-6.8-.63,19.55,19.55,0,0,0-11,3.71,31.14,31.14,0,0,0-7.9,9.06,55.44,55.44,0,0,0-5.26,12.43c-1.39,4.79-2.65,9.42-3.76,13.77q-1.33,5.11-2.73,10.24a28.47,28.47,0,0,0-1,8.67c.23,3.13.59,6.28,1.09,9.35.53,3.34,1,6.79,1.3,10.24a23,23,0,0,0,1.64,6.38,25.75,25.75,0,0,0,3.26,5.6,40.34,40.34,0,0,0,4.74,5.17c1.86,1.71,3.8,3.35,5.77,4.86a11,11,0,0,0,3.44,1.59,58.65,58.65,0,0,0,6.25,1.62c2.21.45,4.41.79,6.54,1a48.84,48.84,0,0,0,5,.34,22.1,22.1,0,0,0,4.48-.45,18.47,18.47,0,0,0,4.33-1.5c7-3.42,8.76-7.77,5.95-15-.55-1.46-1-2.94-1.47-4.46l-.34-1.21H435.68l-1.29-2.67a29.45,29.45,0,0,1-2.65-8.6,64.58,64.58,0,0,1-.65-8.32c0-2.65-.08-5.37-.12-8.14a52.61,52.61,0,0,0-.72-7.78l-.92-5.51h5.58c2.12,0,4.14,0,6.06.07s3.69.06,5.51.06h3.07c.89,0,1.85,0,2.85-.11,4.29-.33,8.62-.57,12.87-.73,8.33-.32,17-.36,25.53.06,4.16.2,8.37.51,12.52.92a32.16,32.16,0,0,1,4.54.72,9,9,0,0,1,4.54,2.57,9.43,9.43,0,0,1,2.25,4.44,28.41,28.41,0,0,1,.52,4.56c.16,3.23.34,6.47.54,9.64s.38,6.41.55,9.64v.24c0,2-.09,3.95-.26,5.85-.15,1.68-.27,3.39-.35,5.08-.07,3.23-.22,6.59-.42,9.9a34.07,34.07,0,0,0,.47,8.31,45.16,45.16,0,0,1,.68,9,20.61,20.61,0,0,1-2,8.49,22.45,22.45,0,0,1-5.46,7,42.06,42.06,0,0,1-8.71,5.61c-4.36,2.22-9.09,4.33-14,6.25s-10,3.66-15.17,5.15a139.71,139.71,0,0,1-15.72,3.55A96.52,96.52,0,0,1,439.61,479.64ZM371.78,438a66.2,66.2,0,0,0,16.61,16.59,87.27,87.27,0,0,0,37,14.42,112.08,112.08,0,0,0,14.25,1.16,87.77,87.77,0,0,0,14.11-1.2,129.37,129.37,0,0,0,14.64-3.32c4.86-1.4,9.69-3,14.34-4.86s9.08-3.79,13.2-5.89a31.65,31.65,0,0,0,6.74-4.29,13,13,0,0,0,3.21-4,11.25,11.25,0,0,0,1.09-4.65,36.46,36.46,0,0,0-.55-7,43.55,43.55,0,0,1-.59-10.53c.19-3.19.33-6.44.41-9.64.09-1.94.21-3.79.38-5.62.14-1.58.22-3.22.22-4.87-.16-3.15-.33-6.29-.53-9.4s-.39-6.5-.55-9.77a21.35,21.35,0,0,0-.29-2.9,23.72,23.72,0,0,0-3.05-.46c-4-.39-8.05-.69-12.05-.88-8.31-.41-16.66-.37-24.71-.06-4.13.16-8.35.4-12.54.71-1.23.09-2.42.14-3.54.14h-3.07c-1.89,0-3.79,0-5.71-.07h-.52c.09,1.23.15,2.45.17,3.65,0,2.78.08,5.48.12,8.13a54.48,54.48,0,0,0,.55,7.11,19.55,19.55,0,0,0,.74,3.18h24.35l2.31,8.06c.36,1.28.77,2.52,1.2,3.68,4.58,11.73.8,21.29-10.66,26.87a28.61,28.61,0,0,1-6.55,2.25,31.36,31.36,0,0,1-6.37.64,59.2,59.2,0,0,1-6-.39c-2.43-.25-4.93-.64-7.44-1.15a69.65,69.65,0,0,1-7.25-1.88,20.09,20.09,0,0,1-6.35-3.13c-2.14-1.65-4.3-3.46-6.36-5.36a49.6,49.6,0,0,1-5.86-6.39,35.28,35.28,0,0,1-4.45-7.65,32.75,32.75,0,0,1-2.34-9.08c-.32-3.34-.73-6.59-1.23-9.73-.54-3.36-.94-6.8-1.19-10.22v-.12a37.4,37.4,0,0,1,1.3-11.64q1.38-5.1,2.7-10.15c1.13-4.41,2.42-9.14,3.83-14a64.3,64.3,0,0,1,6.18-14.56A40.5,40.5,0,0,1,422,327.91a29.16,29.16,0,0,1,16.4-5.67h.27a46.61,46.61,0,0,1,8.73.81,26.33,26.33,0,0,1,8.31,3.1,23.48,23.48,0,0,1,6.65,5.89,24.14,24.14,0,0,1,4.15,9l.07.3a13.63,13.63,0,0,0,.49,1.93,23.67,23.67,0,0,1,.83,3.24c.32,1.6.83,2.31,3.12,2.4l.3,0c.63.06,1.24.09,1.81.09h4.22a13,13,0,0,0,1.46-.08l.25,0c3.35-.24,6.67-.52,9.88-.83s6.77-.61,10.12-.85a11.07,11.07,0,0,0,3.79-.8,10.36,10.36,0,0,0-.71-3.48,106.24,106.24,0,0,0-4.72-11.4,111.57,111.57,0,0,0-7.29-13,72.65,72.65,0,0,0-9-11.32,24.15,24.15,0,0,0-8.87-6.14,126.52,126.52,0,0,0-16.32-4.4,86,86,0,0,0-16.43-1.59,73.07,73.07,0,0,0-7.85.51c-3.13.35-6.39.8-9.69,1.35s-6.5,1.18-9.54,1.88a53.56,53.56,0,0,0-7.25,2.09l-.1,0a44,44,0,0,0-10.46,5.33,58.78,58.78,0,0,0-8.81,7.53,69.94,69.94,0,0,0-7.46,9.21c-2.34,3.42-4.59,7-6.7,10.57s-4.13,7.47-5.87,11.22a40.4,40.4,0,0,0-3.28,11.27q-1.1,7.71-2.29,15.92c-.78,5.3-1.31,10.64-1.59,15.89a101.21,101.21,0,0,0,.35,15.31A48,48,0,0,0,362.4,417q2.31,5.58,4.54,11.14A79.16,79.16,0,0,0,371.78,438Zm134-55.69Z" transform="translate(-99.94 -110.82)"/><path class="cls-5" d="M153.1,613.55q-.6,6.51-1.39,12.65a115.62,115.62,0,0,0-.9,12.29A122.3,122.3,0,0,0,151,651.2q.42,6.33.9,12.71a9.73,9.73,0,0,1-.54,4.88c-.52,1-1.59,1.51-3.19,1.51a13.8,13.8,0,0,1-2.77-.36,47.78,47.78,0,0,0-10.12-1.09,60.65,60.65,0,0,0-11.27,1q-5.48,1-11.14,2.35a6.89,6.89,0,0,1-1.57.24q-.72,0-1.44-.06c-.49,0-1-.06-1.45-.06a10.75,10.75,0,0,1-1.09-6.75q.61-3.26,1.09-6.39c.08-.8.12-2.42.12-4.87s0-5.37-.06-8.74-.12-7-.24-11-.22-7.81-.3-11.63-.16-7.39-.24-10.72-.12-6.09-.12-8.26q-.12-15.42-.73-30.54T105.63,543q-.24-6.15-.6-12.35t-.37-12.35c.08-3.45.26-6.91.55-10.36s.62-6.91,1-10.36a10.62,10.62,0,0,1,1.39-4.58c.6-.8,1.74-1.21,3.43-1.21.48,0,1,0,1.57.06s1.16.1,1.8.18a59.19,59.19,0,0,0,6.51.37h2.17a17.67,17.67,0,0,0,2.17-.13q6.38-.48,12.65-1.08l12.65-1.2c1.85-.08,3.65-.14,5.42-.19s3.57-.06,5.42-.06q12.78,1.1,25.36,2.47a131.09,131.09,0,0,1,24.88,5.25q18.07,5.77,27.29,18.67t8.26,32.41A113.07,113.07,0,0,1,246,561.14q-1,6.27-2.41,12.53a29.38,29.38,0,0,1-6.32,12.77,70.37,70.37,0,0,1-26,18.74,56.93,56.93,0,0,1-17.77,3.91q-9.77.74-19.64,1.93ZM149.6,579a12.15,12.15,0,0,0,1.39.18c.52.05,1.1.06,1.75.06,1.6,0,3.33-.06,5.18-.18s3.41-.18,4.7-.18h1a19.2,19.2,0,0,0,2.11.12h2.11c1.12,0,2.21,0,3.25-.12s2.13-.2,3.25-.36l3.74-.9c1.85-.44,3.81-1,5.9-1.51s4-1.12,5.85-1.69a21.72,21.72,0,0,0,3.55-1.32,20,20,0,0,0,4.94-4.64,22.17,22.17,0,0,0,3.19-5.84,19.71,19.71,0,0,0,1.21-6.51,19.46,19.46,0,0,0-1-6.62,56,56,0,0,0-2.53-6.33c-1-2-2-4.12-3.13-6.21a15.51,15.51,0,0,0-4.64-5.72,17.34,17.34,0,0,0-6.56-3.07c-2.82-.64-5.59-1.15-8.32-1.51a63.5,63.5,0,0,0-8.31-.54,45.66,45.66,0,0,0-8.68.84,39,39,0,0,0-8.79,2.9q-.24,9-.54,18.13t-.55,18.13c0,.48-.06,1.31-.18,2.47s-.22,2.43-.3,3.8-.1,2.67-.06,3.91A6.12,6.12,0,0,0,149.6,579Z" transform="translate(-99.94 -110.82)"/><path d="M111.29,677.19c-.59,0-1.2,0-1.83-.07-.36,0-.71,0-1.06,0h-3l-1.29-2.67a15.43,15.43,0,0,1-1.47-9.66c.38-2.06.73-4.11,1-6.1,0-.41.08-1.51.08-4.3q0-3.66-.05-8.68c0-3.4-.13-7.06-.24-10.88s-.23-7.84-.31-11.67-.16-7.38-.24-10.71-.12-6.14-.12-8.37c-.08-10.15-.32-20.38-.72-30.35s-.8-20.26-1.2-30.55c-.17-4.13-.37-8.25-.6-12.26-.25-4.21-.37-8.45-.37-12.62v-.11c.08-3.53.27-7.11.56-10.64s.63-7.05,1-10.52v-.12c.45-3.16,1.16-5.24,2.28-6.75S107,487,111.05,487c.58,0,1.22,0,1.9.07s1.32.12,2,.2a52.9,52.9,0,0,0,5.93.33h2.17a14.88,14.88,0,0,0,1.64-.09l.17,0c4.21-.31,8.43-.68,12.55-1.07l12.66-1.21.25,0c1.87-.08,3.71-.14,5.51-.18s3.65-.06,5.53-.06l.4,0c8.46.71,17,1.55,25.48,2.48a135.87,135.87,0,0,1,25.78,5.43c13,4.16,23,11,29.72,20.43s9.82,21.35,9.13,35.39a115.9,115.9,0,0,1-1.26,13.14c-.66,4.29-1.49,8.62-2.47,12.87a34.39,34.39,0,0,1-7.34,14.78,74.87,74.87,0,0,1-27.86,20,61.83,61.83,0,0,1-19.23,4.25c-6.33.47-12.87,1.11-19.37,1.9l-17,2.07c-.31,3.08-.66,6.1-1,9a111.11,111.11,0,0,0-.87,11.78,122.73,122.73,0,0,0,.17,12.31q.42,6.3.91,12.67c.23,3.23-.11,5.58-1.07,7.41-.79,1.52-2.79,4-7.38,4a18.45,18.45,0,0,1-3.76-.46,50,50,0,0,0-19.53,0c-3.57.67-7.25,1.44-10.93,2.31A11.16,11.16,0,0,1,111.29,677.19Zm-1.9-158.89c0,4,.12,8,.35,12s.44,8.25.61,12.44q.6,15.43,1.2,30.54c.41,10.08.65,20.4.73,30.7,0,2.18,0,4.92.12,8.17s.16,6.92.24,10.74.18,7.66.3,11.58.2,7.6.24,11,.07,6.33.07,8.8c0,3.48-.09,4.71-.15,5.34l0,.25c-.33,2.13-.7,4.33-1.11,6.53a4.79,4.79,0,0,0-.07,1.14c3.83-.89,7.59-1.69,11.25-2.37a59.43,59.43,0,0,1,23.24.09l.85.16c0-.33,0-.74,0-1.23q-.48-6.37-.9-12.73a123.7,123.7,0,0,1-.19-13.21A117.25,117.25,0,0,1,147,625.6c.51-4,1-8.2,1.36-12.48l.36-3.8,24.5-3c6.65-.81,13.33-1.46,19.86-2a52.38,52.38,0,0,0,16.36-3.59,65.43,65.43,0,0,0,24.2-17.42A24.55,24.55,0,0,0,239,572.61c.93-4,1.72-8.13,2.34-12.19a105.83,105.83,0,0,0,1.15-12.11c.59-11.91-1.89-21.81-7.37-29.48s-13.88-13.4-24.89-16.92a126.56,126.56,0,0,0-24-5.05c-8.31-.91-16.73-1.73-25-2.44-1.74,0-3.45,0-5.11.06s-3.43.1-5.21.17l-12.52,1.19c-4.16.41-8.42.77-12.67,1.09a25,25,0,0,1-2.6.14h-2.17a63.7,63.7,0,0,1-7-.39c-.61-.08-1.14-.13-1.63-.16s-.71,0-1,0a14,14,0,0,0-.31,1.66c-.39,3.35-.73,6.76-1,10.14S109.47,515,109.39,518.3Zm43.35,65.64c-.79,0-1.49,0-2.12-.07a16.7,16.7,0,0,1-2-.27l-2.1-.42-1.06-1.85a10.38,10.38,0,0,1-1.17-4.92c-.05-1.37,0-2.83.07-4.34s.18-2.75.31-4,.16-1.87.16-2V566q.24-9.06.54-18.17t.55-18.1l.07-2.94,2.68-1.23a43.69,43.69,0,0,1,9.86-3.23,57.32,57.32,0,0,1,18.51-.35c2.86.38,5.8.91,8.75,1.58a22.21,22.21,0,0,1,8.36,3.91,20.31,20.31,0,0,1,6,7.34c1.15,2.14,2.22,4.28,3.2,6.35a62.53,62.53,0,0,1,2.74,6.84,24.68,24.68,0,0,1-.23,16.25,27.2,27.2,0,0,1-3.86,7.07A24.94,24.94,0,0,1,196,577l-.27.17a22.38,22.38,0,0,1-4.5,1.74c-1.85.57-3.88,1.16-6,1.73s-4.19,1.1-6,1.54l-3.69.9-.47.09c-1.22.17-2.42.31-3.57.39s-2.37.14-3.61.14h-2.11c-.77,0-1.56,0-2.36-.12h-.71c-1.18,0-2.65,0-4.4.17C156.29,583.88,154.45,583.94,152.74,583.94Zm1.13-7Zm.46-10.84c0,.66-.07,1.58-.21,2.89-.11,1.11-.21,2.32-.28,3.58,0,.64-.06,1.26-.07,1.86,1.21,0,2.5-.07,3.84-.16,2-.13,3.61-.19,5-.19l1.49,0a14.35,14.35,0,0,0,1.58.09h2.11c1,0,2,0,2.89-.11s1.78-.16,2.71-.29l3.54-.86c1.76-.42,3.7-.91,5.77-1.47s3.94-1.1,5.67-1.64a24.75,24.75,0,0,0,2.55-.88,15.52,15.52,0,0,0,3.58-3.42A17.66,17.66,0,0,0,197,561a15.4,15.4,0,0,0,.91-5,15,15,0,0,0-.78-5,53.27,53.27,0,0,0-2.32-5.81c-.92-1.94-1.93-4-3-6l-.09-.18a10.79,10.79,0,0,0-3.24-4,12.55,12.55,0,0,0-4.79-2.24c-2.64-.6-5.29-1.08-7.86-1.42a47.9,47.9,0,0,0-15.47.25,32.67,32.67,0,0,0-5,1.44q-.21,7.53-.46,15.1Q154.57,557.16,154.33,566.15Z" transform="translate(-99.94 -110.82)"/><path class="cls-5" d="M277,668.73q-1.45-3-2.53-5.18c-.73-1.44-1.41-2.85-2.05-4.21q.24-3.26.72-6.63a32.73,32.73,0,0,0,.24-6.87,169.62,169.62,0,0,1-.3-19.64q.42-9.75,1.27-19.64a126.52,126.52,0,0,0,.3-15.06c-.2-5-.23-10-.06-15.06q.24-14.21-.61-28.19t-2.17-28.07a111.8,111.8,0,0,1-.42-15.06q.3-7.47.3-15.18a15.25,15.25,0,0,1,3.92-1.09,29.71,29.71,0,0,1,3.8-.24,45.4,45.4,0,0,1,5.72.36,44.34,44.34,0,0,0,5.6.36H292a20.14,20.14,0,0,1,2.23-.12h2.34q3.14,0,6.33.12t6.33.12H311a14.3,14.3,0,0,0,1.75-.12h1.08c2.33,0,3.78.48,4.34,1.45s.72,2.81.48,5.54a25.6,25.6,0,0,0,.55,7.23q.78,3.61,1.26,7.23.6,4,1.21,8t.84,7.95q.6,10.73,1,21.27t.48,21.14q0,7.95-.54,15.85t-1,15.84q-.24,5.43-.72,10.78c-.33,3.58-.53,7.17-.61,10.79q-.24,8.19-.12,16.2t0,16.21c0,.88,0,1.79.06,2.71a12.2,12.2,0,0,1-.18,2.71q-.6,4.94-2.47,6.69t-6.93,1.74q-3.62.12-7.22.12H277Z" transform="translate(-99.94 -110.82)"/><path d="M304.19,673.46H274l-1.28-2.68c-.95-2-1.79-3.69-2.5-5.11s-1.44-2.92-2.1-4.32l-.53-1.13.1-1.23c.16-2.27.42-4.61.75-7a28.66,28.66,0,0,0,.21-5.87,174.34,174.34,0,0,1-.31-20.17c.28-6.55.71-13.22,1.28-19.84a122.8,122.8,0,0,0,.29-14.47c-.21-5.08-.23-10.26-.07-15.4.16-9.23,0-18.6-.59-27.76s-1.29-18.62-2.16-27.91a116.25,116.25,0,0,1-.44-15.69c.2-4.92.3-10,.3-15v-3.17l2.93-1.2a20,20,0,0,1,5.1-1.4,42.35,42.35,0,0,1,10.73.11,38.51,38.51,0,0,0,5,.33h1.08c.82-.08,1.65-.12,2.48-.12h2.34c2.12,0,4.3,0,6.51.12,2,.08,4.11.12,6.15.12H311a10.6,10.6,0,0,0,1.16-.08l.59,0h1.08c4.12,0,6.95,1.27,8.42,3.79,1.11,1.9,1.45,4.47,1.11,8.34a21.48,21.48,0,0,0,.45,5.81c.55,2.52,1,5.08,1.33,7.6l1.2,7.87c.42,2.78.72,5.59.88,8.38.41,7.21.74,14.4,1,21.39s.41,14.14.49,21.25c0,5.44-.19,10.88-.55,16.22s-.71,10.52-1,15.81c-.16,3.59-.4,7.28-.73,10.92-.31,3.46-.51,7-.58,10.46-.16,5.39-.2,10.77-.12,16s.08,10.86,0,16.35c0,.74,0,1.58,0,2.42a16.84,16.84,0,0,1-.22,3.63c-.56,4.4-1.84,7.49-3.92,9.44s-5.46,3-10.07,3C309.1,673.42,306.64,673.46,304.19,673.46ZM279.92,664h24.27c2.37,0,4.75,0,7.07-.12h.15a9.16,9.16,0,0,0,3.72-.5,9.5,9.5,0,0,0,1-3.78l0-.27a7.11,7.11,0,0,0,.11-1.67c0-1-.06-2-.06-2.91.08-5.46.08-10.87,0-16.14s0-10.92.12-16.41c.08-3.66.29-7.39.62-11.07.31-3.49.55-7,.71-10.57.32-5.39.67-10.68,1-16,.35-5.12.53-10.35.53-15.52-.08-7-.24-14.06-.48-21s-.56-14-1-21.16c-.15-2.48-.42-5-.8-7.51l-1.2-8q-.48-3.54-1.21-6.94a30.43,30.43,0,0,1-.64-8.55c.07-.83.1-1.47.09-1.94h-1a18.48,18.48,0,0,1-2,.12h-1.74c-2.16,0-4.35,0-6.51-.13s-4.15-.11-6.15-.11h-2.34a16.23,16.23,0,0,0-1.72.09l-.51,0h-1.33a50,50,0,0,1-6.2-.4,33.52,33.52,0,0,0-8.13-.15c0,4-.13,7.92-.29,11.8a107.3,107.3,0,0,0,.41,14.42c.88,9.4,1.62,18.9,2.18,28.23s.77,19,.61,28.56c-.16,5-.14,9.94.06,14.79a134,134,0,0,1-.31,15.63c-.56,6.51-1,13-1.26,19.47a167,167,0,0,0,.29,19.09,37.47,37.47,0,0,1-.27,7.87c-.25,1.71-.44,3.42-.59,5.08.47,1,.95,2,1.46,3Zm34-171.17Z" transform="translate(-99.94 -110.82)"/><path class="cls-5" d="M408.64,493.31q4.71,0,9.4.06c3.13,0,6.27.06,9.4.06h6.08q3,0,6-.12a51.82,51.82,0,0,1,5.6.24,8,8,0,0,1,3.49,1.14,7.61,7.61,0,0,1,2.41,2.72,36.36,36.36,0,0,1,2.23,4.94q3.86,10.35,8.14,20.42t8.13,20.42q3.13,8.55,5.66,17.17t5.42,17.29a46.58,46.58,0,0,0,2.35,6.08c.92,2,1.79,4,2.59,6q4.82,12.16,9.46,24.15t9.46,24q1.68,4.58,3.49,9t3.86,8.79A25.23,25.23,0,0,1,514,663a15.62,15.62,0,0,1-1.21,7.89q-.72.24-1.56.48a6.65,6.65,0,0,1-1.81.24q-7.71-.24-15.36-.66c-5.1-.28-10.23-.54-15.36-.78H476.3a11.94,11.94,0,0,1-2.35-.24,15,15,0,0,1-5.55-2.11c-1.52-1-2.49-2.79-2.89-5.36-.64-3.05-1.32-6.07-2.05-9s-1.52-5.94-2.41-8.91a13.43,13.43,0,0,0-3-6q-1.8-1.74-5.54-1.74a10.07,10.07,0,0,0-1.81.12q-7.71.6-15.3,1.68t-15.3,1.69c-1.13.08-2.25.14-3.37.18s-2.25.06-3.38.06c-1.85,0-3.69,0-5.54-.06s-3.73-.06-5.66-.06q-2.06,5.79-4.22,11.57t-4,11.92a9.42,9.42,0,0,1-2.23,4,6.3,6.3,0,0,1-4.16,1.45c-1.53.16-3.05.34-4.58.54s-3.05.34-4.58.42q-12.28,1-24.58,1.45a13.22,13.22,0,0,1-3.07-.37c-1-.24-2-.52-2.95-.84-3-1-4-3-3-6q1-3.13,1.81-6.33a53.54,53.54,0,0,1,2-6.2q4.1-11.09,8.32-22t8.43-22.05q3.86-9.89,7.65-19.76t7.53-19.88q4.21-11.32,8.13-22.47t8.14-22.47q2.76-7.59,5.78-15T408.64,493.31Zm8.68,108.92,13.49.72q6.75.36,14.1.72-3.86-12.64-7.53-24.52T430,554.88a178.9,178.9,0,0,0-9,25.48A101.78,101.78,0,0,0,417.32,602.23Z" transform="translate(-99.94 -110.82)"/><path d="M353.92,676.47h-.1a18.22,18.22,0,0,1-4.17-.49c-1.11-.27-2.23-.59-3.34-1-5.43-1.91-7.76-6.6-6-12,.6-1.95,1.19-4,1.74-6.08a59.47,59.47,0,0,1,2.2-6.69c2.72-7.36,5.52-14.78,8.32-22s5.61-14.65,8.42-22q3.88-9.93,7.66-19.77c2.48-6.46,5-13.13,7.52-19.84,2.77-7.46,5.5-15,8.1-22.39s5.35-15,8.16-22.55c1.85-5.06,3.81-10.16,5.83-15.13s4-9.92,6-15l1.19-3h3.2q4.74,0,9.46.06c3.12.05,6.23.06,9.34.06h6.08c1.92,0,3.86,0,5.78-.11h.19a53.84,53.84,0,0,1,6.14.28,12.44,12.44,0,0,1,5.53,1.88,12.15,12.15,0,0,1,3.94,4.34,40.7,40.7,0,0,1,2.53,5.57c2.55,6.86,5.26,13.66,8.07,20.27s5.63,13.68,8.22,20.62c2.12,5.81,4.06,11.68,5.76,17.49s3.48,11.42,5.38,17.12l0,.11a40.53,40.53,0,0,0,2.11,5.46c1,2.06,1.87,4.15,2.7,6.22,3.26,8.25,6.45,16.39,9.48,24.21s6.22,16,9.44,24l0,.13c1.1,3,2.26,6,3.44,8.89s2.43,5.77,3.75,8.55a29.75,29.75,0,0,1,2.58,8.7,20.37,20.37,0,0,1-1.5,10.26l-.82,2-2.08.7-1.74.53a11.19,11.19,0,0,1-3.12.43h-.15c-5.21-.17-10.41-.39-15.47-.67s-10.13-.54-15.22-.78H476.3a16.82,16.82,0,0,1-3.28-.33,19.54,19.54,0,0,1-7.21-2.79c-2.65-1.74-4.31-4.59-4.94-8.45-.64-3-1.31-5.94-2-8.78s-1.49-5.8-2.34-8.69-1.62-3.77-1.77-3.91a4,4,0,0,0-2.26-.42,7.32,7.32,0,0,0-.93,0l-.51.07c-5,.39-10.09,1-15,1.65-5.13.73-10.38,1.31-15.6,1.72-1.22.09-2.4.15-3.58.19-3.05.11-6.12.07-9.18,0l-2.24,0c-1,2.86-2.07,5.7-3.11,8.48-1.4,3.73-2.7,7.63-3.87,11.6l0,.1A13.81,13.81,0,0,1,395,671.3a10.7,10.7,0,0,1-7.06,2.75q-2.16.23-4.32.51c-1.64.22-3.28.37-4.89.45-8.21.65-16.52,1.14-24.7,1.46ZM349.26,666l.11,0c.77.26,1.63.5,2.48.71a8.57,8.57,0,0,0,1.89.23c8.05-.32,16.22-.8,24.29-1.43h.12c1.39-.07,2.81-.2,4.22-.39s3.13-.39,4.7-.55l.28,0a3.34,3.34,0,0,0,1.15-.2,5.12,5.12,0,0,0,.93-1.89c1.23-4.17,2.59-8.28,4.07-12.2,1.4-3.75,2.81-7.62,4.18-11.49l1.12-3.14h3.34q2.94,0,5.76.06c2.89.06,5.76.1,8.64,0,1.08,0,2.15-.1,3.22-.17,5-.39,10-1,15-1.66s10.22-1.29,15.38-1.7a16.06,16.06,0,0,1,2.4-.15c3.75,0,6.71,1,8.83,3.08,1.82,1.76,3.22,4.4,4.27,8.06.89,3,1.72,6.07,2.46,9.09s1.42,6.06,2.08,9.18l0,.25c.21,1.32.57,2,.82,2.14a10.28,10.28,0,0,0,3.81,1.41,7.66,7.66,0,0,0,1.49.16h2.57q7.72.36,15.4.78c4.84.27,9.81.49,14.8.65a9.46,9.46,0,0,0,.19-3.27,20.48,20.48,0,0,0-1.76-5.9c-1.39-2.93-2.72-6-4-9s-2.4-6.06-3.52-9.12c-3.22-8-6.4-16.13-9.46-24s-6.19-15.92-9.44-24.12c-.76-1.89-1.59-3.82-2.48-5.7a51.92,51.92,0,0,1-2.57-6.65c-1.93-5.79-3.76-11.64-5.45-17.4s-3.52-11.29-5.57-16.88c-2.52-6.78-5.23-13.58-8-20.2s-5.63-13.67-8.22-20.62a32.26,32.26,0,0,0-1.91-4.26,3,3,0,0,0-.88-1.08,3.35,3.35,0,0,0-1.45-.41c-1.2-.13-2.88-.2-5-.21s-4.05.12-6.06.12h-6.08c-3.15,0-6.31,0-9.46-.06l-6.13,0q-2.43,6.09-4.85,12c-2,4.86-3.91,9.86-5.72,14.84-2.8,7.52-5.53,15.05-8.12,22.42s-5.36,15-8.16,22.55c-2.52,6.74-5.06,13.44-7.55,19.92s-5.08,13.19-7.66,19.79q-4.2,11-8.42,22c-2.79,7.25-5.58,14.65-8.29,22l-.05.12a49.34,49.34,0,0,0-1.87,5.66c-.57,2.17-1.2,4.36-1.86,6.51C349.29,666,349.27,666,349.26,666Zm102.13-57.32-6.71-.33q-7.37-.36-14.12-.72l-18.14-1,.18-4.66a106.85,106.85,0,0,1,3.83-22.9A185.36,185.36,0,0,1,425.64,553l5.14-11.82,3.71,12.34c2.47,8.21,5,16.37,7.4,24.25s5,16.09,7.54,24.53Zm-29-11,8.68.46,7.35.39q-2.82-9.25-5.55-18.07-1.74-5.58-3.49-11.32-2.2,6.25-3.82,12.34A110.91,110.91,0,0,0,422.39,597.77Z" transform="translate(-99.94 -110.82)"/><path class="cls-5" d="M574.43,524q.24,9.16.6,18.08t.72,18.31h33.14q11.93,0,24,.24a23.19,23.19,0,0,1,2.9.24,18.49,18.49,0,0,1,3.55.84,12,12,0,0,1,3.07,1.57,3.31,3.31,0,0,1,1.45,2.53q.12,3.13.54,6.27c.28,2.09.54,4.17.78,6.26s.38,4.2.42,6.33a26.8,26.8,0,0,1-.66,6.44,10.09,10.09,0,0,1-2.11,4.64,6.1,6.1,0,0,1-4.15,1.75c-3.54.24-7,.4-10.43.48s-6.88.2-10.42.36q-4.81.24-9.51.42t-9.52.18H597c-3.37,0-6.73-.12-10.06-.36l-10.42-.72c-.32,3.29-.59,6.53-.78,9.7s-.51,6.32-.91,9.46q-1,9-1.75,18.07a60.84,60.84,0,0,0,1.15,18.07,3.83,3.83,0,0,1,.18,1.51q-.06.78-.06,1.62c0,2.74-.06,4.8-.18,6.21a5.11,5.11,0,0,1-1.21,3.19,5.57,5.57,0,0,1-3.25,1.45c-1.49.24-3.55.56-6.21,1a35.6,35.6,0,0,1-4.09.48c-1.37.08-2.73.12-4.1.12a106.33,106.33,0,0,1-12.89-.78,109.24,109.24,0,0,0-13.25-.78h-1.21q-.12-3.25-.18-6.09c0-1.88-.06-3.75-.06-5.6q-.24-10.49-.42-20.84t-.42-21q-.12-3.85-.3-7.71a70.83,70.83,0,0,1,.06-7.71q.6-15.06,1.44-29.94t1.09-29.94a151.32,151.32,0,0,0-.79-17.71q-.9-8.79-1.5-17.71c-.08-1.69-.1-3.38-.06-5.06s0-3.38-.06-5.06q-.24-3.13,1.32-4.22a8.22,8.22,0,0,1,4.34-1.2q16-.24,31.75-.55t31.63-.3h6.38q9.76.12,19.28,1T640.7,489a6.11,6.11,0,0,0,1.2.12h1.21q1,0,2-.06c.73,0,1.49-.06,2.29-.06a16.73,16.73,0,0,1,2.77,8.07,52.74,52.74,0,0,1-.18,8.32q-.42,4.22-.72,8.49a22.07,22.07,0,0,0,1.15,8.62q-8.33-.24-16.15-.49t-15.66-.24h-2.89c-1,0-2,0-3,.12q-9.27.25-18.61.91T574.43,524Z" transform="translate(-99.94 -110.82)"/><path d="M555.27,673.46a111.47,111.47,0,0,1-13.47-.82,103.84,103.84,0,0,0-12.67-.75h-5.76l-.17-4.55c-.08-2.19-.14-4.25-.18-6.16s-.06-3.78-.06-5.65q-.24-10.46-.42-20.81t-.43-20.94c-.07-2.5-.17-5-.29-7.6a74.19,74.19,0,0,1,.06-8.17c.4-10,.89-20.08,1.45-30s.91-19.82,1.07-29.75a148.31,148.31,0,0,0-.76-17.15c-.6-5.91-1.11-11.93-1.52-17.87-.09-1.89-.11-3.71-.07-5.5,0-1.53,0-3.1,0-4.66-.34-4.77,1.63-7.19,3.36-8.39a12.75,12.75,0,0,1,6.81-2h.14c10.52-.16,21.19-.34,31.73-.54s21.19-.3,31.72-.3h6.38c6.65.08,13.25.41,19.69,1,6.27.56,12.72,1,19.16,1.44l.64.08a1.24,1.24,0,0,0,.27,0h1.21q.82,0,1.77-.06c.83,0,1.69-.06,2.56-.06H650l1.39,2.18a21.61,21.61,0,0,1,3.5,10.33,58.52,58.52,0,0,1-.19,9.06c-.28,2.74-.52,5.55-.72,8.36a17.32,17.32,0,0,0,.92,6.79l2.14,6.41-6.76-.19-16.16-.48c-5.17-.16-10.39-.24-15.51-.24h-2.89c-.83,0-1.72,0-2.66.11h-.23c-6.09.16-12.28.46-18.41.89-4.83.34-9.92.68-15.18,1,.14,4.5.29,9,.47,13.44s.37,9.09.55,13.77h28.59c7.89,0,16,.09,24.07.25h0a27.06,27.06,0,0,1,3.41.28,22.89,22.89,0,0,1,4.47,1.06,16.22,16.22,0,0,1,4.31,2.21,8.09,8.09,0,0,1,3.38,6v.19c.07,1.92.24,3.87.5,5.81.29,2.12.55,4.24.8,6.36s.4,4.49.45,6.78a31.54,31.54,0,0,1-.78,7.56,14.6,14.6,0,0,1-3.24,6.81,10.71,10.71,0,0,1-7.23,3.26c-3.7.25-7.28.41-10.72.49s-6.84.2-10.31.36c-3.21.16-6.4.3-9.55.42s-6.45.19-9.7.19H597c-3.48,0-7-.13-10.4-.37-1.89-.14-3.81-.28-5.79-.41-.14,1.68-.26,3.34-.36,5-.21,3.28-.52,6.56-.93,9.76-.63,5.84-1.21,11.89-1.73,17.89a56.46,56.46,0,0,0,1,16.47,8.69,8.69,0,0,1,.31,3c0,.42-.05.84-.05,1.27,0,2.89-.06,5-.19,6.61a9.75,9.75,0,0,1-2.48,6,10.12,10.12,0,0,1-5.93,2.87l-6.2,1a40.39,40.39,0,0,1-4.59.54C558.21,673.42,556.74,673.46,555.27,673.46Zm-22.77-11c3.57.1,7.08.36,10.46.77a100.46,100.46,0,0,0,12.31.75c1.28,0,2.57,0,3.82-.11a31.19,31.19,0,0,0,3.55-.42l.12,0q3.94-.6,6.15-1a3,3,0,0,0,.48-.1c0-.07,0-.17,0-.28.11-1.26.16-3.22.16-5.8,0-.62,0-1.23.07-1.81l-.08-.33a65.84,65.84,0,0,1-1.23-19.47c.52-6.06,1.11-12.17,1.75-18.17.4-3.1.69-6.19.89-9.25s.47-6.51.8-9.86l.44-4.56,4.57.3,10.45.73c3.2.23,6.47.35,9.72.35h1.81c3.13,0,6.27-.06,9.33-.18s6.27-.26,9.46-.42c3.57-.16,7.11-.28,10.55-.36s6.74-.24,10.22-.48a2.24,2.24,0,0,0,1-.25,6,6,0,0,0,1-2.48,22.74,22.74,0,0,0,.54-5.29c0-2-.17-4-.39-5.87-.24-2.07-.5-4.12-.77-6.18s-.45-4-.55-5.91a8.05,8.05,0,0,0-1.38-.62,14,14,0,0,0-2.63-.63,19.45,19.45,0,0,0-2.27-.2c-8.1-.16-16.14-.24-24-.24H571.21L571,560.6q-.36-9.39-.72-18.3c-.24-6-.44-12.09-.6-18.14l-.12-4.58,4.57-.27c6.84-.39,13.44-.82,19.63-1.26s12.53-.74,18.71-.91c1.14-.08,2.23-.12,3.26-.12h2.89c5.22,0,10.54.08,15.81.24l10.17.31a24.9,24.9,0,0,1,0-4.05c.2-2.9.45-5.81.73-8.64a49.18,49.18,0,0,0,.17-7.56,10.81,10.81,0,0,0-.84-3.53l-1.55,0H641.9a10.69,10.69,0,0,1-1.78-.15c-6.43-.4-12.86-.88-19.12-1.44s-12.57-.86-18.92-.94h-6.32c-10.47,0-21.08.1-31.54.3s-21.19.38-31.69.54a6.38,6.38,0,0,0-1.11.13,1.41,1.41,0,0,0,0,.2v.15c.08,1.8.1,3.61.06,5.39,0,1.56,0,3.15.06,4.72.39,5.75.89,11.65,1.48,17.46a158.2,158.2,0,0,1,.81,18.25c-.16,10.07-.53,20.21-1.09,30.15s-1,19.89-1.44,29.86v.11a63.83,63.83,0,0,0,0,7.19q.18,3.9.3,7.78.24,10.68.42,21t.43,20.82v.11c0,1.81,0,3.65.06,5.5C532.48,661.47,532.49,662,532.5,662.49Z" transform="translate(-99.94 -110.82)"/><path class="cls-5" d="M157.56,869.78c-1,0-1.93,0-2.89.12s-1.89.12-2.78.12a16.09,16.09,0,0,1-3.37-.36,64.25,64.25,0,0,0-9.46-1.68,93.6,93.6,0,0,0-9.7-.49c-1.28,0-2.53,0-3.73.06s-2.45.1-3.74.18q-3.86,0-5.78-1.68c-1.29-1.13-2-3-2-5.67q-.36-9.51-.72-18.91t-.24-18.92q.12-10.11.72-20.06t.6-20.18q0-11.68-.48-23.13t-.72-23.13q-.12-7,.18-13.86t.54-13.86c0-1-.14-2.69-.42-5.18a36.42,36.42,0,0,1-.06-7.53,17.07,17.07,0,0,1,2-6.74q1.62-3,5.72-3a2,2,0,0,1,.84.13,40,40,0,0,1,7.72-1.63,70.86,70.86,0,0,1,7.71-.42,105.18,105.18,0,0,1,13.79.9q6.81.9,13.68,1.51a26,26,0,0,1,4.82.72,5.54,5.54,0,0,1,2.59,1.45,6.37,6.37,0,0,1,1.38,2.77c.32,1.2.64,2.81,1,4.82q.84,4.33,2,8.61t2.47,8.62q2.65,8.79,5.12,17.65t5.49,17.53q3.24,9.51,7,18.73t7.35,18.62q1.81,4.82,3.62,9.64t3.85,10.12q2.41-6.87,4.94-13.38t4.58-13.13q3.13-10.84,5.85-21.63t5.48-21.74a49.21,49.21,0,0,1,1.44-4.76c.56-1.57,1.09-3.16,1.57-4.76q2.4-8.19,4.82-16.27t4.46-16.38a8,8,0,0,1,1.8-4,6.57,6.57,0,0,1,4.1-1.45q3.74-.24,7.41-.36t7.41-.12q7.47,0,14.76.24c4.86.17,9.74.24,14.64.24h3.31c1.09,0,2.19,0,3.31-.12a5.49,5.49,0,0,1,4,1.21,6.17,6.17,0,0,1,1.45,3.85q.36,8.57.72,17t.6,17q.24,18.43-.36,36.87a40.2,40.2,0,0,1-.6,6.93,32.12,32.12,0,0,0-.48,6.92q.24,9.28.6,18.5t.6,18.61q.12,4.23-.18,8.44t-.54,8.43q-.24,6.27-.24,12.41t-.24,12.41c0,1.29-.05,2.57-.13,3.86s-.2,2.61-.36,4q-1.08.24-2,.48a6.88,6.88,0,0,1-1.75.24h-.24q-3.86-.36-7.53-.6t-7.53-.24q-4.59,0-9.28.42a67.47,67.47,0,0,0-9.28,1.51,6.71,6.71,0,0,1-4.88-1.81,7.26,7.26,0,0,1-2.11-4.82q-.36-4.45-.78-8.91a43.1,43.1,0,0,1,.06-8.8,80.21,80.21,0,0,0,.42-12.71q-.3-6.21-.9-12.71-1-10.6-1.33-21.21t-1-21.2a4.06,4.06,0,0,0-.24-1.21c-.16-.48-.4-1.28-.72-2.41q-2.3,6.15-4.52,11.27a51.87,51.87,0,0,0-3.31,10.42,62.46,62.46,0,0,1-2.23,8c-.93,2.61-1.93,5.18-3,7.72S242,813,240.87,815.5s-2.11,5.09-3.07,7.66q-3.5,9.27-6.87,18.37T224.42,860a7.8,7.8,0,0,0-.36,3.62,38.81,38.81,0,0,1,.24,4.7h-9.39c-2.33-.08-4.66-.17-7-.24s-4.66-.17-7-.24a30.07,30.07,0,0,1-4.4-.49,6.37,6.37,0,0,1-2.83-1.26,7.72,7.72,0,0,1-1.87-2.47,23.45,23.45,0,0,1-1.5-4.22q-5.55-19.27-11.57-38.13a356.29,356.29,0,0,0-14.22-37.17c-.72-1.61-1.42-3.23-2.1-4.88a20.42,20.42,0,0,0-3-4.88c0,1,0,1.91-.06,2.83a22.4,22.4,0,0,0,.06,2.83,150.15,150.15,0,0,1,.06,23.8q-.9,11.74-1.86,23.67-.48,7-.79,13.86t-.42,13.73a45.43,45.43,0,0,0,.3,7C157.05,864.4,157.32,867,157.56,869.78Z" transform="translate(-99.94 -110.82)"/><path d="M151.89,874.75a20.78,20.78,0,0,1-4.36-.47l-.18,0a59,59,0,0,0-8.76-1.56,90.12,90.12,0,0,0-9.23-.46q-1.85,0-3.57.06c-1.16,0-2.36.09-3.6.17h-.3c-3.73,0-6.73-1-8.89-2.86-2.31-2-3.54-5.07-3.66-9.07l-.72-18.88c-.25-6.32-.33-12.76-.25-19.16.08-6.78.33-13.61.73-20.28s.6-13.21.6-19.9c0-7.65-.16-15.37-.48-22.93s-.56-15.43-.73-23.24c-.08-4.74,0-9.5.19-14.16s.38-9.1.54-13.72c0-.49-.07-1.7-.4-4.58a40.9,40.9,0,0,1-.06-8.5,22,22,0,0,1,2.55-8.58c1.92-3.48,5.42-5.4,9.86-5.4h.51a46.85,46.85,0,0,1,7.53-1.49,75.93,75.93,0,0,1,8.23-.45,109.33,109.33,0,0,1,14.41,1c4.45.59,9,1.09,13.47,1.48a30.38,30.38,0,0,1,5.7.88,10.36,10.36,0,0,1,4.74,2.76,11.19,11.19,0,0,1,2.51,4.78c.36,1.37.7,3.08,1,5.22.53,2.75,1.17,5.51,1.9,8.22s1.56,5.65,2.42,8.45c1.79,5.93,3.52,11.9,5.15,17.77s3.43,11.57,5.4,17.25c2.14,6.26,4.46,12.48,6.9,18.51,2.52,6.2,5,12.49,7.38,18.69l3,8c.2-.54.4-1.06.61-1.59,1.63-4.2,3.14-8.51,4.47-12.82,2-7.08,4-14.31,5.77-21.38S226,742,227.8,734.65a50.94,50.94,0,0,1,1.58-5.2c.54-1.51,1-3,1.48-4.52q2.4-8.16,4.82-16.26c1.57-5.25,3-10.67,4.38-16.11a12.31,12.31,0,0,1,3.07-6.24c1.64-1.63,3.94-2.55,7.05-2.81,2.62-.17,5.16-.3,7.64-.38,7.56-.24,15.11-.12,22.48.12,4.75.16,9.62.24,14.49.24h3.31c1,0,2,0,3-.11h.34c3.14,0,5.6.87,7.32,2.58a10.66,10.66,0,0,1,2.81,6.77l0,.24q.36,8.55.72,17c.24,5.54.44,11.28.6,17.06.17,12.36,0,24.81-.36,37.08a44.69,44.69,0,0,1-.67,7.66,28.92,28.92,0,0,0-.41,6c.16,6.1.36,12.3.6,18.47s.44,12.34.6,18.68a87.93,87.93,0,0,1-.19,8.89q-.3,4.18-.54,8.37c-.15,4-.23,8.09-.23,12.14s-.08,8.29-.24,12.5c0,1.33,0,2.69-.13,4.06s-.21,2.79-.38,4.23l-.39,3.33-3.27.73c-.66.15-1.26.29-1.81.44a11.39,11.39,0,0,1-3,.4l-.68,0c-2.51-.24-5-.43-7.4-.59a104.46,104.46,0,0,0-16.08.17,60.36,60.36,0,0,0-8.61,1.4l-.53.12h-.56a11.46,11.46,0,0,1-8.16-3.13,11.89,11.89,0,0,1-3.54-7.84q-.35-4.42-.77-8.85a47.48,47.48,0,0,1,.07-9.76,75.45,75.45,0,0,0,.39-12c-.19-4.05-.49-8.26-.89-12.51-.64-7.1-1.09-14.32-1.34-21.47,0-1.2-.08-2.41-.13-3.61-.1.42-.19.84-.28,1.26a65.36,65.36,0,0,1-2.4,8.64c-1,2.7-2,5.39-3.12,8l-3.26,7.59c-1,2.44-2.05,5-3,7.45q-3.5,9.27-6.86,18.35c-2.22,6-4.39,12.17-6.45,18.35l0,.1a3,3,0,0,0-.12,1.43,42.43,42.43,0,0,1,.28,5.29v4.72H214.51l-13.74-.47a34.29,34.29,0,0,1-5.2-.58,11.06,11.06,0,0,1-4.89-2.26,12.1,12.1,0,0,1-3.07-4,27,27,0,0,1-1.84-5.09c-3.65-12.68-7.53-25.46-11.51-37.93-2.82-8.83-6-17.66-9.61-26.36-.06,2.62-.2,5.23-.39,7.81q-.91,11.76-1.87,23.69c-.32,4.57-.58,9.19-.78,13.68s-.34,9.14-.41,13.62a40.19,40.19,0,0,0,.26,6.33c.29,2.4.56,5,.8,7.88l.44,5.13h-5.14c-.84,0-1.68,0-2.5.1C154,874.7,152.89,874.75,151.89,874.75Zm-2.3-9.69a12.42,12.42,0,0,0,2.79.23c-.09-.91-.19-1.8-.3-2.65a49.77,49.77,0,0,1-.33-7.72c.08-4.48.22-9.14.42-13.78s.47-9.27.79-14q1-12,1.87-23.71a148,148,0,0,0-.06-23.06,28,28,0,0,1-.07-3.42c0-.85.06-1.73.06-2.62V760.88l8.42,10.53a25.35,25.35,0,0,1,3.62,6c.65,1.57,1.34,3.16,2,4.75a363.64,363.64,0,0,1,14.41,37.67c4,12.56,7.92,25.43,11.61,38.27a18.68,18.68,0,0,0,1.19,3.4,3,3,0,0,0,.67,1,2.14,2.14,0,0,0,.76.27,24.22,24.22,0,0,0,3.66.39l13.84.47h4.32a12.23,12.23,0,0,1,.65-5.12c2.08-6.26,4.29-12.52,6.54-18.6s4.54-12.21,6.88-18.4c1-2.62,2-5.27,3.15-7.85l3.25-7.59c1-2.41,2-4.91,2.9-7.42a57,57,0,0,0,2.06-7.39,57,57,0,0,1,3.61-11.36c1.44-3.32,2.93-7,4.42-11l5-13.49,3.94,13.85c.29,1,.51,1.76.66,2.2a8.57,8.57,0,0,1,.48,2.54c.4,7.06.73,14.2,1,21.21s.67,14,1.31,20.94c.4,4.38.71,8.73.91,12.91a86,86,0,0,1-.44,13.46,37.91,37.91,0,0,0-.06,7.83c.29,3,.55,6,.79,9a2.47,2.47,0,0,0,.69,1.8,1.59,1.59,0,0,0,1.14.46,70.47,70.47,0,0,1,9.31-1.46,113.33,113.33,0,0,1,17.54-.19c2.22.14,4.51.32,6.83.53a1.48,1.48,0,0,1,0-.21c.07-1.2.11-2.4.11-3.56v-.18c.16-4.12.24-8.23.24-12.23,0-4.17.08-8.41.25-12.59.16-2.92.34-5.76.55-8.59.18-2.64.24-5.32.17-8-.17-6.31-.37-12.56-.6-18.57-.25-6.21-.45-12.45-.61-18.55a38.56,38.56,0,0,1,.55-7.87,34.77,34.77,0,0,0,.53-6.11v-.16c.39-12.15.51-24.48.36-36.65-.17-5.66-.37-11.35-.6-16.85s-.48-11.2-.72-16.86a4.64,4.64,0,0,0-.1-.63,2.86,2.86,0,0,0-.46,0c-1.16.08-2.33.12-3.46.12h-3.31c-5,0-10-.08-14.8-.24-7.16-.24-14.52-.36-21.86-.12-2.38.07-4.82.19-7.26.35a5.52,5.52,0,0,0-1.11.19,7.23,7.23,0,0,0-.48,1.52l0,.13c-1.38,5.6-2.9,11.19-4.51,16.6s-3.21,10.8-4.82,16.25c-.5,1.67-1,3.35-1.65,5A43.63,43.63,0,0,0,237,737q-2.78,11-5.48,21.76c-1.81,7.17-3.79,14.5-5.89,21.78-1.42,4.6-3,9.13-4.71,13.53s-3.31,8.73-4.89,13.23l-4.24,12.09-4.62-12q-2.07-5.32-3.88-10.17l-3.61-9.63c-2.35-6.11-4.81-12.35-7.31-18.51s-4.89-12.57-7.08-19c-2-5.84-3.9-11.83-5.56-17.79-1.62-5.8-3.33-11.71-5.09-17.55-.89-2.89-1.73-5.84-2.51-8.76s-1.48-5.94-2.06-8.93l0-.15c-.3-1.84-.59-3.31-.87-4.36a3,3,0,0,0-.26-.72,2.25,2.25,0,0,0-.45-.17,20.88,20.88,0,0,0-3.88-.55c-4.68-.41-9.35-.93-13.93-1.54a101,101,0,0,0-13.17-.86,64.48,64.48,0,0,0-7.2.4,35.62,35.62,0,0,0-6.82,1.44l-1.79.56-.92-.45c-.89.07-1,.33-1.12.49a12.55,12.55,0,0,0-1.43,4.91,31.84,31.84,0,0,0,0,6.55c.31,2.74.46,4.55.46,5.71v.17q-.24,7-.54,13.9c-.2,4.47-.26,9-.18,13.56.16,7.73.4,15.47.72,23s.49,15.55.49,23.33c0,6.88-.21,13.76-.61,20.47-.4,6.52-.64,13.19-.72,19.83-.08,6.24,0,12.52.24,18.68l.72,18.92a4.4,4.4,0,0,0,.45,2.29,4.22,4.22,0,0,0,2.53.51c1.27-.08,2.51-.14,3.71-.18s2.55-.06,3.89-.06c3.45,0,6.87.17,10.18.5A68.32,68.32,0,0,1,149.59,865.06Zm19.35-173.18Z" transform="translate(-99.94 -110.82)"/><path class="cls-5" d="M350.69,688.21q11.81-.6,23-1.2l22.78-1.21a12.84,12.84,0,0,1,1.8,6.33q.12,3.55.12,7.17c-.08,1.85-.16,3.73-.24,5.66s-.16,3.82-.24,5.66q-.24,9.52-.54,18.92T397,748.46q-.24,11-.24,21.62t.24,21.63q.12,6.15.78,12a43.94,43.94,0,0,0,2.65,11A32.11,32.11,0,0,0,406,824a29,29,0,0,0,9.64,7.11,12.41,12.41,0,0,0,5.79,1.44,14.28,14.28,0,0,0,5.42-1.08A30.54,30.54,0,0,0,439.13,823q4.46-5.31,4.82-14,1-23.37,1.86-46.39T447,716.29a89.84,89.84,0,0,0-.6-10.36c-.41-3.46-.73-6.91-1-10.37a34.39,34.39,0,0,1-.06-3.55c0-1.24.06-2.67.06-4.28,3.05.16,6,.36,8.74.6s5.56.41,8.37.49h5.9c2.73,0,5.47,0,8.2-.12s5.46-.2,8.19-.37c2.41,0,4.12.33,5.12,1s1.51,2.29,1.51,4.94q.24,11.44.24,22.71t.24,22.71q.12,7.59.6,15t.6,15q.12,8.8-.06,17.47t-.42,17.35a23.05,23.05,0,0,1-.66,4.22,11.71,11.71,0,0,0-.3,4.22,39.36,39.36,0,0,1-.73,9.81,56.21,56.21,0,0,1-2.65,9.16,63.2,63.2,0,0,1-4.09,8.62q-2.42,4.22-5.06,8.19a40.29,40.29,0,0,1-6.63,7.71,24.29,24.29,0,0,1-9.28,5.18,43.25,43.25,0,0,0-4.94,1.75q-2.4,1-4.88,2t-4.88,1.74a19.23,19.23,0,0,1-4.94.91q-4.33.36-8.55.36c-3.86,0-7.67-.14-11.45-.42s-7.59-.55-11.44-.79q-6.15-.36-12.23-1.26A41.62,41.62,0,0,1,388,862.19q-19-9.39-28.73-24.4t-9.94-36.32q-.36-20.25,0-40.24.12-7,.48-13.92t.36-13.91a59.43,59.43,0,0,0-.42-8.86,59.43,59.43,0,0,1-.42-8.86q.12-6.85.54-13.55T350.69,688.21Z" transform="translate(-99.94 -110.82)"/><path d="M435,873.06c-3.95,0-7.92-.14-11.8-.43-3.64-.28-7.47-.54-11.39-.78-4.19-.25-8.45-.69-12.63-1.31A46.14,46.14,0,0,1,386,866.45c-13.46-6.64-23.76-15.41-30.66-26.09s-10.53-23.78-10.7-38.84c-.24-13.45-.24-27,0-40.38.08-4.64.24-9.38.49-14.07.24-4.52.35-9.12.35-13.67v-.13a55.29,55.29,0,0,0-.39-8.15,64.93,64.93,0,0,1-.46-9.56c.08-4.58.27-9.21.55-13.73s.55-9.13.78-13.85l.22-4.27,4.26-.21,23-1.21,22.78-1.2,2.82-.15,1.46,2.41A17.37,17.37,0,0,1,403,692c.09,2.45.13,4.92.13,7.33v.21c-.08,1.84-.16,3.72-.24,5.65l-.24,5.67c-.16,6.27-.34,12.59-.54,18.86s-.34,12.57-.42,18.82c-.16,7.23-.24,14.47-.24,21.57s.08,14.34.24,21.53c.08,3.93.33,7.82.76,11.55A38.75,38.75,0,0,0,404.8,813a27.36,27.36,0,0,0,4.78,8,24.47,24.47,0,0,0,8.1,5.93l.14.07a8.33,8.33,0,0,0,7.23.18A25.94,25.94,0,0,0,435.51,820c2.3-2.73,3.52-6.37,3.72-11.13q1-23.36,1.86-46.37c.6-15.17,1-30.73,1.14-46.25a85.14,85.14,0,0,0-.57-9.77c-.4-3.47-.73-7-1-10.58a38.27,38.27,0,0,1-.07-4c0-1.19.06-2.58.06-4.12v-5l5,.26c3.14.17,6.13.38,8.9.62s5.35.38,8,.46h5.83c2.71,0,5.42,0,8.06-.12s5.39-.19,8.05-.35h.28c3.4,0,5.84.54,7.66,1.71,3.69,2.36,3.69,7.3,3.69,8.92.16,7.57.24,15.24.24,22.71s.08,15.11.24,22.61c.08,5,.28,9.94.6,14.79s.53,10.13.61,15.24c.08,5.94.06,11.87-.06,17.64s-.27,11.59-.43,17.38v.15a28,28,0,0,1-.8,5.08,7.11,7.11,0,0,0-.19,2.52l0,.33a45.41,45.41,0,0,1-.81,11,62.9,62.9,0,0,1-2.87,9.91,68.12,68.12,0,0,1-4.41,9.27c-1.65,2.89-3.41,5.74-5.23,8.47a44.73,44.73,0,0,1-7.39,8.59,29.12,29.12,0,0,1-11,6.19l-.11,0a37.52,37.52,0,0,0-4.39,1.56c-1.62.69-3.31,1.37-5,2s-3.44,1.28-5.13,1.83a23.47,23.47,0,0,1-6.09,1.13C440.92,872.94,437.94,873.06,435,873.06Zm-80.09-139.6c0,4.7-.13,9.44-.37,14.1s-.4,9.21-.48,13.75c-.24,13.22-.24,26.7,0,40.07s3.24,24.66,9.18,33.85,15,16.87,26.86,22.73a36.79,36.79,0,0,0,10.47,3.23c3.9.58,7.88,1,11.82,1.23s7.84.51,11.52.78a121.14,121.14,0,0,0,19.25.07h.17a14.2,14.2,0,0,0,3.71-.68c1.51-.5,3.07-1.05,4.62-1.66s3.21-1.28,4.74-1.93a48.18,48.18,0,0,1,5.44-1.93,19.53,19.53,0,0,0,7.46-4.15,35.53,35.53,0,0,0,5.85-6.81c1.72-2.57,3.36-5.24,4.91-7.94a58.86,58.86,0,0,0,3.78-8,52.29,52.29,0,0,0,2.43-8.41,34.61,34.61,0,0,0,.64-8.5,16.78,16.78,0,0,1,.43-5.74,18,18,0,0,0,.53-3.28q.24-8.62.42-17.24c.12-5.66.14-11.48.06-17.31-.08-4.94-.28-9.91-.59-14.75-.33-5-.54-10.13-.62-15.23-.16-7.54-.24-15.22-.24-22.79,0-7.4-.08-15-.24-22.61,0-.5,0-.88-.05-1.18a15.54,15.54,0,0,0-1.72-.1c-2.71.16-5.46.28-8.19.36s-5.53.12-8.33.12h-6c-2.88-.08-5.79-.25-8.65-.5-1.19-.1-2.41-.2-3.68-.29,0,.87,0,1.69.06,2.47.24,3.41.56,6.82.95,10.16a95.28,95.28,0,0,1,.63,10.91c-.16,15.66-.55,31.31-1.15,46.57s-1.22,30.81-1.86,46.39c-.29,6.83-2.28,12.49-5.93,16.83a35.14,35.14,0,0,1-14.15,9.78,19.05,19.05,0,0,1-7.17,1.42,17.06,17.06,0,0,1-7.9-1.95,33.46,33.46,0,0,1-11.11-8.26,36.73,36.73,0,0,1-6.42-10.7,48.46,48.46,0,0,1-2.94-12.14c-.46-4-.74-8.21-.82-12.43-.16-7.24-.24-14.55-.24-21.72s.08-14.48.24-21.73c.08-6.27.22-12.66.43-19s.38-12.55.54-18.89l.24-5.74c.08-1.89.16-3.74.24-5.56,0-2.28,0-4.6-.12-6.91a9.91,9.91,0,0,0-.18-1.59q-9.84.51-19.42,1l-18.77,1c-.18,3.3-.37,6.55-.57,9.71-.27,4.37-.45,8.86-.53,13.34a55.63,55.63,0,0,0,.39,8.19A65.37,65.37,0,0,1,354.94,733.46Z" transform="translate(-99.94 -110.82)"/><path class="cls-5" d="M640,742.91q-4.69.38-9.46.79t-9.57.9a2.15,2.15,0,0,1-.85.12,5.3,5.3,0,0,1-4.21-1.63,11.87,11.87,0,0,1-2.29-3.91q-2.9-8.79-9.28-13.37t-15.66-4.58a24,24,0,0,0-5.79.66,11.46,11.46,0,0,0-7.71,5.72,10.13,10.13,0,0,0-1.56,4.58,19,19,0,0,0,1,6.69,24.07,24.07,0,0,0,3.07,6.2,24.34,24.34,0,0,0,4.82,5.18,21.43,21.43,0,0,0,6.09,3.5q7.1,2.65,14.21,5t14.1,5.12q4.7,1.92,9.28,3.91a94.94,94.94,0,0,1,8.91,4.46,69.61,69.61,0,0,1,8.26,5.54,43.36,43.36,0,0,1,7.16,7.17,55.78,55.78,0,0,1,11.21,22.11q2.77,11.63-1.45,24.76-1.68,4.93-3.13,9.82a23.89,23.89,0,0,1-5.18,9.1,45.1,45.1,0,0,1-10.72,8.91,50.21,50.21,0,0,1-12.65,5.3q-7.11,2.06-14.28,3.38L599.85,871a4.53,4.53,0,0,1-1.44.24H597c-1,0-2.09,0-3.13-.12s-2.05-.2-3-.36l-10.91-1.45q-5.48-.72-10.84-1.81a84.86,84.86,0,0,1-10.54-2.83,59.11,59.11,0,0,1-10.13-4.52c-2.08-1.2-4.21-2.47-6.38-3.79a16.91,16.91,0,0,1-5.18-4.76,148,148,0,0,1-10.3-16.81,81.05,81.05,0,0,1-6.93-18.37q-1-4.33.3-6.93t5.48-3.67a54.24,54.24,0,0,1,8-1.57,67.93,67.93,0,0,1,8-.48,81.51,81.51,0,0,1,9.94.6c3.25.4,6.56.93,9.94,1.57a4.05,4.05,0,0,1,3,1.86,5.26,5.26,0,0,1,.66,3.44,15.73,15.73,0,0,0,2.17,9.34,25.8,25.8,0,0,0,6.63,7.41,34.7,34.7,0,0,0,9,4.94,26.72,26.72,0,0,0,9.22,1.8,32.85,32.85,0,0,0,11.81-2.11,15.28,15.28,0,0,0,8.43-8.13q3.61-7.23-1.57-13.49A29.93,29.93,0,0,0,602,803.7a78.12,78.12,0,0,0-10.12-4.76q-8.79-3.5-17.59-6.87t-17.47-7.47a74.37,74.37,0,0,1-13.19-7.89,48.87,48.87,0,0,1-10.79-11.15,58.3,58.3,0,0,1-7-13.73,47.78,47.78,0,0,1-2.71-14.64,46,46,0,0,1,2.05-14.7,45.52,45.52,0,0,1,7.17-13.91,27.69,27.69,0,0,1,6.27-6q3.48-2.4,7.35-4.82a56.71,56.71,0,0,1,9.39-5,97.5,97.5,0,0,1,9.76-3.43,102.31,102.31,0,0,1,10.06-2.41q5.13-1,10.18-1.93,3.86-.6,7.65-1t7.65-.36a84.4,84.4,0,0,1,17.11,1.74A60.28,60.28,0,0,1,633.59,691a47.14,47.14,0,0,1,13,10.06,42.2,42.2,0,0,1,8.67,15A77.35,77.35,0,0,1,658,726.11q1,5.11,1.87,10.18c.4,2.33.1,4.05-.9,5.18s-2.67,1.77-5,1.93c-.89.08-1.79.14-2.71.18s-1.83.06-2.71.06c-1.37,0-2.77,0-4.22-.06s-2.85-.06-4.22-.06Z" transform="translate(-99.94 -110.82)"/><path d="M598.41,876H597c-1.15,0-2.32,0-3.49-.13s-2.27-.22-3.35-.4L579.29,874c-3.74-.5-7.5-1.12-11.16-1.87a90.54,90.54,0,0,1-11.11-3,63.55,63.55,0,0,1-10.93-4.88c-2.14-1.23-4.32-2.53-6.53-3.88a21.78,21.78,0,0,1-6.6-6.09A155.7,155.7,0,0,1,522.35,837,86.61,86.61,0,0,1,515,817.54l0-.1c-.88-4-.66-7.32.66-10,1.48-3,4.36-5.1,8.56-6.18a60.52,60.52,0,0,1,8.62-1.68,79,79,0,0,1,19.09.12c3.36.42,6.8,1,10.25,1.62a8.59,8.59,0,0,1,6.12,4.07,10,10,0,0,1,1.32,6.3,10.94,10.94,0,0,0,1.53,6.5,21,21,0,0,0,5.43,6.06,29.48,29.48,0,0,0,7.74,4.26A22,22,0,0,0,591.9,830,28.49,28.49,0,0,0,602,828.2a10.68,10.68,0,0,0,5.85-5.76c1.6-3.21,1.31-5.71-1-8.44a25.34,25.34,0,0,0-7.23-6.18,73.4,73.4,0,0,0-9.51-4.48c-5.91-2.34-11.81-4.65-17.57-6.86-5.94-2.27-11.93-4.83-17.8-7.61a79,79,0,0,1-14-8.38A53.79,53.79,0,0,1,529,768.28a63.24,63.24,0,0,1-7.59-14.89,52.48,52.48,0,0,1-3-16.08,51.32,51.32,0,0,1,2.25-16.2,50.44,50.44,0,0,1,7.9-15.36,32.88,32.88,0,0,1,7.37-7.09c2.37-1.63,4.89-3.28,7.48-4.91a61.64,61.64,0,0,1,10.15-5.39,103.72,103.72,0,0,1,10.24-3.6c3.4-1,6.94-1.84,10.51-2.51l10.17-1.93.16,0c2.66-.41,5.33-.75,7.93-1a88.73,88.73,0,0,1,26.16,1.47,64.77,64.77,0,0,1,17,6,52.23,52.23,0,0,1,14.31,11.06,47.07,47.07,0,0,1,9.65,16.65,84,84,0,0,1,2.88,10.67c.69,3.47,1.33,7,1.89,10.33.65,3.79,0,6.86-2,9.11-1.84,2.06-4.58,3.23-8.14,3.49-1,.08-1.92.15-2.89.19-2.44.11-4.77.07-7.27,0q-2.08-.06-4.08-.06h-3.87l-.06-.28-5.23.44c-3,.27-6,.56-9.07.86a7.69,7.69,0,0,1-1.77.19,9.94,9.94,0,0,1-7.75-3.22,16.88,16.88,0,0,1-3.19-5.42l0-.16c-1.62-4.93-4.09-8.53-7.54-11s-7.7-3.7-12.91-3.7a19.61,19.61,0,0,0-4.64.52,8,8,0,0,0-2.81,1.22,8,8,0,0,0-2,2.35,5.79,5.79,0,0,0-.9,2.41,14.55,14.55,0,0,0,.74,5,19.45,19.45,0,0,0,2.48,5,19.94,19.94,0,0,0,3.89,4.18,16.8,16.8,0,0,0,4.76,2.74c4.66,1.74,9.39,3.4,14.06,4.94s9.6,3.33,14.35,5.22c3.22,1.32,6.37,2.65,9.42,4a96.35,96.35,0,0,1,9.37,4.69,72,72,0,0,1,8.83,5.93,47.77,47.77,0,0,1,7.95,7.94,60.7,60.7,0,0,1,12.1,24c2,8.56,1.53,17.75-1.54,27.3q-1.68,4.92-3.1,9.71a28.59,28.59,0,0,1-6.17,10.89,50,50,0,0,1-11.86,9.85,55.18,55.18,0,0,1-13.83,5.8C625,870.9,620,872.07,615.11,873q-7,1.31-14.14,2.6A9,9,0,0,1,598.41,876Zm-74.2-60.62a77.41,77.41,0,0,0,6.51,17.26,144.69,144.69,0,0,0,10,16.27,12.32,12.32,0,0,0,3.78,3.46c2.15,1.31,4.26,2.56,6.29,3.73a54.13,54.13,0,0,0,9.26,4.13,82.4,82.4,0,0,0,10,2.68c3.46.7,7,1.29,10.53,1.76l10.91,1.44.14,0c.84.14,1.72.25,2.61.32s1.86.1,2.77.1h1.45l.59-.16,14.39-2.65c4.61-.85,9.26-2,13.83-3.27a46,46,0,0,0,11.55-4.82,40.4,40.4,0,0,0,9.6-8,19.4,19.4,0,0,0,4.18-7.3c1-3.32,2.06-6.69,3.19-10,2.51-7.79,3-15.27,1.32-22.13a51.41,51.41,0,0,0-10.29-20.25,38.81,38.81,0,0,0-6.4-6.41,62.36,62.36,0,0,0-7.68-5.15,86.67,86.67,0,0,0-8.46-4.23c-3-1.3-6.07-2.6-9.19-3.88-4.52-1.79-9.17-3.48-13.78-5-4.78-1.58-9.62-3.28-14.39-5.06a26.27,26.27,0,0,1-7.4-4.24,29.44,29.44,0,0,1-5.74-6.18,28.94,28.94,0,0,1-3.67-7.41,24.07,24.07,0,0,1-1.2-8.33,14.86,14.86,0,0,1,2.24-6.84,17.13,17.13,0,0,1,4.51-5.11,17.48,17.48,0,0,1,6.11-2.76,28.38,28.38,0,0,1,6.93-.81c7.16,0,13.35,1.84,18.41,5.46s8.74,8.89,11,15.66a7.4,7.4,0,0,0,1.36,2.34s.08,0,.28,0l.78-.08c3.23-.32,6.44-.63,9.63-.91s6.36-.54,9.51-.79l4.18-.32.19,1h.46c2.27.07,4.35.11,6.58,0,.86,0,1.69-.1,2.5-.17h.1a5.35,5.35,0,0,0,1.67-.31,5.17,5.17,0,0,0-.09-1.28c-.56-3.31-1.18-6.68-1.85-10.06a75.92,75.92,0,0,0-2.55-9.46,37.68,37.68,0,0,0-7.69-13.34,42.67,42.67,0,0,0-11.72-9.06A55.68,55.68,0,0,0,616.84,690a79.25,79.25,0,0,0-23.35-1.31c-2.38.23-4.84.54-7.29.92l-10.11,1.91c-3.26.62-6.5,1.39-9.61,2.3a94.07,94.07,0,0,0-9.29,3.27,51,51,0,0,0-8.6,4.58l-.09.06c-2.49,1.56-4.91,3.14-7.17,4.7a23.41,23.41,0,0,0-5.2,5,41,41,0,0,0-6.4,12.42,41.56,41.56,0,0,0-1.84,13.21,43.31,43.31,0,0,0,2.44,13.19,54.26,54.26,0,0,0,6.43,12.62,44.28,44.28,0,0,0,9.71,10,70.45,70.45,0,0,0,12.36,7.4c5.68,2.68,11.45,5.15,17.17,7.34s11.74,4.54,17.64,6.89a83,83,0,0,1,10.69,5,34.85,34.85,0,0,1,9.91,8.42c4.65,5.63,5.39,12.06,2.13,18.59a19.9,19.9,0,0,1-11,10.44,37.91,37.91,0,0,1-13.49,2.42,31.52,31.52,0,0,1-10.86-2.1,39.52,39.52,0,0,1-10.21-5.62A30.76,30.76,0,0,1,563,823a20.47,20.47,0,0,1-2.81-12.08l0-.25a.41.41,0,0,0,0-.11c-3.22-.6-6.38-1.1-9.45-1.48a70,70,0,0,0-16.82-.12,50.11,50.11,0,0,0-7.32,1.44c-1.74.44-2.38,1-2.48,1.18S523.68,812.91,524.21,815.33Zm36.41-4.72Z" transform="translate(-99.94 -110.82)"/><path class="cls-5" d="M691.06,865.08q-1.45-3-2.53-5.18c-.73-1.44-1.41-2.85-2-4.21q.24-3.26.72-6.63a32.73,32.73,0,0,0,.24-6.87,169.62,169.62,0,0,1-.3-19.64q.42-9.75,1.27-19.63a126.73,126.73,0,0,0,.3-15.07c-.2-5-.22-10-.06-15.06q.24-14.2-.61-28.19t-2.16-28.07a110.19,110.19,0,0,1-.43-15.06q.3-7.47.31-15.18a15.48,15.48,0,0,1,3.91-1.09,29.82,29.82,0,0,1,3.8-.24,45.4,45.4,0,0,1,5.72.36,44.34,44.34,0,0,0,5.6.36h1.33c.72-.07,1.46-.12,2.23-.12h2.35c2.08,0,4.19.05,6.32.12s4.24.12,6.33.12h1.74a12.45,12.45,0,0,0,1.75-.12h1.08c2.33,0,3.78.49,4.34,1.45s.73,2.81.48,5.54a25.6,25.6,0,0,0,.55,7.23q.78,3.61,1.26,7.23.6,4,1.21,8t.84,7.95q.6,10.72,1,21.27t.49,21.14q0,8-.55,15.85t-1,15.84c-.16,3.62-.4,7.21-.72,10.79s-.53,7.16-.61,10.78q-.24,8.19-.12,16.2t0,16.21c0,.88,0,1.79.06,2.71a12.2,12.2,0,0,1-.18,2.71q-.6,4.94-2.47,6.69T725.52,865q-3.62.12-7.23.12H691.06Z" transform="translate(-99.94 -110.82)"/><path d="M718.29,869.81H688.08l-1.28-2.68c-.95-2-1.78-3.69-2.5-5.11s-1.44-2.93-2.1-4.32l-.53-1.13.1-1.23c.16-2.26.42-4.6.75-7a27.31,27.31,0,0,0,.21-5.87,174.34,174.34,0,0,1-.31-20.17c.28-6.53.71-13.21,1.28-19.84A122.75,122.75,0,0,0,684,788c-.21-5.07-.23-10.25-.07-15.4.16-9.22,0-18.58-.59-27.76s-1.28-18.59-2.16-27.91a116.25,116.25,0,0,1-.44-15.69c.2-4.92.3-10,.3-15v-3.17l2.93-1.2a20,20,0,0,1,5.1-1.4,42.35,42.35,0,0,1,10.73.12,40.58,40.58,0,0,0,5,.32h1.08c.82-.08,1.65-.12,2.48-.12h2.35c2.09,0,4.28,0,6.5.12,2,.08,4.1.12,6.15.12h1.74a10.6,10.6,0,0,0,1.16-.08l.59,0h1.08c4.12,0,7,1.27,8.42,3.79,1.11,1.9,1.45,4.47,1.11,8.34a21.45,21.45,0,0,0,.45,5.81c.55,2.52,1,5.08,1.34,7.6l1.19,7.87c.42,2.77.72,5.59.89,8.38.4,7.17.72,14.36,1,21.39s.4,14.15.48,21.25c0,5.44-.19,10.88-.55,16.22s-.72,10.74-1,15.81c-.16,3.59-.41,7.29-.74,10.92-.31,3.46-.51,7-.58,10.46-.16,5.4-.2,10.78-.12,16s.08,10.86,0,16.35c0,.74,0,1.58,0,2.43a16.71,16.71,0,0,1-.22,3.62c-.56,4.41-1.84,7.49-3.92,9.44s-5.46,3-10.07,3C723.2,869.77,720.74,869.81,718.29,869.81ZM694,860.36h24.27c2.37,0,4.75,0,7.07-.12h.16a9.13,9.13,0,0,0,3.71-.5,9.5,9.5,0,0,0,1-3.78l0-.27a7.11,7.11,0,0,0,.11-1.67c0-1-.06-2-.06-2.91.08-5.46.08-10.87,0-16.14s0-10.91.12-16.41c.08-3.66.29-7.39.62-11.07.31-3.48.55-7,.71-10.57.31-5.16.66-10.51,1-16,.35-5.12.53-10.34.53-15.52-.08-7-.24-14.05-.48-21s-.56-14.08-1-21.16c-.15-2.49-.42-5-.8-7.51l-1.2-8q-.48-3.52-1.21-6.93a30.43,30.43,0,0,1-.64-8.55c.07-.83.1-1.47.09-1.94h-1a18.48,18.48,0,0,1-2,.12h-1.74c-2.17,0-4.36,0-6.51-.12s-4.17-.12-6.14-.12h-2.35a16.37,16.37,0,0,0-1.72.09l-.51,0h-1.33a48.38,48.38,0,0,1-6.2-.4,33,33,0,0,0-8.13-.14c0,4-.13,7.91-.29,11.79a107.3,107.3,0,0,0,.41,14.42c.89,9.43,1.62,18.93,2.18,28.24s.77,19,.61,28.55c-.16,5-.14,10,.06,14.79a131.79,131.79,0,0,1-.31,15.63c-.56,6.53-1,13.07-1.26,19.47a164.74,164.74,0,0,0,.3,19.09,37.59,37.59,0,0,1-.28,7.88c-.25,1.71-.44,3.41-.59,5.08.47,1,1,2,1.46,3Z" transform="translate(-99.94 -110.82)"/><path class="cls-5" d="M913.23,754.36l-3-.24c-1-.08-1.89-.12-2.78-.12h-.36l-12.65.24q-6.27.12-12.65.36a22.29,22.29,0,0,1-3.13-.24c-1.61-.16-3.31-.28-5.12-.36a6.86,6.86,0,0,1-4.28-1.45,5.91,5.91,0,0,1-1.87-4c-.2-1.81-.42-3.52-.66-5.12a29.29,29.29,0,0,0-3.79-10.79,14.85,14.85,0,0,0-8.74-6.44q-3.62-1.09-7.29-1.87a35,35,0,0,0-7.29-.78,21.69,21.69,0,0,0-13,4.09,33.55,33.55,0,0,0-9.34,10.12,75.3,75.3,0,0,0-5.78,12.41,36.74,36.74,0,0,0-2,13.74,130,130,0,0,1-.54,14.28q-.66,7-.78,14.27a81.5,81.5,0,0,0,.48,8.86q.48,4.4,1.08,8.73A17.31,17.31,0,0,0,811,813.7a33.14,33.14,0,0,0,3.43,6,38.46,38.46,0,0,0,5.6,6.27,20.94,20.94,0,0,0,7.78,4.45,28.1,28.1,0,0,0,13.37,3.26,30.5,30.5,0,0,0,21-8.07,49.38,49.38,0,0,0,3.8-4,13,13,0,0,0,2.23-3.74,11.75,11.75,0,0,0,.72-4.15,20.07,20.07,0,0,0-.72-5,3.61,3.61,0,0,1,.42-3.08,3.53,3.53,0,0,1,2.59-1.62q.72-.12,1.44-.18a11.6,11.6,0,0,0,1.33-.18,2.59,2.59,0,0,1,1,.18,2.64,2.64,0,0,0,1,.18h.24a21.13,21.13,0,0,1,4.34-1,38.28,38.28,0,0,1,4.21-.25,58.61,58.61,0,0,1,10.85,1,58.49,58.49,0,0,0,10.84,1H907a6.25,6.25,0,0,1,5.3,2.35,7.93,7.93,0,0,1,1.81,5.85,44.32,44.32,0,0,1-4.52,16,71.09,71.09,0,0,1-9.45,14,62.21,62.21,0,0,1-12.17,11.2q-6.75,4.69-13.26,9.76a19,19,0,0,1-6.38,2.11q-4.59.9-9.82,1.5c-3.5.4-6.85.71-10.06.91s-5.54.3-7,.3q-5.31,0-9.52-.3c-2.81-.2-5.54-.53-8.19-1a74.09,74.09,0,0,1-8-1.8q-4.05-1.15-9.1-3a52.68,52.68,0,0,1-20.24-12.41,69.7,69.7,0,0,1-13.62-19.63,157.35,157.35,0,0,1-10.18-29.1,91.52,91.52,0,0,1-2-30.66,153.68,153.68,0,0,1,4.69-26.51,89.39,89.39,0,0,1,9.58-22.59,79.4,79.4,0,0,1,15.55-18.56A95.1,95.1,0,0,1,813,688.82a8.07,8.07,0,0,1,1.44-.49q8.07-1,16.09-2a126.25,126.25,0,0,1,16-1,69.51,69.51,0,0,1,25.36,4.7,61.71,61.71,0,0,1,21.51,14.1,83.67,83.67,0,0,1,9.09,10.6,55.42,55.42,0,0,1,6,10.66A63,63,0,0,1,912,737.13,132.85,132.85,0,0,1,914,751a2.83,2.83,0,0,1-.18,1.5A13.81,13.81,0,0,0,913.23,754.36Z" transform="translate(-99.94 -110.82)"/><path d="M841.42,873.54c-3.62,0-6.93-.1-9.85-.31s-5.84-.55-8.64-1a76,76,0,0,1-8.52-1.92c-2.77-.78-5.94-1.81-9.4-3a57.51,57.51,0,0,1-22-13.52,74.4,74.4,0,0,1-14.55-21,162.66,162.66,0,0,1-10.5-30,96.9,96.9,0,0,1-2.1-32.23,160.35,160.35,0,0,1,4.85-27.29,94.19,94.19,0,0,1,10.09-23.78,84.41,84.41,0,0,1,16.46-19.66A100.46,100.46,0,0,1,811,684.54a11.91,11.91,0,0,1,2.31-.79l.59-.11c5.32-.63,10.71-1.3,16-2a132.12,132.12,0,0,1,16.56-1.06,74.52,74.52,0,0,1,27.07,5,66.49,66.49,0,0,1,23.14,15.16A88.16,88.16,0,0,1,906.3,712a59.87,59.87,0,0,1,6.47,11.57,67.59,67.59,0,0,1,3.82,12.64,136.6,136.6,0,0,1,2,14.22,7.53,7.53,0,0,1-.46,3.76,10.09,10.09,0,0,0-.34,1.2l-.89,4-4.08-.31-3-.24c-.84-.07-1.64-.11-2.38-.11h-.36l-12.56.24c-4.14.08-8.37.21-12.56.36h-.18a27.17,27.17,0,0,1-3.7-.28c-1.5-.14-3.1-.26-4.76-.33a11.52,11.52,0,0,1-7.12-2.56,10.42,10.42,0,0,1-3.51-7.12c-.19-1.73-.41-3.4-.64-4.95a24.55,24.55,0,0,0-3.16-9,10.19,10.19,0,0,0-6.08-4.38c-2.24-.68-4.56-1.27-6.89-1.77a30.45,30.45,0,0,0-6.31-.68,17,17,0,0,0-10.2,3.21,28.92,28.92,0,0,0-8,8.71A70.25,70.25,0,0,0,816,751.74a32.21,32.21,0,0,0-1.78,12,132.75,132.75,0,0,1-.56,14.88c-.43,4.56-.68,9.24-.76,13.91a76.62,76.62,0,0,0,.45,8.26c.32,2.87.68,5.75,1.07,8.58a19.34,19.34,0,0,0,.94,2.51,28,28,0,0,0,2.95,5.08,33.42,33.42,0,0,0,4.91,5.49,16.12,16.12,0,0,0,6,3.46l.39.13.37.19a23.22,23.22,0,0,0,11.16,2.7,25.69,25.69,0,0,0,17.76-6.82,43.52,43.52,0,0,0,3.37-3.53,8.19,8.19,0,0,0,1.43-2.36,6.91,6.91,0,0,0,.43-2.5,15.42,15.42,0,0,0-.56-3.77,8.36,8.36,0,0,1,6.9-10.61c.51-.08,1.12-.16,1.71-.21.32,0,.58-.06.8-.1l.46-.1H874a7.79,7.79,0,0,1,2,.25,25.06,25.06,0,0,1,4.14-.82,43.2,43.2,0,0,1,4.74-.27,63.69,63.69,0,0,1,11.72,1.1,53.43,53.43,0,0,0,10,1h.41a10.89,10.89,0,0,1,9,4,12.73,12.73,0,0,1,2.88,9.2v.12a49.33,49.33,0,0,1-5,17.71,76.2,76.2,0,0,1-10.09,14.91,66.56,66.56,0,0,1-13,12c-4.4,3.06-8.79,6.29-13.06,9.61l-.27.2c-1.77,1.18-4.34,2.07-8.1,2.81-3.14.62-6.57,1.15-10.19,1.57s-7,.72-10.31.92S843,873.54,841.42,873.54ZM815.32,693l-.32.1a91.23,91.23,0,0,0-21.48,13.79,75,75,0,0,0-14.62,17.45,85,85,0,0,0-9.07,21.4,149.31,149.31,0,0,0-4.55,25.69,87.3,87.3,0,0,0,1.88,29.12A152,152,0,0,0,777,828.76,65.16,65.16,0,0,0,789.7,847a48.32,48.32,0,0,0,18.46,11.29c3.3,1.18,6.25,2.14,8.82,2.87a70.16,70.16,0,0,0,7.51,1.69c2.5.42,5.11.73,7.75.91s5.79.29,9.18.29c1.33,0,3.58-.09,6.69-.29s6.41-.49,9.82-.88,6.55-.88,9.44-1.45a16.7,16.7,0,0,0,4.59-1.35c4.34-3.36,8.8-6.65,13.27-9.76A57.23,57.23,0,0,0,896.47,840a66.9,66.9,0,0,0,8.87-13.09,39.9,39.9,0,0,0,4-14.27,3.24,3.24,0,0,0-.73-2.44,1.61,1.61,0,0,0-1.5-.65h-.65a62.76,62.76,0,0,1-11.72-1.11,54.35,54.35,0,0,0-10-.94,33.83,33.83,0,0,0-3.69.21,17.16,17.16,0,0,0-3.37.75l-.72.24h-1a7.65,7.65,0,0,1-2.12-.28l-.86.09h0a24,24,0,0,1,.62,5.17,16.49,16.49,0,0,1-1,5.82,17.77,17.77,0,0,1-3,5.09,51.16,51.16,0,0,1-4.18,4.39l-.1.09a35.25,35.25,0,0,1-24.11,9.27A32.9,32.9,0,0,1,826,834.75a25.62,25.62,0,0,1-9.11-5.33,42.62,42.62,0,0,1-6.28-7,37.79,37.79,0,0,1-3.92-6.84A19.57,19.57,0,0,1,805,810.6c-.39-2.85-.77-5.84-1.09-8.8a85.7,85.7,0,0,1-.51-9.37c.08-5,.35-9.91.81-14.72a127.8,127.8,0,0,0,.52-13.75,41.49,41.49,0,0,1,2.32-15.41,80.37,80.37,0,0,1,6.15-13.19,38.39,38.39,0,0,1,10.67-11.59,26.48,26.48,0,0,1,15.7-5,39.8,39.8,0,0,1,8.28.89c2.58.55,5.16,1.21,7.66,2A19.57,19.57,0,0,1,867,730.15a34.1,34.1,0,0,1,4.43,12.51q.38,2.55.69,5.33a2.31,2.31,0,0,0,.25,1,2.92,2.92,0,0,0,1.41.31c1.87.08,3.68.21,5.38.38l.2,0a17.61,17.61,0,0,0,2.38.2c4.22-.16,8.47-.28,12.64-.36l13.1-.25c.52,0,1,0,1.59,0-.44-4.06-1-7.84-1.7-11.24a58.34,58.34,0,0,0-3.28-10.87,51.21,51.21,0,0,0-5.46-9.75,79.7,79.7,0,0,0-8.58-10,57.32,57.32,0,0,0-19.88-13,65,65,0,0,0-23.65-4.38,122.45,122.45,0,0,0-15.36,1C825.87,691.71,820.55,692.36,815.32,693Zm-.91,116.39h0Zm57.54-.72Zm1.16-.5h0Z" transform="translate(-99.94 -110.82)"/></g></svg>