<?xml version="1.0" encoding="UTF-8"?>
<svg id="Layer_1" data-name="Layer 1" xmlns="http://www.w3.org/2000/svg" xmlns:xlink="http://www.w3.org/1999/xlink" viewBox="0 0 930 930">
  <defs>
    <style>
      .cls-1 {
        clip-path: url(#clippath);
      }

      .cls-2 {
        fill: none;
      }

      .cls-3 {
        fill: #ff218b;
      }
    </style>
    <clipPath id="clippath">
      <rect class="cls-2" width="930" height="930"/>
    </clipPath>
  </defs>
  <g class="cls-1">
    <path class="cls-3" d="m1045.1,121.6l20.98,314.92c2.63,39.69,30.56,73.15,69.1,82.9l306.01,77.36c86.24,21.8,94.17,141.21,11.63,174.25l-293.02,117.28c-36.92,14.78-60.14,51.65-57.5,91.34l20.98,314.92c5.9,88.74-105.18,133.19-162.14,64.89l-202.08-242.44c-25.46-30.55-67.71-41.23-104.64-26.45l-293.02,117.28c-82.58,33.03-159.19-58.87-111.82-134.15l168.12-267.12c21.18-33.67,18.28-77.15-7.19-107.69l-202.08-242.44c-56.96-68.31,6.8-169.59,93.04-147.78l306.01,77.36c38.58,9.75,79.01-6.43,100.19-40.1l168.12-267.12c47.36-75.28,163.39-45.95,169.32,42.81h0Z"/>
  </g>
</svg>