<svg xmlns="http://www.w3.org/2000/svg" width="1920" height="1920" viewBox="0 0 1920 1920">
  <defs>
    <style>
      .a {
        fill: #001826;
      }
    </style>
  </defs>
  <g>
    <g>
      <g>
        <path class="a" d="M225.18188,559.2084h46.2475V730.65012H373.9418v38.88223H225.18188Z"/>
        <path class="a" d="M399.88246,559.2084H557.18465v38.88224H446.13v45.07054H548.05389v35.93716H446.13v51.55178H559.54122v38.88223H399.88246Z"/>
        <path class="a" d="M622.30831,699.71905c0,27.986,21.79768,38.88223,46.543,38.88223,16.20049,0,40.94586-4.71315,40.94586-26.21791,0-22.68174-31.51955-26.51085-62.45061-34.76018-31.224-8.2441-62.74354-20.32255-62.74354-59.79588,0-43.00952,40.6503-63.625,78.65109-63.625,43.89093,0,84.24829,19.14556,84.24829,67.747h-44.775c-1.47254-25.32864-19.44373-31.80989-41.537-31.80989-14.72795,0-31.81248,6.18308-31.81248,23.85872,0,16.2005,10.0148,18.26152,62.74354,31.81512,15.31906,3.82911,62.45061,13.54836,62.45061,61.271,0,38.58929-30.34257,67.45411-87.48892,67.45411-46.543,0-90.13842-22.97468-89.54993-74.8194Z"/>
      </g>
      <g>
        <path class="a" d="M267.07455,1014.35789c0,33.5832,26.15775,46.66077,55.85167,46.66077,19.44372,0,49.13764-5.65474,49.13764-31.4594,0-27.22227-37.82555-31.81511-74.94229-41.71222-37.47246-9.90233-75.2954-24.39228-75.2954-71.76447,0-51.60933,48.78194-76.35732,94.38341-76.35732,52.6712,0,101.10266,22.97991,101.10266,81.30587h-53.7331c-1.76809-30.3975-23.33038-38.176-49.84384-38.176-17.67563,0-38.17864,7.42283-38.17864,28.63465,0,19.44373,12.0209,21.918,75.298,38.176,18.38182,4.59807,74.94229,16.26327,74.94229,73.52733,0,46.31029-36.41056,80.95539-104.99192,80.95539-55.85167,0-108.17239-27.57275-107.46359-89.7906Z"/>
        <path class="a" d="M733.737,845.7357h55.14548l105.3424,169.32838h.70619V845.7357h51.965V1098.138H891.39491L786.40821,929.16537H785.702V1098.138H733.737Z"/>
        <path class="a" d="M1033.52712,1014.35789c0,33.5832,26.16036,46.66077,55.85166,46.66077,19.44373,0,49.135-5.65474,49.135-31.4594,0-27.22227-37.82032-31.81511-74.93968-41.71222-37.46984-9.90233-75.29539-24.39228-75.29539-71.76447,0-51.60933,48.78455-76.35732,94.38341-76.35732,52.6712,0,101.1,22.97991,101.1,81.30587h-53.72787c-1.76809-30.3975-23.33561-38.176-49.84645-38.176-17.67564,0-38.176,7.42283-38.176,28.63465,0,19.44373,12.01567,21.918,75.29539,38.176,18.38183,4.59807,74.93968,16.26327,74.93968,73.52733,0,46.31029-36.40794,80.95539-104.98669,80.95539-55.8569,0-108.17239-27.57275-107.4662-89.7906Z"/>
      </g>
      <g>
        <path class="a" d="M298.479,1230.78941H210.21853V1176.3501H451.49176v54.43931H363.23127V1470.8256H298.479Z"/>
        <path class="a" d="M485.32081,1176.3501h64.75226v294.4755H485.32081Z"/>
        <path class="a" d="M1142.34815,1176.3501h220.2419v54.43931H1207.103v63.1019h142.70239v50.31726H1207.103v72.17772h158.78779v54.43931H1142.34815Z"/>
        <path class="a" d="M1453.75114,1373.07861c0,39.1804,30.51781,54.43931,65.16289,54.43931,22.68173,0,57.32682-6.59633,57.32682-36.70612,0-31.75758-44.12894-37.11938-87.4366-48.66426-43.71569-11.55011-87.84463-28.45679-87.84463-83.72784,0-60.21436,56.91357-89.0844,110.11834-89.0844,61.44886,0,117.9544,26.809,117.9544,94.85946h-62.68861c-2.061-35.46637-27.22226-44.5422-58.15332-44.5422-20.62071,0-44.54219,8.66258-44.54219,33.40534,0,22.687,14.01915,25.5745,87.84462,44.54744,21.44721,5.3618,87.43661,18.9677,87.43661,85.78363,0,54.03129-42.48117,94.44621-122.48971,94.44621-65.16813,0-126.20374-32.16559-125.38247-104.75657Z"/>
      </g>
      <polygon class="a" points="1257.42 1149.954 1216.587 1149.954 1256.181 1091.388 1320.935 1091.388 1257.42 1149.954"/>
      <path class="a" d="M1016.55261,1297.61014c-73.8312-18.97979-87.85453-21.87018-87.85453-44.55369,0-24.73864,23.92538-33.39881,44.54274-33.39881,30.937,0,56.09324,9.0668,58.15937,44.53175h62.68727c0-68.05045-56.51086-94.85523-117.95625-94.85523-53.20291,0-110.1204,28.87085-110.1204,89.08545,0,55.269,44.136,72.18272,87.84353,83.73329,43.3118,11.53957,87.43691,16.90272,87.43691,48.664,0,30.1018-34.64069,36.69584-57.32412,36.69584-34.64068,0-65.1601-15.25421-65.1601-54.43375,0-42.3008-92.39343-29.50836-92.39343-108.88956,0-68.05045-56.51086-94.85523-117.95625-94.85523-53.20291,0-110.1204,28.87085-110.1204,89.08545,0,55.269,44.125,72.18272,87.84353,83.73329,43.31179,11.53957,87.4369,16.90272,87.4369,48.664,0,30.1018-34.64068,36.69584-57.32418,36.69584-34.65162,0-65.171-15.25421-65.171-54.43375H588.4349c-.82426,72.58929,60.21451,104.75722,125.37461,104.75722,80.01861,0,122.49514-40.42141,122.49514-94.4486,0-66.81957-65.98428-80.42527-87.4369-85.77743-73.8202-18.97979-87.84353-21.87018-87.84353-44.55369,0-24.73864,23.92538-33.39881,44.54274-33.39881,30.937,0,56.09324,9.0668,58.15937,44.53175,0,45.90545,92.38243,19.925,92.38243,108.88956-.81325,72.58929,60.21451,104.75722,125.38561,104.75722,80.00761,0,122.48415-40.42141,122.48415-94.4486C1103.97852,1316.568,1037.99423,1302.9623,1016.55261,1297.61014Z"/>
      <g>
        <path class="a" d="M589.57784,1055.45514a74.43764,74.43764,0,0,1-17.77091,2.03314c-49.83988,0-68.578-42.42162-68.578-84.49161,0-15.36409,2.26395-30.50843,7.31942-43.72944l-31.16779-49.763c-20.56242,23.85945-31.65142,56.67576-31.65142,93.49247,0,72.82016,45.94943,131.15544,124.07778,131.15544a134.361,134.361,0,0,0,43.8833-6.98974Z"/>
        <path class="a" d="M571.82757,931.377c-23.99734,0-38.08514,17.8911-38.08514,40.87068,0,22.33681,14.0878,40.22791,38.08514,40.22791,23.94371,0,38.03217-17.8911,38.03217-40.22791C609.85974,949.26812,595.77128,931.377,571.82757,931.377Z"/>
        <path class="a" d="M571.82894,839.73116c-27.651,0-51.26865,7.29741-70.24851,20.06786l12.37482,19.77111c15.6279-10.52843,35.09125-16.54,57.87369-16.54,64.33577,0,102.15254,48.04859,102.15254,109.75775,0,38.74-15.78171,72.51248-44.28993,91.56921l12.38582,19.78212c34.62969-23.13407,53.80735-64.116,53.80735-111.14251C695.88472,898.05543,649.92429,839.73116,571.82894,839.73116Z"/>
        <path class="a" d="M571.82894,885.84548c-18.00172,0-33.38781,4.75872-45.75162,13.0672l12.10006,19.32049c9.09974-6.12141,20.40848-9.61631,33.65156-9.61631,37.38813,0,59.40125,27.95872,59.40125,63.84131,0,22.51862-9.17674,42.15786-25.7497,53.24686l12.10007,19.32055c22.55155-15.0674,35.02531-41.78424,35.02531-72.40254C652.60587,923.82714,622.71289,885.84548,571.82894,885.84548Z"/>
      </g>
    </g>
    <g>
      <path class="a" d="M1725.49864,959.99731H1675.401c0-394.47556-320.929-715.4037-715.4046-715.4037V194.496a764.89219,764.89219,0,0,1,765.50226,765.50136Z"/>
      <path class="a" d="M1535.94185,959.99731h-50.09766c0-289.95324-235.89458-525.84782-525.84781-525.84782V384.05183c153.84082,0,298.47316,59.90954,407.25545,168.69C1476.03413,661.52414,1535.94185,806.15648,1535.94185,959.99731Z"/>
      <path class="a" d="M1346.38687,959.99731h-50.09765c0-185.43272-150.86012-336.29284-336.29284-336.29284V573.60681C1173.05275,573.60681,1346.38687,746.94093,1346.38687,959.99731Z"/>
    </g>
    <path class="a" d="M960,1910c-128.23993,0-252.65468-25.12042-369.78928-74.66421A953.28733,953.28733,0,0,1,84.66418,1329.78906C35.12041,1212.65586,10,1088.23962,10,959.99964s25.12041-252.65478,74.66418-369.7887A953.2984,953.2984,0,0,1,590.21072,84.66348C707.34532,35.12042,831.76007,10,960,10s252.65613,25.12042,369.78928,74.66348a953.28537,953.28537,0,0,1,505.54654,505.54746C1884.87959,707.34414,1910,831.75966,1910,959.99964s-25.12041,252.65622-74.66418,369.78942a953.2743,953.2743,0,0,1-505.54654,505.54673C1212.65613,1884.87958,1088.23993,1910,960,1910ZM960,49.98443c-501.78354,0-910.01559,408.23075-910.01559,910.01521,0,501.78373,408.232,910.01593,910.01559,910.01593s910.01559-408.2322,910.01559-910.01593C1870.01559,458.21518,1461.78354,49.98443,960,49.98443Z"/>
  </g>
</svg>
