<?xml version="1.0" encoding="utf-8"?>
<!-- Generator: Adobe Illustrator 27.2.0, SVG Export Plug-In . SVG Version: 6.00 Build 0)  -->
<svg version="1.1" id="Layer_1" xmlns="http://www.w3.org/2000/svg" xmlns:xlink="http://www.w3.org/1999/xlink" x="0px" y="0px"
	 viewBox="0 0 400 400" style="enable-background:new 0 0 400 400;" xml:space="preserve">
<path d="M222.8,49.8l25.5,78.5c3.2,9.9,12.4,16.6,22.8,16.6h82.5c23.2,0,32.9,29.8,14.1,43.4L301,236.7c-8.4,6.1-11.9,16.9-8.7,26.8
	l25.5,78.5c7.2,22.1-18.1,40.5-36.9,26.8l-66.7-48.5c-8.4-6.1-19.8-6.1-28.2,0l-66.7,48.5c-18.8,13.7-44.1-4.7-36.9-26.8l25.5-78.5
	c3.2-9.9-0.3-20.7-8.7-26.8l-66.7-48.5c-18.8-13.7-9.1-43.4,14.1-43.4h82.5c10.4,0,19.6-6.7,22.8-16.6l25.5-78.5
	C184.4,27.6,215.6,27.6,222.8,49.8L222.8,49.8z"/>
</svg>
