<?xml version="1.0" encoding="UTF-8"?>
<svg id="Layer_1" data-name="Layer 1" xmlns="http://www.w3.org/2000/svg" viewBox="0 0 400 400">
  <defs>
    <style>
      .cls-1 {
        fill: #f5fcfe;
      }
    </style>
  </defs>
  <path class="cls-1" d="m222.82,49.75l25.49,78.46c3.21,9.89,12.43,16.58,22.82,16.58h82.5c23.25,0,32.91,29.75,14.11,43.41l-66.74,48.49c-8.41,6.11-11.93,16.94-8.72,26.83l25.49,78.46c7.18,22.11-18.12,40.49-36.93,26.83l-66.74-48.49c-8.41-6.11-19.8-6.11-28.21,0l-66.74,48.49c-18.81,13.66-44.11-4.72-36.93-26.83l25.49-78.46c3.21-9.89-.31-20.72-8.72-26.83l-66.74-48.49c-18.81-13.66-9.14-43.41,14.11-43.41h82.5c10.4,0,19.61-6.69,22.82-16.58l25.49-78.46c7.18-22.11,38.46-22.11,45.65,0Z"/>
</svg>