<svg xmlns="http://www.w3.org/2000/svg" viewBox="0 0 1080 1080"><defs><style>.cls-1{fill:#c4e7e1;}.cls-2{fill:#ba5e1d;}.cls-3{fill:#35261c;}</style></defs><g id="LOGO"><g id="TWO_GOLDFISH_LOGO_COLOR" data-name="TWO GOLDFISH LOGO COLOR"><path d="M312.57,659.67V857.18H256.28V716L219.75,857.18H181.26L143.28,716V857.18H97.84V659.67h79.22l28.65,104.91,27.35-104.91Z"/><path d="M507.18,659.67V790.48q0,37.18-22.06,53.46T427.6,860.22q-37.34,0-60-15.63T345,793.66v-134h61.64v126.9q0,14.19,6,20.69t19.12,6.51q11,0,18-4.7t8.37-10.63q1.38-5.94,1.37-23.16V659.67Z"/><path d="M519.2,800l56.28-10.13q7.1,23.88,36.46,23.87,22.88,0,22.87-12.15a11.28,11.28,0,0,0-5.28-9.91q-5.29-3.54-18.89-6.29-52-10-66.71-26a54.07,54.07,0,0,1-14.75-37.78q0-27.93,21.2-46.46t61-18.53q60.35,0,79.73,48.48L640.88,720.3q-7.82-19.81-31.68-19.82-19.83,0-19.83,12.3a9.72,9.72,0,0,0,4.49,8.53q4.49,3,17.37,5.78,35.44,7.5,50.36,13.27a54.26,54.26,0,0,1,24.88,19.73q10,14,10,32.95,0,30-24.31,48.58t-63.81,18.6Q536.12,860.22,519.2,800Z"/><path d="M780.23,659.67V857.18H719.6V659.67Z"/><path d="M923.33,781.8l55.42,3.32q-3.91,36.33-26.85,55.71t-56.35,19.39q-40.23,0-65-26.62t-24.74-73.51q0-46.44,23.44-75t65.4-28.51q39.21,0,60.27,21.71t23.8,57.59l-56.58,3q0-19.83-7.6-28.65t-17.87-8.83q-28.65,0-28.65,57.59,0,32.26,7.46,43.84t20.9,11.58Q920.44,814.5,923.33,781.8Z"/><path d="M241.18,298.58v218.8H157.49V298.58H97.84V229.65h203v68.93Z"/><path d="M696.71,229.65,620.39,517.38h-74.2L505.94,358.66l-38,158.72H390.56L314.11,229.65h83.12l40.24,165.61,39.27-165.61h69.34l42.71,165.93L629.1,229.65Z"/><path class="cls-1" d="M842.15,521.81q-60.71,0-99-40.26T704.93,373.83q0-64.5,36.57-106.55T843,225.22q60.07,0,97.91,39.63t37.84,105.82q0,68.5-38.16,109.83T842.15,521.81Zm-.42-65.34q22.35,0,32.15-19.5t9.8-71.36q0-75-40.26-75-43.42,0-43.43,85.58Q800,456.46,841.73,456.47Z"/><path class="cls-2" d="M980,325.25a6.49,6.49,0,0,0-9.88-2.09,40.08,40.08,0,0,1-7.28,4.77A94.76,94.76,0,0,0,917,245.62c.06-16.86-4.76-26.48-16.51-25.81a5.44,5.44,0,0,0-5,6.86,32.61,32.61,0,0,1,1.2,9.8,94.85,94.85,0,0,0-100.83,29,8.21,8.21,0,0,0,.6-1.39c-9-16.55-33.7-17.54-44.89-6.9,8.25,11.19,28.53,16.87,38.94,12.77-10.71,10.58-11,29.85-2.46,39.79,14.2-9.42,21-37.32,10.59-43.74a47.38,47.38,0,0,1,59.25,3.16,30.12,30.12,0,0,1-10.63.44,5.19,5.19,0,0,0-5.8,5.62c1,11.7,11.62,14.71,28.86,11.74a47.37,47.37,0,0,1,1.55,30.51,37.49,37.49,0,0,1-9.45-9.74,6.48,6.48,0,0,0-10.06-.77c-9.66,10.15-4.67,21.94,10.66,34.89a47.46,47.46,0,0,0,19.92,46.4c25,17.17,56.64,7.76,70.09-19.4a96,96,0,0,0,5-12.26C977.73,348.28,986.62,338.13,980,325.25Z"/><path class="cls-3" d="M702.26,422.3a6.48,6.48,0,0,0,9.87,2.1,41.05,41.05,0,0,1,7.28-4.78,94.78,94.78,0,0,0,45.86,82.31c0,16.87,4.77,26.48,16.52,25.81a5.43,5.43,0,0,0,5-6.85,32.33,32.33,0,0,1-1.2-9.8,94.83,94.83,0,0,0,100.82-28.95,8.17,8.17,0,0,0-.59,1.39c9,16.55,33.69,17.54,44.88,6.89-8.24-11.18-28.53-16.86-38.93-12.76,10.7-10.58,11-29.85,2.45-39.8-14.2,9.42-21,37.33-10.58,43.75a47.38,47.38,0,0,1-50,3.29,47.88,47.88,0,0,1-9.21-6.45A30.34,30.34,0,0,1,835,478a5.18,5.18,0,0,0,5.8-5.62c-1-11.69-11.62-14.7-28.86-11.73a47.31,47.31,0,0,1-1.55-30.51,37.63,37.63,0,0,1,9.44,9.74,6.48,6.48,0,0,0,10.06.77c9.67-10.15,4.67-21.94-10.66-34.89a47.41,47.41,0,0,0-19.92-46.4c-25-17.17-56.64-7.76-70.08,19.4a94.91,94.91,0,0,0-5,12.26C704.52,399.28,695.63,409.43,702.26,422.3Z"/><path d="M190.1,583.1V639h-15a59.52,59.52,0,0,0-4-10.44q-9.27,12-27.46,12Q124.38,640.5,112,627T99.55,590.55q0-22.34,12-37.57t35.74-15.22q17.82,0,28.7,9t14.1,25.71l-29.65,2.92q-2.19-15.56-13.66-15.56-15,0-15,28.63,0,17.31,4.82,22.82a15,15,0,0,0,11.68,5.51,14,14,0,0,0,9.46-3.36,11.71,11.71,0,0,0,4-9.2h-16.5V583.1Z"/><path d="M249.32,640.5q-21,0-34.28-14t-13.26-37.31q0-22.35,12.67-36.92t35.16-14.56q20.82,0,33.92,13.72t13.11,36.66q0,23.75-13.22,38.05T249.32,640.5Zm-.15-22.64q7.74,0,11.14-6.75t3.4-24.72q0-26-13.95-26-15,0-15,29.65Q234.72,617.87,249.17,617.86Z"/><path d="M379.45,614.51V639H309.57V539.29h30.6v75.22Z"/><path d="M390.11,639V539.29h38.56q25.13,0,37.61,14.9a52,52,0,0,1,12.49,34.46q0,22.35-13.4,36.33t-34.8,14ZM420.71,616h8q7.6,0,12.82-7.38t5.22-20.08q0-10.87-4.64-18.77t-13.4-7.88h-8Z"/><path d="M554,601.65H521.49V639h-29.8V539.29h72.08V563H521.49v16.21H554Z"/><path d="M604.08,539.29V639h-30.6V539.29Z"/><path d="M611.16,610.12,639.57,605q3.58,12,18.4,12,11.55,0,11.54-6.13a5.72,5.72,0,0,0-2.66-5q-2.67-1.78-9.54-3.17-26.22-5-33.66-13.13a27.26,27.26,0,0,1-7.45-19.07,29.84,29.84,0,0,1,10.7-23.44q10.7-9.36,30.78-9.35,30.45,0,40.24,24.46l-25.34,7.67q-3.95-10-16-10-10,0-10,6.21a4.93,4.93,0,0,0,2.26,4.31c1.51,1,4.44,2,8.77,2.91q17.89,3.8,25.42,6.7a27.38,27.38,0,0,1,12.55,10,27.84,27.84,0,0,1,5,16.63q0,15.12-12.27,24.51t-32.2,9.39Q619.7,640.5,611.16,610.12Z"/><path d="M796.87,539.29V639h-30.6V600.19H742.9V639H712.3V539.29h30.6V576h23.37V539.29Z"/><path d="M889.17,615.16V639h-75V539.29h75v23h-45v14.46h36.37v22.13H844.19v16.28Z"/><path d="M891,610.12,919.41,605q3.57,12,18.4,12,11.54,0,11.54-6.13a5.7,5.7,0,0,0-2.67-5q-2.67-1.78-9.53-3.17-26.22-5-33.67-13.13A27.29,27.29,0,0,1,896,570.55a29.81,29.81,0,0,1,10.7-23.44q10.69-9.36,30.78-9.35,30.45,0,40.23,24.46l-25.34,7.67q-3.95-10-16-10-10,0-10,6.21a4.91,4.91,0,0,0,2.26,4.31q2.27,1.53,8.76,2.91,17.89,3.8,25.42,6.7a27.41,27.41,0,0,1,12.56,10,27.83,27.83,0,0,1,5,16.63q0,15.12-12.26,24.51T936,640.5Q899.55,640.5,891,610.12Z"/></g></g></svg>