<svg xmlns="http://www.w3.org/2000/svg" viewBox="0 0 1080 1080"><defs><style>.cls-1{fill:#c4e7e1;}.cls-2{fill:#35261c;}.cls-3{fill:#ba5e1d;}.cls-4{fill:#fff;}.cls-5{fill:#e6e6e6;}.cls-6{fill:#333;}</style></defs><g id="SCRAP"><path class="cls-1" d="M0,262.06V12.35A12.23,12.23,0,0,1,.24,9.94a12.55,12.55,0,0,1,.7-2.31A12.19,12.19,0,0,1,2.08,5.49,12.57,12.57,0,0,1,5.49,2.08,12.19,12.19,0,0,1,7.63.94,12.55,12.55,0,0,1,9.94.24,12.23,12.23,0,0,1,12.35,0H288.53a12.16,12.16,0,0,1,2.41.24,12.41,12.41,0,0,1,2.32.7,12.45,12.45,0,0,1,4,2.68,12.49,12.49,0,0,1,1.53,1.87,12.19,12.19,0,0,1,1.14,2.14,12.58,12.58,0,0,1,.71,2.31,13,13,0,0,1,.23,2.41V262.06a13,13,0,0,1-.23,2.41,12.44,12.44,0,0,1-.71,2.32,12.37,12.37,0,0,1-6.68,6.68,12.44,12.44,0,0,1-2.32.71,13,13,0,0,1-2.41.23H12.35a13,13,0,0,1-2.41-.23,12.58,12.58,0,0,1-2.31-.71,12.19,12.19,0,0,1-2.14-1.14,12,12,0,0,1-1.87-1.54,11.52,11.52,0,0,1-1.54-1.87,12.1,12.1,0,0,1-1.14-2.13,12.41,12.41,0,0,1-.7-2.32A12.23,12.23,0,0,1,0,262.06Z"/><path class="cls-2" d="M780,262.06V12.35a12.23,12.23,0,0,1,.24-2.41,11.82,11.82,0,0,1,.7-2.31,12.19,12.19,0,0,1,1.14-2.14,12,12,0,0,1,1.54-1.87,11.52,11.52,0,0,1,1.87-1.54A12.1,12.1,0,0,1,787.62.94a12.64,12.64,0,0,1,2.32-.7A12.23,12.23,0,0,1,792.35,0h275.3a12.23,12.23,0,0,1,2.41.24,12.55,12.55,0,0,1,2.31.7,12.19,12.19,0,0,1,2.14,1.14,12.57,12.57,0,0,1,3.41,3.41,12.19,12.19,0,0,1,1.14,2.14,12.55,12.55,0,0,1,.7,2.31,12.23,12.23,0,0,1,.24,2.41V262.06a12.23,12.23,0,0,1-.24,2.41,12.41,12.41,0,0,1-.7,2.32,12.1,12.1,0,0,1-1.14,2.13,11.52,11.52,0,0,1-1.54,1.87,12,12,0,0,1-1.87,1.54,12.19,12.19,0,0,1-2.14,1.14,12.58,12.58,0,0,1-2.31.71,13,13,0,0,1-2.41.23H792.35a13,13,0,0,1-2.41-.23,12.68,12.68,0,0,1-2.32-.71,12.1,12.1,0,0,1-2.13-1.14,12.57,12.57,0,0,1-3.41-3.41,12.1,12.1,0,0,1-1.14-2.13,11.71,11.71,0,0,1-.7-2.32A12.23,12.23,0,0,1,780,262.06Z"/><path class="cls-3" d="M389.56,262.06V12.35a12.23,12.23,0,0,1,.24-2.41,11.82,11.82,0,0,1,.7-2.31,12.19,12.19,0,0,1,1.14-2.14,12,12,0,0,1,1.54-1.87,11.52,11.52,0,0,1,1.87-1.54A12.1,12.1,0,0,1,397.18.94a12.64,12.64,0,0,1,2.32-.7A12.23,12.23,0,0,1,401.91,0H678.09a12.23,12.23,0,0,1,2.41.24,12.64,12.64,0,0,1,2.32.7A12.1,12.1,0,0,1,685,2.08a11.52,11.52,0,0,1,1.87,1.54,12,12,0,0,1,1.54,1.87,12.19,12.19,0,0,1,1.14,2.14,11.82,11.82,0,0,1,.7,2.31,12.23,12.23,0,0,1,.24,2.41V262.06a12.23,12.23,0,0,1-.24,2.41,11.71,11.71,0,0,1-.7,2.32,12.1,12.1,0,0,1-1.14,2.13,12.57,12.57,0,0,1-3.41,3.41,12.1,12.1,0,0,1-2.13,1.14,12.68,12.68,0,0,1-2.32.71,13,13,0,0,1-2.41.23H401.91a13,13,0,0,1-2.41-.23,12.68,12.68,0,0,1-2.32-.71,12.1,12.1,0,0,1-2.13-1.14,12.57,12.57,0,0,1-3.41-3.41,12.1,12.1,0,0,1-1.14-2.13,11.71,11.71,0,0,1-.7-2.32A12.23,12.23,0,0,1,389.56,262.06Z"/><path d="M56.5,243.72l13.47.81q-1,8.82-6.52,13.54a20.51,20.51,0,0,1-13.7,4.71q-9.76,0-15.78-6.47t-6-17.86q0-11.28,5.69-18.21t15.89-6.93q9.52,0,14.64,5.28t5.79,14l-13.75.74q0-4.81-1.84-7A5.58,5.58,0,0,0,50,224.21q-7,0-7,14,0,7.85,1.81,10.66A5.73,5.73,0,0,0,50,251.67Q55.8,251.67,56.5,243.72Z"/><path d="M112.58,251.49h-6.75V262H92.61V251.49H73V241.05l18.07-27.74h14.77v27.74h6.75Zm-20-10.44V226.72l-9.09,14.33Z"/><path d="M153.67,250.58V262h-36.1v-48h36.1v11.07H132v7h17.51v10.65H132v7.84Z"/><path d="M194.07,214.05v9q-5.23,6.15-9,16.38A56.66,56.66,0,0,0,181.31,259c0,.6,0,1.61.14,3H165.59a48.92,48.92,0,0,1,4.13-18.49,57.35,57.35,0,0,1,11.1-17.48H158.56l1-12Z"/><path d="M237.84,250.58V262H201.73v-48h36.11v11.07H216.18v7h17.51v10.65H216.18v7.84Z"/><path d="M269.66,251.35H281V262H244.06V251.35h11.85V228.54a43.15,43.15,0,0,1-10.55,3.51V221.26q10.23-2.22,13.89-7.95h10.41Z"/><path d="M412.43,251.49v-48H436.8q7.59,0,11.07,3.84a12.64,12.64,0,0,1,3.48,8.75,11.09,11.09,0,0,1-2,6.49,10.38,10.38,0,0,1-6,4q9.31,2.25,9.32,11.18a15.08,15.08,0,0,1-3.29,9.54q-3.29,4.2-14,4.2ZM426,221.89h6.83a4.42,4.42,0,0,0,3.62-1.3,4.35,4.35,0,0,0,1.05-2.78q0-4-4.92-4H426Zm0,18.91h7.18a5.18,5.18,0,0,0,3.92-1.31,4.22,4.22,0,0,0,1.24-3,4.53,4.53,0,0,0-1.21-3.05c-.81-.92-2.29-1.38-4.45-1.38H426Z"/><path d="M485.16,251.49,482.45,242H469.59l-2.88,9.45h-12l14.82-48h15.57l15.05,48ZM472.1,231.56h7.76L476,217.64Z"/><path d="M537.34,215.35h-20.1l-.57,6.79a14.81,14.81,0,0,1,8.65-2.71,15.64,15.64,0,0,1,10.93,4.29q4.68,4.29,4.68,11.46a15.55,15.55,0,0,1-5.45,12.3q-5.44,4.76-13.92,4.75a21.3,21.3,0,0,1-12.78-3.88,16.3,16.3,0,0,1-6.63-10.85L514.53,236q1.23,5.23,6.71,5.24a5.64,5.64,0,0,0,4.34-1.69,5.82,5.82,0,0,0,1.57-4.11,5.38,5.38,0,0,0-1.79-4.29,6.69,6.69,0,0,0-9.88,1.47l-11-1.54,2.11-27.57h32Z"/><path d="M582.94,240v11.46h-36.1v-48h36.1v11.08H561.29v7h17.5v10.65h-17.5V240Z"/><path d="M614.76,240.8h11.32v10.69H589.17V240.8H601V218a43.11,43.11,0,0,1-10.54,3.51V210.71q10.23-2.22,13.88-7.94h10.41Z"/><path d="M631,251.49v-48h18.56q12.11,0,18.11,7.18a25,25,0,0,1,6,16.59q0,10.75-6.45,17.49t-16.75,6.73Zm14.73-11h3.83a7.37,7.37,0,0,0,6.17-3.55q2.52-3.54,2.52-9.67a17.48,17.48,0,0,0-2.24-9,7.07,7.07,0,0,0-6.45-3.8h-3.83Z"/><path class="cls-4" d="M804.47,228.21,817,226.66q1.23,6.57,7,6.57a6.46,6.46,0,0,0,4.29-1.37,4.54,4.54,0,0,0,1.65-3.69,4.39,4.39,0,0,0-.89-2.72,5.31,5.31,0,0,0-1.92-1.66,9.3,9.3,0,0,0-3.52-.47H817.8v-10h4.92q3.93,0,5.06-1.41a4.61,4.61,0,0,0,1.13-2.91,4.09,4.09,0,0,0-1.41-3.17,5.33,5.33,0,0,0-3.69-1.26c-3.28,0-5.29,1.83-6,5.48l-11.6-1.83a17,17,0,0,1,6.69-10.4A20.28,20.28,0,0,1,825,194.14q7.86,0,12.65,3.69a11.8,11.8,0,0,1,4.78,9.85,10.53,10.53,0,0,1-2,6.43,9.78,9.78,0,0,1-5.15,3.69q8.65,2.64,8.65,11.29a12.44,12.44,0,0,1-5.26,10.7q-5.25,3.81-13.62,3.82Q808.24,243.61,804.47,228.21Z"/><path class="cls-4" d="M882.73,206.73H862.62l-.56,6.78a14.86,14.86,0,0,1,8.65-2.71,15.66,15.66,0,0,1,10.93,4.29q4.68,4.29,4.68,11.46a15.57,15.57,0,0,1-5.45,12.31q-5.45,4.74-13.92,4.75a21.26,21.26,0,0,1-12.78-3.89,16.28,16.28,0,0,1-6.63-10.84l12.38-1.52c.82,3.5,3.05,5.24,6.71,5.24a5.61,5.61,0,0,0,4.34-1.69,5.83,5.83,0,0,0,1.57-4.11,5.35,5.35,0,0,0-1.8-4.29,6.69,6.69,0,0,0-9.88,1.48l-11-1.55L852,194.88h32Z"/><path class="cls-4" d="M927.27,231.09l-.52,11.78H890.19v-11l8.16-5.73c1.2-.82,3.44-2.59,6.71-5.29a37.22,37.22,0,0,0,6.41-6.24A8,8,0,0,0,913,210a5.16,5.16,0,0,0-1.31-3.68,4.5,4.5,0,0,0-3.42-1.39q-5.29,0-5.93,8.3l-12.12-2.35q1.34-8.48,6.62-12.61a19.73,19.73,0,0,1,12.5-4.13q7.8,0,12.74,4.18A13.86,13.86,0,0,1,927,209.47a16,16,0,0,1-2.69,8.82q-2.68,4.19-15.73,12.8Z"/><path class="cls-4" d="M969.46,208.45l-12.27,1.48c-.37-3.85-1.94-5.77-4.69-5.77q-6,0-6.14,12.48,2.82-4.42,9.69-4.43a14.13,14.13,0,0,1,10.58,4.18,14.8,14.8,0,0,1,4.06,10.76,15.28,15.28,0,0,1-5.15,11.67q-5.14,4.78-13.27,4.79a19.72,19.72,0,0,1-10.58-2.87,17.68,17.68,0,0,1-7-8.45,31.23,31.23,0,0,1-2.35-12.24q0-11.33,5.17-18.61t14.73-7.3a18.09,18.09,0,0,1,11.51,3.71A15.65,15.65,0,0,1,969.46,208.45Zm-17.63,25.38a4.9,4.9,0,0,0,3.88-1.65,5.89,5.89,0,0,0,1.45-4,6.37,6.37,0,0,0-1.43-4.12,4.61,4.61,0,0,0-3.76-1.75,5.07,5.07,0,0,0-4,1.74,6,6,0,0,0-1.55,4.16,5.78,5.78,0,0,0,1.48,4A5,5,0,0,0,951.83,233.83Z"/><path class="cls-4" d="M1001.35,232.18h11.32v10.69H975.76V232.18H987.6V209.36a42.79,42.79,0,0,1-10.54,3.52V202.09q10.23-2.22,13.88-8h10.41Z"/><path class="cls-4" d="M1044,224.55l13.47.81q-.95,8.82-6.52,13.53a20.46,20.46,0,0,1-13.7,4.72q-9.77,0-15.78-6.47t-6-17.86q0-11.29,5.69-18.21t15.89-6.93q9.53,0,14.65,5.27t5.78,14l-13.75.73q0-4.81-1.84-7a5.57,5.57,0,0,0-4.35-2.14q-7,0-7,14,0,7.84,1.81,10.65a5.72,5.72,0,0,0,5.08,2.82Q1043.28,232.5,1044,224.55Z"/><path d="M55.63,373.28v36.49h-14V373.28H31.73v-11.5H65.58v11.5Z"/><path d="M84.5,361.78v48H69.77v-48Z"/><path d="M112.59,373.28v36.49h-14V373.28H88.68v-11.5h33.86v11.5Z"/><path d="M160.36,398v11.78H126.72v-48h14.73V398Z"/><path d="M201.6,398.31v11.46H165.5v-48h36.1v11.07H180v7h17.5v10.65H180v7.84Z"/><path d="M202.48,395.88l13.68-2.46q1.72,5.81,8.86,5.8,5.55,0,5.55-3a2.75,2.75,0,0,0-1.28-2.41,14.09,14.09,0,0,0-4.59-1.53q-12.63-2.41-16.21-6.32a13.12,13.12,0,0,1-3.58-9.18,14.35,14.35,0,0,1,5.15-11.29q5.15-4.5,14.82-4.5,14.66,0,19.37,11.78l-12.2,3.69q-1.91-4.81-7.7-4.82-4.82,0-4.82,3a2.4,2.4,0,0,0,1.09,2.08,13.41,13.41,0,0,0,4.22,1.4,91.17,91.17,0,0,1,12.24,3.22,13.24,13.24,0,0,1,6,4.8,13.38,13.38,0,0,1,2.43,8A14.19,14.19,0,0,1,239.64,406q-5.91,4.51-15.5,4.52Q206.59,410.51,202.48,395.88Z"/><path d="M300.11,361.78l-32.47,59.27h-7.05l32.35-59.27Z"/><path d="M357.63,398v11.78H324v-48h14.73V398Z"/><path d="M382.87,410.51q-10.12,0-16.51-6.72t-6.38-18q0-10.75,6.1-17.77T383,361q10,0,16.33,6.61t6.31,17.65q0,11.43-6.36,18.32A21.37,21.37,0,0,1,382.87,410.51Zm-.07-10.9a5.58,5.58,0,0,0,5.36-3.25q1.63-3.25,1.63-11.9,0-12.52-6.71-12.52-7.24,0-7.24,14.27Q375.84,399.61,382.8,399.61Z"/><path d="M453.32,382.87v26.9h-7.21a28.55,28.55,0,0,0-1.93-5q-4.47,5.76-13.22,5.77A19.86,19.86,0,0,1,415.7,404q-6-6.48-6-17.56,0-10.75,5.78-18.09T432.72,361q8.58,0,13.82,4.36t6.78,12.38l-14.27,1.4q-1.07-7.49-6.58-7.49-7.23,0-7.24,13.79,0,8.32,2.32,11a7.22,7.22,0,0,0,5.63,2.66,6.73,6.73,0,0,0,4.55-1.62,5.68,5.68,0,0,0,1.92-4.43H431.7v-10.2Z"/><path d="M481.83,410.51q-10.12,0-16.5-6.72t-6.38-18q0-10.75,6.1-17.77T482,361q10,0,16.33,6.61t6.31,17.65q0,11.43-6.36,18.32T481.83,410.51Zm-.07-10.9a5.57,5.57,0,0,0,5.36-3.25q1.63-3.25,1.64-11.9,0-12.52-6.72-12.52-7.23,0-7.24,14.27Q474.8,399.61,481.76,399.61Z"/><path d="M541.21,374v12.8H527.85V374Zm0,22.93v12.83H527.85V396.94Z"/><path d="M65.9,478.2H50.25v18H35.91v-48h34.7v11.43H50.25v7.8H65.9Z"/><path d="M118,496.17H101.67l-7-18.35H90v18.35H75.29v-48h25.06q8.3,0,12.89,3.89a12.75,12.75,0,0,1,4.59,10.24,15.45,15.45,0,0,1-1.69,7.33q-1.69,3.18-6.82,5.61ZM90,467.55h6.29a7.67,7.67,0,0,0,4.46-1.16,3.86,3.86,0,0,0,1.69-3.41c0-3.07-1.88-4.6-5.66-4.6H90Z"/><path d="M151.42,496.17l-2.71-9.46H135.86L133,496.17H121l14.81-48H151.4l15.06,48Zm-13.06-19.93h7.76l-3.88-13.93Z"/><path d="M211.9,496.17h-12L186.77,475a81.82,81.82,0,0,1-5.1-9.91,33.49,33.49,0,0,1,1.16,7.87v23.24h-12v-48H184.8L196,465.76A67.46,67.46,0,0,1,201,475a69.85,69.85,0,0,1-1.12-12.59v-14.2h12Z"/><path d="M263.55,496.17H247.43L239.13,478l-5,7.06v11.08H220.27v-48h13.89V468l13.23-19.84h13.24l-12.12,17.56Z"/><path d="M301.13,484.39v11.78H267.49v-48h14.73v36.21Z"/><path d="M321,448.18v48H306.26v-48Z"/><path d="M370.39,496.17h-12L345.26,475a81.76,81.76,0,0,1-5.11-9.91,33,33,0,0,1,1.16,7.87v23.24H329.36v-48h13.92l11.18,17.58a66.39,66.39,0,0,1,5.06,9.21,69.85,69.85,0,0,1-1.12-12.59v-14.2h12Z"/><path d="M438.2,469.27v26.9H431a28.51,28.51,0,0,0-1.94-5q-4.46,5.78-13.22,5.77a19.8,19.8,0,0,1-15.25-6.49q-6-6.48-6-17.56,0-10.75,5.78-18.09t17.21-7.33q8.58,0,13.82,4.36t6.78,12.38l-14.27,1.4q-1.05-7.49-6.57-7.49-7.25,0-7.25,13.79,0,8.33,2.32,11a7.23,7.23,0,0,0,5.63,2.66,6.73,6.73,0,0,0,4.55-1.62,5.65,5.65,0,0,0,1.92-4.43h-7.95v-10.2Z"/><path d="M466.72,496.91q-10.12,0-16.51-6.72t-6.38-18q0-10.75,6.1-17.77t16.93-7q10,0,16.33,6.61t6.31,17.65q0,11.43-6.37,18.32A21.33,21.33,0,0,1,466.72,496.91Zm-.07-10.9a5.58,5.58,0,0,0,5.36-3.25q1.64-3.25,1.63-11.9,0-12.53-6.71-12.52-7.24,0-7.25,14.27Q459.68,486,466.65,486Z"/><path d="M515.44,459.68v36.49h-14V459.68h-9.95v-11.5h33.85v11.5Z"/><path d="M570.29,448.18v48H555.56V477.5H544.31v18.67H529.58v-48h14.73v17.65h11.25V448.18Z"/><path d="M593.35,448.18v48H578.62v-48Z"/><path d="M628.12,477.85l13.46.81q-.95,8.82-6.52,13.54a20.48,20.48,0,0,1-13.69,4.71q-9.78,0-15.79-6.47t-6-17.86q0-11.28,5.7-18.21t15.89-6.93q9.52,0,14.64,5.28t5.78,14l-13.74.74q0-4.81-1.85-7a5.58,5.58,0,0,0-4.34-2.15q-7,0-7,14,0,7.85,1.81,10.66a5.73,5.73,0,0,0,5.08,2.81Q627.42,485.8,628.12,477.85Z"/><path d="M705.67,448.18v48H690.94V477.5H679.69v18.67H665v-48h14.73v17.65h11.25V448.18Z"/><path d="M750.11,484.71v11.46H714v-48h36.11v11.07H728.45v7H746v10.65H728.45v7.84Z"/><path d="M782.41,496.17l-2.71-9.46H766.84L764,496.17H752l14.81-48h15.58l15.05,48Zm-13.07-19.93h7.77l-3.88-13.93Z"/><path d="M840.51,448.18l-14.9,48h-15l-15.57-48h15.52l7.6,26.16c.52,1.54,1,3.07,1.38,4.57l8.86-30.73Z"/><path d="M884.77,448.18l-15,27.67v20.32H855.44V475.85l-16.15-27.67h16.12L863.82,464l8.07-15.82Z"/><path d="M52.22,611.7h-6V569H32.47v-5.28H66V569H52.22Z"/><path d="M91,601.12l5.13,1a14.48,14.48,0,0,1-5.49,7.54,15.83,15.83,0,0,1-9.59,3,15,15,0,0,1-11.78-5.12q-4.5-5.13-4.5-13.43,0-8.48,4.68-13.71a15.09,15.09,0,0,1,11.74-5.22A14.14,14.14,0,0,1,92.35,580q4.25,4.82,4.35,14.41H70.89q0,8.05,3.38,10.86a11,11,0,0,0,7.13,2.82C85.93,608.12,89.11,605.78,91,601.12Zm-.32-10.79a15.65,15.65,0,0,0-1-5.31,9.09,9.09,0,0,0-3.1-4,8.47,8.47,0,0,0-5.24-1.63,9.35,9.35,0,0,0-7,3,12.21,12.21,0,0,0-3.21,8Z"/><path d="M128.51,611.7h-6.36l-9-14.42-9.25,14.42H98.49l12-18.46-10.8-17H106l7.53,12.1,7.79-12.1h5.31l-10.32,15.89Z"/><path d="M150.38,607.94v4.36a39,39,0,0,1-5.06.39q-10.31,0-10.3-10.77v-21.4h-6.3v-4.33H135l.24-8.93,5.14-.49v9.42h7.94v4.33H140.4v22.31c0,3.67,1.89,5.5,5.69,5.5A26.85,26.85,0,0,0,150.38,607.94Z"/><path d="M170.23,623.69h-4.71l29-60h4.71Z"/><path d="M254,606.43v5.27H225.61v-48h6.16v42.72Z"/><path d="M266.08,563.71v6.16h-5.94v-6.16Zm-.18,12.48V611.7h-5.52V576.19Z"/><path d="M305.91,570.64V575c-2.53,0-4.22.3-5.08.88a4.68,4.68,0,0,0-1.7,3.17,12.84,12.84,0,0,1,3.41,8.57,11,11,0,0,1-3.71,8.34q-3.72,3.48-10,3.48a12.21,12.21,0,0,1-2.43-.21,17.3,17.3,0,0,0-2.42-.39,4.28,4.28,0,0,0-2.29.93,2.81,2.81,0,0,0-1.33,2.41,2.61,2.61,0,0,0,1.93,2.74q1.94.63,9.11.81a51.29,51.29,0,0,1,9,.83,9.07,9.07,0,0,1,4.9,2.88,7.88,7.88,0,0,1,2,5.47q0,10.15-17.86,10.16-8.47,0-12.36-2.56a7.8,7.8,0,0,1-3.88-6.81q0-5.16,5.41-7.11-3.48-2.28-3.48-5.72,0-4.11,4.92-6.29a11.58,11.58,0,0,1-4.6-9.38,10.88,10.88,0,0,1,3.93-8.65,14.26,14.26,0,0,1,9.6-3.37,17.12,17.12,0,0,1,7.28,1.51q.53-3.48,2.44-4.82t5.82-1.33C304.8,570.57,305.25,570.59,305.91,570.64Zm-23.48,39.62q-3.87,1.68-3.87,4.89,0,2.7,3.18,4.2a19.18,19.18,0,0,0,8.1,1.49,26.15,26.15,0,0,0,8.37-1.28c2.53-.86,3.8-2.3,3.8-4.34a3.55,3.55,0,0,0-1.13-2.71,5.55,5.55,0,0,0-3.07-1.34q-1.95-.27-6.81-.42C287.14,610.66,284.28,610.49,282.43,610.26Zm6.61-15a7.87,7.87,0,0,0,5.73-2.16,7.53,7.53,0,0,0,2.21-5.61,7.74,7.74,0,0,0-7.87-8,8.29,8.29,0,0,0-5.56,2.09,8.38,8.38,0,0,0-.24,11.53A7.84,7.84,0,0,0,289,595.25Z"/><path d="M340.12,611.7H334.6V590.15a24.94,24.94,0,0,0-.48-5.69,5.9,5.9,0,0,0-2.25-3.29,6.41,6.41,0,0,0-4.09-1.39,8.86,8.86,0,0,0-7.12,3.48q-2.87,3.48-2.87,9.32V611.7h-5.52v-48h5.52v19q3.76-7.51,10.76-7.52a12.21,12.21,0,0,1,5.57,1.23,9.41,9.41,0,0,1,3.75,3.23,13,13,0,0,1,1.77,4,30.68,30.68,0,0,1,.48,6.52Z"/><path d="M367.26,607.94v4.36a39,39,0,0,1-5.06.39q-10.31,0-10.3-10.77v-21.4h-6.3v-4.33h6.3l.24-8.93,5.13-.49v9.42h8v4.33h-8v22.31q0,5.5,5.7,5.5A27,27,0,0,0,367.26,607.94Z"/><path d="M398.76,576.19v7.88h-7.88v-7.88Zm0,27.64v7.87h-7.88v-7.87Z"/><path d="M43.75,698.1h-6v-48H67.13v5.28H43.75v15.15H63.12v4.85H43.75Z"/><path d="M76.87,698.1H71.35V662.59H76.2v8.3q2.56-5.86,5.15-7.61a9.37,9.37,0,0,1,5.29-1.74c.56,0,1.29.05,2.18.14V667H87.7a9.75,9.75,0,0,0-7.6,3.41,13.88,13.88,0,0,0-3.23,9Z"/><path d="M122.85,698.1H117.4c-.21-1.12-.42-3.26-.63-6.4q-3.66,7.38-12.44,7.39-6,0-9.18-3.17a10.35,10.35,0,0,1-3.2-7.61,10.64,10.64,0,0,1,4.57-8.85Q101.1,676,112.06,676c1,0,2.55,0,4.71.14a20.56,20.56,0,0,0-.65-6.1,5.43,5.43,0,0,0-2.76-3,11.82,11.82,0,0,0-5.55-1.12c-5.61,0-8.86,2.13-9.78,6.4l-5.1-.88q1.88-9.81,15.68-9.81,7.35,0,10.43,3.25t3.07,11.27v15.08A30.08,30.08,0,0,0,122.85,698.1Zm-6.08-17.75q-3.37-.21-5.13-.21-6.54,0-10.16,2.15a6.86,6.86,0,0,0-3.62,6.27,5.86,5.86,0,0,0,2,4.44,7.94,7.94,0,0,0,5.64,1.83,10.49,10.49,0,0,0,8.21-3.63,12.47,12.47,0,0,0,3.22-8.53C116.88,682,116.84,681.24,116.77,680.35Z"/><path d="M161.14,698.1H156V675.29c0-3.29-.72-5.59-2.14-6.93a7.34,7.34,0,0,0-5.21-2,8.93,8.93,0,0,0-7.08,3.37,13.28,13.28,0,0,0-2.87,8.89V698.1h-5.52V662.59h5.14v6.54q4.32-7.51,11.21-7.52a11,11,0,0,1,6.77,2.06,10.91,10.91,0,0,1,3.83,4.62q1,2.57,1,9.28Z"/><path d="M201.5,698.1h-5.72L185.4,678.28l-7.7,8.85v11h-5.52v-48h5.52v30.77l16.49-18.29h5.9L189,675.06Z"/><path d="M213.77,698.1h-5.52v-48h5.52Z"/><path d="M230.5,650.11v6.16h-5.94v-6.16Zm-.17,12.48V698.1h-5.52V662.59Z"/><path d="M269.31,698.1h-5.16V675.29c0-3.29-.72-5.59-2.15-6.93a7.31,7.31,0,0,0-5.2-2,9,9,0,0,0-7.09,3.37,13.28,13.28,0,0,0-2.86,8.89V698.1h-5.52V662.59h5.13v6.54q4.32-7.51,11.22-7.52a11.4,11.4,0,0,1,10.6,6.68q1,2.57,1,9.28Z"/><path d="M334.39,673.91v24.86h-3.68l-1.65-6q-4.43,6.33-13.19,6.33-9.5,0-14.77-7.15t-5.28-17.34q0-10.9,5.59-18.19a18.14,18.14,0,0,1,15.19-7.28q13.25,0,17.3,13.92l-5.7,1.37q-1.23-5.34-4.61-7.77a12.42,12.42,0,0,0-7.38-2.42q-7.09,0-10.47,5.73t-3.38,14.39q0,9.33,3.78,14.59a12,12,0,0,0,10.28,5.26,11.5,11.5,0,0,0,8.46-3.37q3.39-3.36,3.39-9.28c0-.73,0-1.6-.07-2.61H316.32v-5Z"/><path d="M357.66,699.09a13.51,13.51,0,0,1-11.41-5.42,21.69,21.69,0,0,1-4.09-13.45q0-8.47,4.6-13.54a14.85,14.85,0,0,1,11.46-5.07,14,14,0,0,1,11.59,5.33A20.74,20.74,0,0,1,374,680.26q0,8.31-4.57,13.57A14.93,14.93,0,0,1,357.66,699.09Zm.42-4.57a8.78,8.78,0,0,0,7.07-3.48c1.9-2.33,2.85-5.93,2.85-10.83s-1-8.49-3-10.71a9.16,9.16,0,0,0-7-3.32,8.8,8.8,0,0,0-7,3.36q-2.85,3.36-2.85,10.63,0,7.7,2.85,11A8.89,8.89,0,0,0,358.08,694.52Z"/><path d="M397.88,694.34v4.36a39,39,0,0,1-5.06.39q-10.31,0-10.3-10.77v-21.4h-6.3v-4.33h6.3l.24-8.93,5.14-.49v9.42h7.94v4.33H387.9v22.32c0,3.66,1.89,5.49,5.69,5.49A26.85,26.85,0,0,0,397.88,694.34Z"/><path d="M431.77,698.1h-5.52V676.55a25.66,25.66,0,0,0-.47-5.69,6,6,0,0,0-2.25-3.29,6.46,6.46,0,0,0-4.1-1.39,8.86,8.86,0,0,0-7.12,3.48q-2.87,3.48-2.86,9.32V698.1h-5.52v-48h5.52v19q3.75-7.51,10.75-7.52a12.25,12.25,0,0,1,5.58,1.23,9.38,9.38,0,0,1,3.74,3.23,13,13,0,0,1,1.78,4,31.55,31.55,0,0,1,.47,6.52Z"/><path d="M448.5,650.11v6.16h-5.94v-6.16Zm-.17,12.48V698.1h-5.52V662.59Z"/><path d="M480.32,685.66l5,.88a15.88,15.88,0,0,1-4.67,9.21,12.82,12.82,0,0,1-9,3.34q-7.35,0-11.19-5.42a22.26,22.26,0,0,1-3.85-13.23q0-8.1,4.06-13.46a13.1,13.1,0,0,1,11.05-5.37,12.63,12.63,0,0,1,9.3,3.46,15.51,15.51,0,0,1,4.34,8.95l-5,1q-1.4-8.79-8.49-8.79a7.84,7.84,0,0,0-7,3.88q-2.46,3.88-2.45,10.08,0,6.81,2.43,10.6a7.73,7.73,0,0,0,6.86,3.78C476.22,694.52,479.1,691.56,480.32,685.66Z"/><path d="M511.36,698.1v-48h19q7.17,0,10.63,3.52a11.25,11.25,0,0,1,3.47,8.15q0,8.15-8.51,10.82a12.89,12.89,0,0,1,7.52,4.64,12.44,12.44,0,0,1,2.46,7.56,12.87,12.87,0,0,1-3.81,9.48c-2.55,2.55-6.46,3.82-11.76,3.82Zm5.81-27.42h10.44c4.33,0,7.23-.83,8.68-2.48a8.54,8.54,0,0,0,2.18-5.82,6.75,6.75,0,0,0-2.34-5.34c-1.56-1.36-3.88-2-7-2h-12Zm0,22.15H530q4.71,0,7.28-2.29a7.58,7.58,0,0,0,2.57-5.94,10.06,10.06,0,0,0-1.16-4.76,8.22,8.22,0,0,0-3.27-3.39,13.07,13.07,0,0,0-6.3-1.2h-12Z"/><path d="M567.12,699.09a13.51,13.51,0,0,1-11.41-5.42,21.69,21.69,0,0,1-4.09-13.45q0-8.47,4.6-13.54a14.85,14.85,0,0,1,11.46-5.07,14,14,0,0,1,11.59,5.33,20.74,20.74,0,0,1,4.23,13.32q0,8.31-4.57,13.57A14.93,14.93,0,0,1,567.12,699.09Zm.42-4.57a8.78,8.78,0,0,0,7.07-3.48c1.9-2.33,2.85-5.93,2.85-10.83s-1-8.49-3-10.71a9.15,9.15,0,0,0-7-3.32,8.8,8.8,0,0,0-7,3.36q-2.85,3.36-2.84,10.63,0,7.7,2.84,11A8.89,8.89,0,0,0,567.54,694.52Z"/><path d="M604.53,699.09a13.49,13.49,0,0,1-11.41-5.42,21.69,21.69,0,0,1-4.1-13.45q0-8.47,4.61-13.54a14.85,14.85,0,0,1,11.46-5.07,14,14,0,0,1,11.58,5.33q4.25,5.32,4.24,13.32,0,8.31-4.57,13.57A14.94,14.94,0,0,1,604.53,699.09Zm.42-4.57A8.8,8.8,0,0,0,612,691c1.9-2.33,2.84-5.93,2.84-10.83s-1-8.49-3-10.71a9.18,9.18,0,0,0-7-3.32,8.8,8.8,0,0,0-7,3.36q-2.85,3.36-2.85,10.63,0,7.7,2.85,11A8.89,8.89,0,0,0,605,694.52Z"/><path d="M658.53,698.1h-5.72l-10.38-19.82-7.7,8.85v11h-5.52v-48h5.52v30.77l16.49-18.29h5.9L646,675.06Z"/><path class="cls-2" d="M720.54,1065.2V766a15.63,15.63,0,0,1,.28-2.89,15,15,0,0,1,.85-2.77,15.3,15.3,0,0,1,1.36-2.56,15.3,15.3,0,0,1,4.09-4.09,14.6,14.6,0,0,1,2.56-1.36,15,15,0,0,1,2.77-.85,15.63,15.63,0,0,1,2.89-.28H1065.2a15.63,15.63,0,0,1,2.89.28,15,15,0,0,1,2.77.85,14.6,14.6,0,0,1,2.56,1.36,15.3,15.3,0,0,1,4.09,4.09,14.6,14.6,0,0,1,1.36,2.56,14.29,14.29,0,0,1,.85,2.77A14.82,14.82,0,0,1,1080,766v299.2a14.82,14.82,0,0,1-.28,2.89,14.29,14.29,0,0,1-.85,2.77,14.6,14.6,0,0,1-1.36,2.56,15.3,15.3,0,0,1-4.09,4.09,14.6,14.6,0,0,1-2.56,1.36,14.29,14.29,0,0,1-2.77.85,14.82,14.82,0,0,1-2.89.28H735.34a14.82,14.82,0,0,1-2.89-.28,14.29,14.29,0,0,1-2.77-.85,14.6,14.6,0,0,1-2.56-1.36,15.3,15.3,0,0,1-4.09-4.09,15.3,15.3,0,0,1-1.36-2.56,15,15,0,0,1-.85-2.77A15.63,15.63,0,0,1,720.54,1065.2Z"/></g><g id="LOGO"><path class="cls-1" d="M950.25,699.78q-36.12,0-58.89-23.95t-22.76-64.1q0-38.37,21.76-63.4t60.39-25q35.75,0,58.26,23.58t22.52,63q0,40.77-22.71,65.35T950.25,699.78ZM950,660.9q13.29,0,19.13-11.6T975,606.84q0-44.64-24-44.65-25.83,0-25.83,50.92Q925.17,660.9,950,660.9Z"/><path class="cls-3" d="M1032.26,582.83a3.86,3.86,0,0,0-5.87-1.25,23.93,23.93,0,0,1-4.33,2.84,56.39,56.39,0,0,0-27.29-49c0-10-2.84-15.76-9.83-15.36a3.24,3.24,0,0,0-3,4.08,19.19,19.19,0,0,1,.72,5.83,56.44,56.44,0,0,0-60,17.22,4.6,4.6,0,0,0,.35-.82c-5.36-9.85-20-10.44-26.71-4.1,4.91,6.65,17,10,23.17,7.59-6.37,6.3-6.56,17.76-1.46,23.68,8.45-5.6,12.5-22.21,6.3-26a28.18,28.18,0,0,1,35.25,1.88,18,18,0,0,1-6.32.27,3.08,3.08,0,0,0-3.45,3.34c.59,7,6.91,8.75,17.17,7a28.2,28.2,0,0,1,.92,18.16,22.46,22.46,0,0,1-5.62-5.8,3.86,3.86,0,0,0-6-.46c-5.75,6-2.77,13.06,6.35,20.76a28.22,28.22,0,0,0,11.85,27.61c14.86,10.22,33.7,4.62,41.7-11.54a57.14,57.14,0,0,0,3-7.3C1030.92,596.53,1036.21,590.49,1032.26,582.83Z"/><path class="cls-2" d="M867,640.57a3.86,3.86,0,0,0,5.87,1.25,24.17,24.17,0,0,1,4.34-2.84,56.38,56.38,0,0,0,27.28,49c0,10,2.84,15.76,9.83,15.36a3.24,3.24,0,0,0,3-4.08,19.19,19.19,0,0,1-.72-5.83,56.42,56.42,0,0,0,60-17.22,5.17,5.17,0,0,0-.35.83c5.36,9.84,20,10.43,26.71,4.1-4.91-6.66-17-10-23.17-7.6,6.37-6.3,6.56-17.76,1.46-23.68-8.45,5.61-12.5,22.21-6.29,26A28.18,28.18,0,0,1,939.66,674a17.85,17.85,0,0,1,6.33-.26,3.1,3.1,0,0,0,3.45-3.35c-.6-7-6.92-8.75-17.18-7a28.23,28.23,0,0,1-.92-18.15A22.24,22.24,0,0,1,937,651a3.86,3.86,0,0,0,6,.46c5.75-6,2.78-13.06-6.35-20.76a28.2,28.2,0,0,0-11.85-27.61c-14.85-10.21-33.7-4.62-41.7,11.54a57.14,57.14,0,0,0-3,7.3C868.36,626.87,863.06,632.91,867,640.57Z"/><g id="TWO_GOLDFISH_LOGO_COLOR" data-name="TWO GOLDFISH LOGO COLOR"><path d="M109.63,967.22v66.72h-19V986.23l-12.34,47.71h-13L52.44,986.23v47.71H37.09V967.22H63.86l9.67,35.44,9.24-35.44Z"/><path d="M175.37,967.22v44.19q0,12.55-7.46,18.06T148.48,1035q-12.6,0-20.26-5.27t-7.64-17.21V967.22H141.4v42.87q0,4.78,2,7t6.46,2.19a10.67,10.67,0,0,0,6.07-1.58,6.16,6.16,0,0,0,2.82-3.6,41.75,41.75,0,0,0,.47-7.82v-39Z"/><path d="M179.42,1014.63l19-3.42q2.38,8.07,12.31,8.06c5.15,0,7.73-1.36,7.73-4.1a3.82,3.82,0,0,0-1.79-3.35,19.15,19.15,0,0,0-6.38-2.12q-17.55-3.36-22.53-8.79a18.27,18.27,0,0,1-5-12.76,20,20,0,0,1,7.17-15.7q7.15-6.26,20.6-6.25,20.38,0,26.93,16.37l-17,5.13q-2.64-6.69-10.71-6.7-6.69,0-6.69,4.16a3.27,3.27,0,0,0,1.51,2.88,18.25,18.25,0,0,0,5.87,2,123.92,123.92,0,0,1,17,4.49,18.33,18.33,0,0,1,8.41,6.66,18.71,18.71,0,0,1,3.37,11.13,19.7,19.7,0,0,1-8.22,16.41q-8.21,6.28-21.55,6.28Q185.14,1035,179.42,1014.63Z"/><path d="M267.6,967.22v66.72H247.12V967.22Z"/><path d="M315.93,1008.47l18.72,1.13q-1.32,12.27-9.06,18.81t-19,6.55q-13.59,0-21.95-9t-8.35-24.83q0-15.69,7.91-25.32t22.1-9.62q13.25,0,20.35,7.33t8,19.45l-19.11,1q0-6.71-2.56-9.68a7.75,7.75,0,0,0-6-3q-9.68,0-9.68,19.45,0,10.91,2.52,14.81a7.94,7.94,0,0,0,7.06,3.91Q315,1019.52,315.93,1008.47Z"/><path d="M85.51,845.25v73.91H57.25V845.25H37.09V822h68.57v23.28Z"/><path d="M239.38,822,213.6,919.16H188.54l-13.6-53.62L162.1,919.16H136L110.15,822h28.07l13.6,55.94L165.08,822H188.5l14.43,56,13.62-56Z"/><path class="cls-1" d="M288.51,920.65q-20.5,0-33.43-13.6t-12.92-36.38q0-21.79,12.35-36t34.29-14.21q20.29,0,33.07,13.39t12.78,35.74q0,23.14-12.88,37.1T288.51,920.65Zm-.14-22.07q7.54,0,10.86-6.58t3.31-24.11q0-25.35-13.6-25.35-14.67,0-14.67,28.91Q274.27,898.58,288.37,898.58Z"/><path class="cls-3" d="M335.07,854.26a2.19,2.19,0,0,0-3.33-.71,14.42,14.42,0,0,1-2.46,1.62,32,32,0,0,0-15.49-27.81c0-5.69-1.61-8.94-5.58-8.72a1.84,1.84,0,0,0-1.68,2.32,10.82,10.82,0,0,1,.4,3.31,32,32,0,0,0-34.05,9.78,2.76,2.76,0,0,0,.2-.47c-3-5.59-11.38-5.92-15.16-2.33,2.78,3.78,9.63,5.7,13.15,4.31-3.62,3.58-3.72,10.09-.83,13.44,4.8-3.18,7.1-12.6,3.57-14.77a16,16,0,0,1,16.91-1.11,16.45,16.45,0,0,1,3.11,2.17,10.21,10.21,0,0,1-3.59.16,1.75,1.75,0,0,0-2,1.89c.34,4,3.92,5,9.75,4a16,16,0,0,1,.52,10.3,12.72,12.72,0,0,1-3.19-3.29,2.19,2.19,0,0,0-3.4-.26c-3.26,3.43-1.57,7.41,3.6,11.79a16,16,0,0,0,6.73,15.67c8.44,5.8,19.13,2.62,23.67-6.55a30.57,30.57,0,0,0,1.7-4.14C334.31,862,337.31,858.61,335.07,854.26Z"/><path class="cls-2" d="M241.26,887a2.18,2.18,0,0,0,3.33.71,14.13,14.13,0,0,1,2.46-1.61,32,32,0,0,0,15.49,27.8c0,5.7,1.61,8.94,5.58,8.72a1.84,1.84,0,0,0,1.68-2.32,10.82,10.82,0,0,1-.4-3.31,32,32,0,0,0,34.05-9.78,2.76,2.76,0,0,0-.2.47c3,5.59,11.38,5.93,15.16,2.33-2.78-3.78-9.63-5.7-13.15-4.31,3.62-3.57,3.72-10.08.83-13.44-4.8,3.18-7.1,12.61-3.57,14.77a16,16,0,0,1-16.91,1.12A16.49,16.49,0,0,1,282.5,906a10,10,0,0,1,3.59-.15,1.76,1.76,0,0,0,2-1.9c-.34-4-3.92-5-9.75-4a16,16,0,0,1-.52-10.3A12.72,12.72,0,0,1,281,893a2.19,2.19,0,0,0,3.4.26c3.26-3.43,1.58-7.41-3.6-11.79A16,16,0,0,0,274,865.78c-8.44-5.8-19.13-2.62-23.67,6.55a30.57,30.57,0,0,0-1.7,4.14C242,879.26,239,882.69,241.26,887Z"/><path d="M68.26,941.36v18.87H63.2a19.34,19.34,0,0,0-1.36-3.53c-2.08,2.7-5.18,4-9.27,4a13.94,13.94,0,0,1-10.71-4.55q-4.19-4.56-4.19-12.33a19.83,19.83,0,0,1,4.06-12.69Q45.78,926,53.8,926q6,0,9.7,3.06a14.42,14.42,0,0,1,4.76,8.68l-10,1c-.49-3.5-2-5.26-4.61-5.26q-5.09,0-5.08,9.67,0,5.85,1.63,7.71a5,5,0,0,0,3.94,1.86,4.73,4.73,0,0,0,3.2-1.13,3.93,3.93,0,0,0,1.34-3.11H53.09v-7.15Z"/><path d="M88.26,960.75A15.25,15.25,0,0,1,76.68,956q-4.47-4.71-4.47-12.6A18.33,18.33,0,0,1,76.48,931Q80.77,926,88.36,926a15.14,15.14,0,0,1,11.46,4.64q4.43,4.64,4.43,12.38,0,8-4.47,12.85A15,15,0,0,1,88.26,960.75Zm-.05-7.65A3.92,3.92,0,0,0,92,950.82c.76-1.52,1.14-4.31,1.14-8.35q0-8.79-4.71-8.78-5.09,0-5.08,10Q83.33,953.11,88.21,953.1Z"/><path d="M132.22,952v8.27H108.61V926.56H119V952Z"/><path d="M135.82,960.23V926.56h13q8.47,0,12.7,5a17.6,17.6,0,0,1,4.22,11.64c0,5-1.51,9.13-4.53,12.27a15.54,15.54,0,0,1-11.75,4.73Zm10.34-7.75h2.69a5.16,5.16,0,0,0,4.32-2.49,11.51,11.51,0,0,0,1.77-6.78,12.22,12.22,0,0,0-1.57-6.34,5,5,0,0,0-4.52-2.67h-2.69Z"/><path d="M191.17,947.62h-11v12.61H170.13V926.56h24.35v8H180.2v5.48h11Z"/><path d="M208.1,926.56v33.67H197.76V926.56Z"/><path d="M210.49,950.48l9.59-1.72q1.21,4.07,6.22,4.07,3.9,0,3.9-2.07a1.91,1.91,0,0,0-.9-1.69,9.72,9.72,0,0,0-3.22-1.08q-8.87-1.69-11.37-4.43a9.2,9.2,0,0,1-2.52-6.44,10.09,10.09,0,0,1,3.61-7.92q3.62-3.16,10.4-3.16,10.29,0,13.59,8.26l-8.56,2.59c-.88-2.25-2.69-3.38-5.4-3.38-2.25,0-3.38.7-3.38,2.1a1.67,1.67,0,0,0,.77,1.46,9.42,9.42,0,0,0,3,1,62.76,62.76,0,0,1,8.58,2.26,9.23,9.23,0,0,1,4.24,3.37,9.37,9.37,0,0,1,1.71,5.61,10,10,0,0,1-4.15,8.28q-4.14,3.18-10.88,3.18Q213.38,960.75,210.49,950.48Z"/><path d="M273.22,926.56v33.67H262.88v-13.1H255v13.1H244.65V926.56H255v12.38h7.89V926.56Z"/><path d="M304.4,952.19v8H279.06V926.56H304.4v7.77H289.2v4.88h12.29v7.48H289.2v5.5Z"/><path d="M305,950.48l9.6-1.72c.8,2.71,2.88,4.07,6.21,4.07q3.9,0,3.9-2.07a1.91,1.91,0,0,0-.9-1.69A9.63,9.63,0,0,0,320.6,948q-8.85-1.69-11.37-4.43a9.2,9.2,0,0,1-2.52-6.44,10.07,10.07,0,0,1,3.62-7.92q3.62-3.16,10.4-3.16,10.27,0,13.59,8.26l-8.56,2.59q-1.33-3.37-5.4-3.38c-2.26,0-3.38.7-3.38,2.1a1.66,1.66,0,0,0,.76,1.46,9.52,9.52,0,0,0,3,1,63.43,63.43,0,0,1,8.59,2.26,9.33,9.33,0,0,1,4.24,3.37,9.44,9.44,0,0,1,1.7,5.61,9.94,9.94,0,0,1-4.14,8.28q-4.15,3.18-10.88,3.18Q307.9,960.75,305,950.48Z"/></g><g id="TWO_GOLDFISH_LOGO_COLOR-2" data-name="TWO GOLDFISH LOGO COLOR"><path d="M463.18,967.22v66.72h-19V986.23l-12.34,47.71h-13L406,986.23v47.71H390.64V967.22H417.4l9.68,35.44,9.24-35.44Z"/><path d="M528.92,967.22v44.19q0,12.55-7.46,18.06T502,1035q-12.6,0-20.26-5.27t-7.64-17.21V967.22H495v42.87q0,4.78,2,7t6.46,2.19a10.67,10.67,0,0,0,6.07-1.58,6.16,6.16,0,0,0,2.82-3.6,41.75,41.75,0,0,0,.47-7.82v-39Z"/><path d="M533,1014.63l19-3.42q2.4,8.07,12.32,8.06c5.15,0,7.73-1.36,7.73-4.1a3.82,3.82,0,0,0-1.79-3.35,19.24,19.24,0,0,0-6.38-2.12q-17.55-3.36-22.53-8.79a18.27,18.27,0,0,1-5-12.76,20,20,0,0,1,7.17-15.7q7.15-6.26,20.6-6.25,20.37,0,26.93,16.37l-17,5.13q-2.64-6.69-10.71-6.7-6.69,0-6.69,4.16a3.27,3.27,0,0,0,1.51,2.88,18.25,18.25,0,0,0,5.87,2,123.92,123.92,0,0,1,17,4.49,18.33,18.33,0,0,1,8.41,6.66,18.71,18.71,0,0,1,3.37,11.13,19.7,19.7,0,0,1-8.22,16.41q-8.21,6.28-21.55,6.28Q538.69,1035,533,1014.63Z"/><path d="M621.14,967.22v66.72H600.67V967.22Z"/><path d="M669.48,1008.47l18.72,1.13q-1.32,12.27-9.06,18.81t-19,6.55q-13.59,0-22-9t-8.35-24.83q0-15.69,7.91-25.32t22.1-9.62q13.25,0,20.35,7.33t8,19.45l-19.11,1q0-6.71-2.56-9.68a7.75,7.75,0,0,0-6-3q-9.68,0-9.68,19.45,0,10.91,2.52,14.81a7.94,7.94,0,0,0,7.06,3.91Q668.5,1019.52,669.48,1008.47Z"/><path d="M439.06,845.25v73.91H410.79V845.25H390.64V822h68.57v23.28Z"/><path d="M592.93,822l-25.78,97.19H542.09l-13.6-53.62-12.84,53.62H489.52L463.7,822h28.07l13.6,55.94L518.63,822h23.42l14.43,56,13.62-56Z"/><path class="cls-5" d="M642.06,920.65q-20.5,0-33.43-13.6t-12.92-36.38q0-21.79,12.35-36t34.29-14.21q20.29,0,33.07,13.39T688.2,869.6q0,23.14-12.89,37.1T642.06,920.65Zm-.14-22.07q7.55,0,10.86-6.58t3.31-24.11q0-25.35-13.6-25.35-14.67,0-14.67,28.91Q627.82,898.58,641.92,898.58Z"/><path d="M688.62,854.26a2.19,2.19,0,0,0-3.33-.71,14.83,14.83,0,0,1-2.46,1.62,32,32,0,0,0-15.49-27.81c0-5.69-1.61-8.94-5.58-8.72a1.84,1.84,0,0,0-1.68,2.32,10.82,10.82,0,0,1,.4,3.31,32,32,0,0,0-34.05,9.78,2.76,2.76,0,0,0,.2-.47c-3-5.59-11.38-5.92-15.16-2.33,2.78,3.78,9.63,5.7,13.15,4.31-3.62,3.58-3.72,10.09-.83,13.44,4.8-3.18,7.1-12.6,3.57-14.77a16,16,0,0,1,16.91-1.11,16.45,16.45,0,0,1,3.11,2.17,10.21,10.21,0,0,1-3.59.16,1.75,1.75,0,0,0-2,1.89c.34,4,3.92,5,9.75,4a16,16,0,0,1,.52,10.3,12.72,12.72,0,0,1-3.19-3.29,2.19,2.19,0,0,0-3.4-.26c-3.26,3.43-1.58,7.41,3.6,11.79a16,16,0,0,0,6.73,15.67c8.44,5.8,19.13,2.62,23.67-6.55a30.57,30.57,0,0,0,1.7-4.14C687.86,862,690.86,858.61,688.62,854.26Z"/><path d="M594.81,887a2.18,2.18,0,0,0,3.33.71,13.77,13.77,0,0,1,2.46-1.61,32,32,0,0,0,15.49,27.8c0,5.7,1.61,8.94,5.58,8.72a1.84,1.84,0,0,0,1.68-2.32A10.82,10.82,0,0,1,623,917a32,32,0,0,0,34-9.78,2.76,2.76,0,0,0-.2.47c3,5.59,11.38,5.93,15.16,2.33-2.78-3.78-9.63-5.7-13.15-4.31,3.62-3.57,3.72-10.08.83-13.44-4.8,3.18-7.1,12.61-3.57,14.77a16,16,0,0,1-16.91,1.12,16.49,16.49,0,0,1-3.11-2.18,10,10,0,0,1,3.59-.15,1.76,1.76,0,0,0,2-1.9c-.34-4-3.92-5-9.75-4a16,16,0,0,1-.52-10.3,12.72,12.72,0,0,1,3.19,3.29,2.19,2.19,0,0,0,3.4.26c3.26-3.43,1.57-7.41-3.6-11.79a16,16,0,0,0-6.73-15.67c-8.44-5.8-19.13-2.62-23.67,6.55a30.57,30.57,0,0,0-1.7,4.14C595.57,879.26,592.57,882.69,594.81,887Z"/><path d="M421.81,941.36v18.87h-5.06a19.34,19.34,0,0,0-1.36-3.53c-2.08,2.7-5.18,4-9.27,4a13.94,13.94,0,0,1-10.71-4.55q-4.19-4.56-4.19-12.33a19.83,19.83,0,0,1,4.06-12.69q4.05-5.14,12.07-5.14,6,0,9.7,3.06a14.42,14.42,0,0,1,4.76,8.68l-10,1c-.49-3.5-2-5.26-4.61-5.26q-5.08,0-5.08,9.67,0,5.85,1.63,7.71a5,5,0,0,0,3.94,1.86,4.73,4.73,0,0,0,3.2-1.13,3.93,3.93,0,0,0,1.34-3.11h-5.57v-7.15Z"/><path d="M441.81,960.75A15.25,15.25,0,0,1,430.23,956q-4.47-4.71-4.48-12.6A18.34,18.34,0,0,1,430,931q4.29-4.92,11.88-4.92a15.14,15.14,0,0,1,11.46,4.64q4.42,4.64,4.43,12.38,0,8-4.47,12.85A15,15,0,0,1,441.81,960.75Zm-.05-7.65a3.92,3.92,0,0,0,3.77-2.28c.76-1.52,1.14-4.31,1.14-8.35q0-8.79-4.71-8.78-5.08,0-5.08,10Q436.88,953.11,441.76,953.1Z"/><path d="M485.77,952v8.27H462.16V926.56H472.5V952Z"/><path d="M489.37,960.23V926.56h13q8.48,0,12.7,5a17.6,17.6,0,0,1,4.22,11.64c0,5-1.51,9.13-4.53,12.27A15.56,15.56,0,0,1,503,960.23Zm10.34-7.75h2.69a5.16,5.16,0,0,0,4.32-2.49,11.51,11.51,0,0,0,1.77-6.78,12.22,12.22,0,0,0-1.57-6.34,5,5,0,0,0-4.52-2.67h-2.69Z"/><path d="M544.72,947.62h-11v12.61H523.68V926.56H548v8H533.75v5.48h11Z"/><path d="M561.65,926.56v33.67H551.31V926.56Z"/><path d="M564,950.48l9.59-1.72q1.22,4.07,6.22,4.07,3.9,0,3.9-2.07a1.91,1.91,0,0,0-.9-1.69,9.72,9.72,0,0,0-3.22-1.08q-8.86-1.69-11.37-4.43a9.2,9.2,0,0,1-2.52-6.44,10.06,10.06,0,0,1,3.61-7.92Q573,926,579.75,926q10.29,0,13.59,8.26l-8.56,2.59q-1.34-3.37-5.4-3.38c-2.25,0-3.38.7-3.38,2.1a1.67,1.67,0,0,0,.77,1.46,9.42,9.42,0,0,0,3,1,62.76,62.76,0,0,1,8.58,2.26,9.23,9.23,0,0,1,4.24,3.37,9.37,9.37,0,0,1,1.71,5.61,10,10,0,0,1-4.15,8.28q-4.14,3.18-10.88,3.18Q566.93,960.75,564,950.48Z"/><path d="M626.77,926.56v33.67H616.43v-13.1h-7.89v13.1H598.2V926.56h10.34v12.38h7.89V926.56Z"/><path d="M658,952.19v8H632.61V926.56H658v7.77h-15.2v4.88H655v7.48H642.75v5.5Z"/><path d="M658.56,950.48l9.6-1.72c.8,2.71,2.88,4.07,6.21,4.07q3.9,0,3.9-2.07a1.91,1.91,0,0,0-.9-1.69,9.63,9.63,0,0,0-3.22-1.08q-8.85-1.69-11.37-4.43a9.2,9.2,0,0,1-2.52-6.44,10.07,10.07,0,0,1,3.62-7.92q3.61-3.16,10.4-3.16,10.28,0,13.59,8.26l-8.56,2.59q-1.34-3.37-5.41-3.38c-2.25,0-3.37.7-3.37,2.1a1.66,1.66,0,0,0,.76,1.46,9.52,9.52,0,0,0,3,1,63.43,63.43,0,0,1,8.59,2.26,9.33,9.33,0,0,1,4.24,3.37,9.44,9.44,0,0,1,1.7,5.61,9.94,9.94,0,0,1-4.14,8.28q-4.15,3.18-10.88,3.18Q661.45,960.75,658.56,950.48Z"/></g><g id="TWO_GOLDFISH_LOGO_COLOR-3" data-name="TWO GOLDFISH LOGO COLOR"><path class="cls-4" d="M825.73,967.22v66.72h-19V986.23l-12.34,47.71h-13l-12.83-47.71v47.71H753.2V967.22H780l9.68,35.44,9.24-35.44Z"/><path class="cls-4" d="M891.47,967.22v44.19q0,12.55-7.45,18.06T864.59,1035q-12.62,0-20.26-5.27t-7.65-17.21V967.22H857.5v42.87q0,4.78,2,7c1.34,1.46,3.5,2.19,6.45,2.19a10.65,10.65,0,0,0,6.07-1.58,6.14,6.14,0,0,0,2.83-3.6,42,42,0,0,0,.46-7.82v-39Z"/><path class="cls-4" d="M895.53,1014.63l19-3.42q2.4,8.07,12.32,8.06c5.15,0,7.72-1.36,7.72-4.1a3.82,3.82,0,0,0-1.78-3.35,19.24,19.24,0,0,0-6.38-2.12q-17.55-3.36-22.53-8.79a18.23,18.23,0,0,1-5-12.76,20,20,0,0,1,7.16-15.7q7.17-6.26,20.6-6.25,20.39,0,26.93,16.37l-17,5.13Q934,981,925.93,981c-4.46,0-6.7,1.39-6.7,4.16a3.28,3.28,0,0,0,1.52,2.88,18.25,18.25,0,0,0,5.87,2,123.92,123.92,0,0,1,17,4.49,18.3,18.3,0,0,1,8.4,6.66,18.64,18.64,0,0,1,3.37,11.13,19.72,19.72,0,0,1-8.21,16.41Q939,1035,925.64,1035,901.25,1035,895.53,1014.63Z"/><path class="cls-4" d="M983.7,967.22v66.72H963.22V967.22Z"/><path class="cls-4" d="M1032,1008.47l18.72,1.13q-1.32,12.27-9.07,18.81t-19,6.55q-13.59,0-21.95-9t-8.36-24.83q0-15.69,7.92-25.32t22.09-9.62q13.25,0,20.36,7.33t8,19.45l-19.11,1q0-6.71-2.57-9.68a7.73,7.73,0,0,0-6-3q-9.69,0-9.68,19.45,0,10.91,2.52,14.81a7.93,7.93,0,0,0,7.06,3.91Q1031.06,1019.52,1032,1008.47Z"/><path class="cls-4" d="M801.62,845.25v73.91H773.35V845.25H753.2V822h68.57v23.28Z"/><path class="cls-4" d="M955.49,822l-25.78,97.19H904.65l-13.6-53.62-12.84,53.62H852.08L826.26,822h28.07l13.59,55.94L881.19,822h23.42L919,878l13.62-56Z"/><path class="cls-6" d="M1004.62,920.65q-20.5,0-33.43-13.6t-12.92-36.38q0-21.79,12.35-36t34.28-14.21q20.29,0,33.08,13.39t12.78,35.74q0,23.14-12.89,37.1T1004.62,920.65Zm-.14-22.07q7.54,0,10.86-6.58t3.31-24.11q0-25.35-13.6-25.35-14.67,0-14.67,28.91Q990.38,898.58,1004.48,898.58Z"/><path class="cls-4" d="M1051.18,854.26a2.2,2.2,0,0,0-3.34-.71,14,14,0,0,1-2.46,1.62,32,32,0,0,0-15.49-27.81c0-5.69-1.61-8.94-5.58-8.72a1.83,1.83,0,0,0-1.67,2.32,11.14,11.14,0,0,1,.4,3.31A32.06,32.06,0,0,0,989,834.05a2.76,2.76,0,0,0,.2-.47c-3-5.59-11.38-5.92-15.16-2.33,2.79,3.78,9.64,5.7,13.15,4.31-3.61,3.58-3.72,10.09-.82,13.44,4.79-3.18,7.09-12.6,3.57-14.77a16,16,0,0,1,16.9-1.11,15.83,15.83,0,0,1,3.11,2.17,10.18,10.18,0,0,1-3.59.16,1.74,1.74,0,0,0-2,1.89c.33,4,3.92,5,9.74,4a15.92,15.92,0,0,1,.53,10.3,12.41,12.41,0,0,1-3.19-3.29,2.2,2.2,0,0,0-3.4-.26c-3.27,3.43-1.58,7.41,3.6,11.79a16,16,0,0,0,6.73,15.67c8.43,5.8,19.13,2.62,23.67-6.55a33.38,33.38,0,0,0,1.7-4.14C1050.41,862,1053.42,858.61,1051.18,854.26Z"/><path class="cls-4" d="M957.36,887a2.19,2.19,0,0,0,3.34.71,13.42,13.42,0,0,1,2.46-1.61,32,32,0,0,0,15.49,27.8c0,5.7,1.61,8.94,5.58,8.72a1.85,1.85,0,0,0,1.68-2.32,10.86,10.86,0,0,1-.41-3.31,32,32,0,0,0,34.06-9.78,2.76,2.76,0,0,0-.2.47c3,5.59,11.38,5.93,15.16,2.33-2.78-3.78-9.64-5.7-13.15-4.31,3.61-3.57,3.72-10.08.83-13.44-4.8,3.18-7.1,12.61-3.58,14.77a16,16,0,0,1-16.9,1.12,16.18,16.18,0,0,1-3.11-2.18,10,10,0,0,1,3.59-.15,1.76,1.76,0,0,0,2-1.9c-.34-4-3.93-5-9.75-4a16,16,0,0,1-.52-10.3,12.72,12.72,0,0,1,3.19,3.29,2.19,2.19,0,0,0,3.4.26c3.26-3.43,1.57-7.41-3.61-11.79a16,16,0,0,0-6.72-15.67c-8.44-5.8-19.14-2.62-23.68,6.55a33.38,33.38,0,0,0-1.7,4.14C958.13,879.26,955.12,882.69,957.36,887Z"/><path class="cls-4" d="M784.36,941.36v18.87h-5.05A20.1,20.1,0,0,0,778,956.7q-3.13,4-9.27,4A13.94,13.94,0,0,1,758,956.2q-4.19-4.56-4.19-12.33a19.83,19.83,0,0,1,4.06-12.69q4-5.14,12.07-5.14,6,0,9.69,3.06a14.37,14.37,0,0,1,4.76,8.68l-10,1c-.49-3.5-2-5.26-4.61-5.26q-5.09,0-5.08,9.67,0,5.85,1.62,7.71a5.07,5.07,0,0,0,4,1.86,4.68,4.68,0,0,0,3.19-1.13,4,4,0,0,0,1.35-3.11h-5.58v-7.15Z"/><path class="cls-4" d="M804.37,960.75A15.22,15.22,0,0,1,792.79,956q-4.49-4.71-4.48-12.6A18.34,18.34,0,0,1,792.59,931q4.27-4.92,11.88-4.92a15.15,15.15,0,0,1,11.46,4.64q4.43,4.64,4.42,12.38,0,8-4.46,12.85A15,15,0,0,1,804.37,960.75Zm0-7.65a3.9,3.9,0,0,0,3.76-2.28c.77-1.52,1.15-4.31,1.15-8.35q0-8.79-4.71-8.78-5.09,0-5.08,10Q799.44,953.11,804.32,953.1Z"/><path class="cls-4" d="M848.33,952v8.27H824.72V926.56h10.34V952Z"/><path class="cls-4" d="M851.93,960.23V926.56h13q8.49,0,12.71,5a17.59,17.59,0,0,1,4.21,11.64c0,5-1.51,9.13-4.52,12.27a15.56,15.56,0,0,1-11.76,4.73Zm10.33-7.75H865a5.18,5.18,0,0,0,4.33-2.49,11.51,11.51,0,0,0,1.76-6.78,12.31,12.31,0,0,0-1.56-6.34A5,5,0,0,0,865,934.2h-2.69Z"/><path class="cls-4" d="M907.28,947.62h-11v12.61H886.24V926.56h24.35v8H896.3v5.48h11Z"/><path class="cls-4" d="M924.2,926.56v33.67H913.87V926.56Z"/><path class="cls-4" d="M926.59,950.48l9.6-1.72q1.21,4.07,6.22,4.07c2.59,0,3.89-.69,3.89-2.07a1.91,1.91,0,0,0-.9-1.69,9.63,9.63,0,0,0-3.22-1.08q-8.85-1.69-11.37-4.43a9.24,9.24,0,0,1-2.51-6.44,10.06,10.06,0,0,1,3.61-7.92q3.62-3.16,10.4-3.16,10.29,0,13.59,8.26l-8.56,2.59q-1.33-3.37-5.4-3.38c-2.26,0-3.38.7-3.38,2.1a1.66,1.66,0,0,0,.76,1.46,9.52,9.52,0,0,0,3,1,63.43,63.43,0,0,1,8.59,2.26,9.28,9.28,0,0,1,4.24,3.37,9.44,9.44,0,0,1,1.7,5.61,9.94,9.94,0,0,1-4.14,8.28q-4.14,3.18-10.88,3.18Q929.48,960.75,926.59,950.48Z"/><path class="cls-4" d="M989.32,926.56v33.67H979v-13.1h-7.9v13.1H960.76V926.56h10.33v12.38H979V926.56Z"/><path class="cls-4" d="M1020.5,952.19v8H995.17V926.56h25.33v7.77h-15.19v4.88h12.28v7.48h-12.28v5.5Z"/><path class="cls-4" d="M1021.12,950.48l9.59-1.72q1.21,4.07,6.22,4.07,3.9,0,3.9-2.07a1.91,1.91,0,0,0-.9-1.69,9.72,9.72,0,0,0-3.22-1.08q-8.87-1.69-11.37-4.43a9.2,9.2,0,0,1-2.52-6.44,10.09,10.09,0,0,1,3.61-7.92q3.61-3.16,10.4-3.16,10.29,0,13.59,8.26l-8.56,2.59q-1.32-3.37-5.4-3.38c-2.25,0-3.38.7-3.38,2.1a1.67,1.67,0,0,0,.77,1.46,9.42,9.42,0,0,0,3,1,62.76,62.76,0,0,1,8.58,2.26,9.23,9.23,0,0,1,4.24,3.37,9.37,9.37,0,0,1,1.71,5.61,10,10,0,0,1-4.15,8.28q-4.14,3.18-10.88,3.18Q1024,960.75,1021.12,950.48Z"/></g></g></svg>