<svg xmlns="http://www.w3.org/2000/svg" viewBox="0 0 1900 663.27779"><defs><style>.cls-1,.cls-2{fill:#fff;}.cls-2{fill-rule:evenodd;}</style></defs><g id="Calque_2" data-name="Calque 2"><g id="Calque_1-2" data-name="Calque 1"><path d="M191.64176,0H1889.8712a10.12275,10.12275,0,0,1,9.74206,12.87273L1718.09849,655.905a10.12276,10.12276,0,0,1-9.74206,7.37277H10.1288A10.12276,10.12276,0,0,1,.38673,650.40508L181.89969,7.37279A10.12276,10.12276,0,0,1,191.64176,0Z"/><path class="cls-1" d="M1375.75129,43.15806c-.05523,0-.13988-.00639-.25322-.01881A1.08308,1.08308,0,0,0,1375.75129,43.15806Z"/><path class="cls-1" d="M1850.79072,41.49442q0-7.6159-18.926-7.62573H1598.74555c-6.85522,0-11.06347,2.74609-12.60449,8.27771l-66.85352,239.73731q-2.1339,7.43811-2.13378,10.82629,0,5.06725,9.64087,5.07727h77.67993q5.63049,0,9.957-16.93079,4.00085-15.943,7.96167-31.886,5.6598-16.921,13.94775-16.93079h59.4253c3.31933,0,5.31445.57288,5.96631,1.65955.2373.23706.2373,1.65942,0,4.32653l-12.26831,48.46106a28.58782,28.58782,0,0,0-.3357,4.32654q0,6.964,8.96924,6.97388h77.522c3.10157,0,5.74878-2.37073,7.98121-7.07263q.97778-2.69677,4.30688-14.12549l-.178-.0592,61.79639-226.71827A47.28684,47.28684,0,0,0,1850.79072,41.49442ZM1710.36616,171.96219q-14.93555,10.28285-30.54248,10.29273a32.72655,32.72655,0,0,1-20.56616-6.63794,23.05278,23.05278,0,0,1-9.64063-19.262q0-17.60248,18.2544-29.535,15.61706-10.28283,30.20678-10.29272c7.98121,0,14.718,1.99524,20.26954,5.96618q9.6013,6.638,9.62085,18.59034Q1727.96846,159.6937,1710.36616,171.96219Z"/><path class="cls-1" d="M1398.65815,157.738q-46.82154,18.8767-60.74927,23.84534h120.80689q8.29761,1.39271,8.2976,6.63794,0,1.33356-10.66821,39.49194-11.31994,41.16138-18.66919,64.3844a9.34272,9.34272,0,0,1-3.14135,3.73377c-1.65919,1.30395-2.825,1.95593-3.477,1.95593H1175.57489q-3.319,0-3.31909-5.03784,0-3.70422,5.41309-22.50183,9.98694-35.50141,15.647-54.42749,6.63794-24.83295,8.94922-29.53492a9.81036,9.81036,0,0,1,4.64258-3.35852c1.10644-.21728,2.98315-.67175,5.65039-1.34338h122.36768q-34.5531-11.58692-65.07569-38.08936-36.509-31.797-36.50879-62.60632,0-25.81092,29.87061-38.74121,20.92162-8.62337,46.80176-8.61353,16.95044,0,40.67724,4.80066,22.255,4.53387,24.81348,4.80066-.88915-.23712,25.30713-4.129,28.06347-4.14862,47.31543-4.14868,54.43689,0,54.447,26.82849,0,25.84057-44.49023,59.959Q1425.21992,146.803,1398.65815,157.738Z"/><path class="cls-1" d="M1164.63031,41.1586q0,12.624-10.293,46.4856c-1.56054,5.31433-3.31909,8.6333-5.31445,9.95691q-2.99268,1.98541-12.26831,1.99536H1019.03937q-10.96436,0-15.60694,13.94763-2.904,10.63844-4.84009,17.30615-21.60315,77.34413-22.60083,81.98682a16.07162,16.07162,0,0,0-.49389,3.97083,16.99088,16.99088,0,0,0,3.31909,10.43115q3.3186,4.47474,7.64527,4.48462H1103.881a8.08885,8.08885,0,0,1,6.61793,2.82507,7.40128,7.40128,0,0,1,1.34374,6.83545q-11.3203,38.70173-13.29589,43.71973c-2.42994,5.55139-3.635,8.45557-3.635,8.67285q-2.99306,4.00068-10.31251,4.0105H832.88983a7.32571,7.32571,0,0,1-2.98316-5.66992q0-1.68915,23.82557-88.66431,26.07769-95.30236,43.285-154.43164,4.65253-15.14283,14.9552-15.15271h246.33582Q1164.6203,34.19461,1164.63031,41.1586Z"/><path class="cls-1" d="M821.37213,37.16788q-6.51947,30.37464-11.083,45.22119-35.1753,125.49921-59.42566,209.80726-1.65948,6.57861-9.62109,6.57873H491.33074c-4.66235,0-6.99353-1.67932-6.99353-4.99829q0-.68151,32.95276-117.488Q551.4873,55.11612,553.14678,48.4683c2.21265-7.15162,3.8722-11.14234,4.97852-12.0116q3.319-2.93371,13.94763-2.92383h65.708c7.74426,0,11.83374,2.3114,12.28809,6.97376L599.97372,228.06876c.86927,2.43006,1.97559,3.65491,3.319,3.65491h66.0636q4.62287,0,11.61646-23.25269c6.18359-21.45483,45.78854-166.30481,47.76412-170.29553.45447-1.10632,2.272-2.15332,5.49219-3.16089a27.87781,27.87781,0,0,1,7.80359-1.48169h68.71082Q817.70752,33.53287,821.37213,37.16788Z"/><path class="cls-1" d="M435.28338,188.91263q0,5.66016-14.61939,55.92884-15.5874,52.92609-20.58557,52.9458H143.41033q-2.31153-1.06695-2.31153-5.33411l69.04676-248.3114q2.66711-10.283,12.624-10.27307H393.47991q7.31964,0,7.64563,5.98608L361.29766,182.25492h67.68359Q435.29327,182.25492,435.28338,188.91263Z"/><path class="cls-1" d="M341.6801,520.55424q0,5.66016-14.61938,55.929-15.61689,52.92589-20.58557,52.9259H49.807c-1.56079-.71118-2.33117-2.46948-2.33117-5.31433l69.0664-248.31141q2.63745-10.283,12.624-10.29284H299.87676c4.85986,0,7.40845,2.01513,7.64551,6.00586L267.69439,513.89653H335.378C339.56621,513.89653,341.6801,516.10917,341.6801,520.55424Z"/><path class="cls-1" d="M719.23431,365.49052H472.72076c-6.65772,0-10.64844,2.41028-11.99183,7.19116q-70.17279,248.03485-70.19262,251.6897,0,5.0376,3.319,5.03772H650.30609q5.63049,0,64.44372-212.13843,12.12012-43.76916,12.13-45.4187C726.87982,367.62419,724.33136,365.49052,719.23431,365.49052ZM592.63885,531.47929q-23.26263,15.943-45.81385,15.943a50.06271,50.06271,0,0,1-29.219-8.96911q-15.61687-10.60894-15.60706-28.54724,0-26.226,26.23572-45.14222,22.90686-16.59484,46.13-16.61462,19.58789,0,32.37976,10.3125,12.77215,10.283,12.7821,28.54724Q619.52654,512.87907,592.63885,531.47929Z"/><path class="cls-1" d="M1062.49237,365.49052H815.97882c-6.65772,0-10.64844,2.41028-11.99182,7.19116q-70.17279,248.03485-70.19263,251.6897,0,5.0376,3.319,5.03772H993.56415q5.63049,0,64.44384-212.13843,12.11976-43.76916,12.12989-45.4187C1070.13788,367.62419,1067.5893,365.49052,1062.49237,365.49052ZM935.87714,531.47929q-23.233,15.943-45.79407,15.943a50.06272,50.06272,0,0,1-29.219-8.96911q-15.61688-10.60894-15.607-28.54724,0-26.226,26.23572-45.14222,22.87737-16.59484,46.13-16.61462,19.58788,0,32.37976,10.3125,12.77215,10.283,12.78211,28.54724Q962.78461,512.87907,935.87714,531.47929Z"/><path class="cls-1" d="M1414.937,368.49345q-12.94995,64.60162-30.187,107.86694c-.23706,1.10633-1.56079,2.17322-3.99073,3.161a17.77742,17.77742,0,0,1-4.64257,1.50147h-67.36744q-27.41125,96.3393-41.30957,144.47461c-.21728.71118-1.48169,1.699-3.83276,2.983-2.33106,1.28418-4.04981,1.93616-5.156,1.93616h-98.009c-4.0105,0-6.1045-2.13367-6.34156-6.38123L1194.007,481.02287h-67.58471q-6.31165,0-6.302-5.65027,0-3.319,15.60694-58.75391,3.28967-11.67572,6.30224-23.7268a139.29407,139.29407,0,0,1,7.96167-23.707c.67163-1.10632,2.76587-2.17309,6.30225-3.18066a34.01876,34.01876,0,0,1,8.65283-1.50146h237.05054a29.49476,29.49476,0,0,1,6.9541,1.50146Q1413.92915,367.51555,1414.937,368.49345Z"/><g id="id33"><path class="cls-2" d="M1443.06449,520.36069l68.63034-.03655,41.44132-58.69027,30.88,57.77666,78.02224,1.75413-63.11213,39.541,12.09618,68.70342L1552.99,593.63216l-75.06215,34.27862,19.95323-68.11871Z"/></g><g id="id33-2" data-name="id33"><path class="cls-2" d="M1597.08356,403.65392l45.75354-.02437,27.62754-39.12682,20.58665,38.51775,52.01481,1.16942-42.07474,26.36067,8.06412,45.80226-38.68829-23.85128-50.04142,22.8524,13.30215-45.41246Z"/></g><g id="id33-3" data-name="id33"><path class="cls-2" d="M1479.56017,384.07832l22.87677-.01218,13.81377-19.56341L1526.544,383.7616l26.0074.58471-21.03737,13.18034,4.03206,22.90113L1516.202,408.50214l-25.02071,11.4262,6.65107-22.70623Z"/></g></g></g></svg>