<svg xmlns="http://www.w3.org/2000/svg" viewBox="0 0 1803.31485 602.49888"><defs><style>.cls-1{fill-rule:evenodd;}</style></defs><g id="Calque_2" data-name="Calque 2"><g id="Calque_1-2" data-name="Calque 1"><path d="M1328.27541,9.62519c-.05522,0-.13987-.00639-.25322-.01881A1.08308,1.08308,0,0,0,1328.27541,9.62519Z"/><path d="M1803.31485,7.96155q0-7.61591-18.926-7.62573H1551.26968c-6.85523,0-11.06348,2.74609-12.60449,8.27771l-66.85352,239.73731q-2.13392,7.43811-2.13379,10.82629,0,5.06725,9.64087,5.07727h77.67993q5.63051,0,9.957-16.93079,4.00086-15.943,7.96167-31.886,5.6598-16.921,13.94776-16.93079h59.42529c3.31934,0,5.31446.57288,5.96631,1.65954.2373.23707.2373,1.65943,0,4.32654L1641.98843,252.954a28.58774,28.58774,0,0,0-.33569,4.32654q0,6.964,8.96923,6.97388h77.522c3.10156,0,5.74878-2.37073,7.9812-7.07263q.97779-2.69677,4.30688-14.12549l-.178-.05921,61.79638-226.71826A47.28715,47.28715,0,0,0,1803.31485,7.96155ZM1661.8116,137.30076q-14.18876,9.76869-29.01534,9.77808a31.09015,31.09015,0,0,1-19.53784-6.306,21.9001,21.9001,0,0,1-9.15859-18.29885q0-16.72234,17.34166-28.05827,14.8362-9.76869,28.69643-9.77809c7.58214,0,13.98211,1.89548,19.25605,5.66788q9.12124,6.306,9.1398,17.6608Q1678.53377,125.64569,1661.8116,137.30076Z"/><path d="M1351.18227,124.20508q-46.82153,18.87671-60.74927,23.84534h120.80689q8.29761,1.39269,8.29761,6.63794,0,1.33356-10.66821,39.49194-11.32,41.16138-18.66919,64.3844a9.34283,9.34283,0,0,1-3.14136,3.73377c-1.65918,1.30395-2.82495,1.95593-3.477,1.95593H1128.099q-3.319,0-3.31909-5.03784,0-3.70422,5.41308-22.50183,9.98694-35.50141,15.647-54.42749,6.638-24.83295,8.94922-29.53492a9.81035,9.81035,0,0,1,4.64258-3.35852c1.10645-.21728,2.98316-.67175,5.65039-1.34338h122.36768q-34.5531-11.58692-65.07569-38.08936-36.509-31.797-36.50879-62.60632,0-25.81092,29.87061-38.74121Q1236.65762-.00983,1262.53774,0q16.95043,0,40.67725,4.80066,22.255,4.53387,24.81347,4.80066-.88915-.23712,25.30713-4.129,28.06349-4.14862,47.31543-4.14868,54.4369,0,54.447,26.82849,0,25.84058-44.49024,59.959Q1377.744,113.27014,1351.18227,124.20508Z"/><path d="M1117.15444,7.62573q0,12.624-10.293,46.4856c-1.56055,5.31433-3.31909,8.6333-5.31445,9.95691q-2.99268,1.98542-12.26831,1.99536H971.56349q-10.96436,0-15.60693,13.94763-2.90406,10.63844-4.84009,17.30615-21.60315,77.34413-22.60083,81.98682a16.07116,16.07116,0,0,0-.4939,3.97083,16.99088,16.99088,0,0,0,3.31909,10.43115q3.31862,4.47473,7.64527,4.48462h117.41907a8.08883,8.08883,0,0,1,6.61792,2.82507,7.40131,7.40131,0,0,1,1.34375,6.83545q-11.32032,38.70173-13.2959,43.71973c-2.42993,5.55139-3.635,8.45557-3.635,8.67285q-2.993,4.00066-10.3125,4.0105H785.414a7.32573,7.32573,0,0,1-2.98315-5.66992q0-1.68915,23.82556-88.66431,26.0777-95.30236,43.285-154.43164Q854.19392.3457,864.4966.33582h246.33582Q1117.14442.66174,1117.15444,7.62573Z"/><path d="M773.89625,3.635q-6.51947,30.37464-11.083,45.22119Q727.638,174.35541,703.38759,258.66346q-1.6595,6.57861-9.6211,6.57873H443.85487c-4.66236,0-6.99354-1.67932-6.99354-4.99829q0-.68152,32.95276-117.488Q504.01142,21.58325,505.67091,14.93543c2.21264-7.15162,3.87219-11.14234,4.97851-12.0116Q513.9684-.00989,524.59705,0h65.708c7.74427,0,11.83374,2.3114,12.28809,6.97376l-50.0953,187.56213c.86926,2.43006,1.97558,3.65491,3.319,3.65491h66.0636q4.62287,0,11.61645-23.25269C639.68047,153.48328,679.28541,8.6333,681.261,4.64258c.45446-1.10632,2.272-2.15332,5.49218-3.16089A27.87781,27.87781,0,0,1,694.55677,0h68.71082Q770.23164,0,773.89625,3.635Z"/><path d="M387.8075,155.37976q0,5.66016-14.61938,55.92884-15.5874,52.92609-20.58557,52.9458H95.93445q-2.31153-1.06695-2.31152-5.33411l69.04675-248.3114Q165.3368.32587,175.2937.33582H346.004q7.31966,0,7.64563,5.98608L313.82178,148.72205h67.6836Q387.8174,148.72205,387.8075,155.37976Z"/><path d="M294.20423,487.02137q0,5.66016-14.61939,55.929-15.61687,52.92589-20.58557,52.9259H2.33118C.77039,595.165,0,593.40675,0,590.5619L69.06641,342.25049q2.63745-10.283,12.624-10.29284H252.40088c4.85987,0,7.40845,2.01513,7.64551,6.00586L220.21851,480.36366H287.9021C292.09034,480.36366,294.20423,482.5763,294.20423,487.02137Z"/><path d="M671.75843,331.95765H425.24488c-6.65772,0-10.64844,2.41028-11.99182,7.19116q-70.17279,248.03486-70.19263,251.6897,0,5.0376,3.319,5.03772H602.83021q5.63049,0,64.44373-212.13843,12.12012-43.76916,12.13-45.4187C679.40394,334.09131,676.85548,331.95765,671.75843,331.95765ZM543.56917,496.26174q-22.0995,15.14585-43.52316,15.14585a47.55958,47.55958,0,0,1-27.758-8.52066q-14.836-10.0785-14.82671-27.11989,0-24.91471,24.92394-42.8851,21.76152-15.76512,43.82351-15.7839,18.60849,0,30.76078,9.79688,12.13355,9.76887,12.143,27.11988Q569.11249,478.59154,543.56917,496.26174Z"/><path d="M1015.0165,331.95765H768.50294c-6.65771,0-10.64844,2.41028-11.99182,7.19116q-70.17279,248.03486-70.19263,251.6897,0,5.0376,3.319,5.03772H946.08827q5.63049,0,64.44385-212.13843,12.11976-43.76916,12.12988-45.4187C1022.662,334.09131,1020.11342,331.95765,1015.0165,331.95765Zm-128.208,164.30409q-22.07133,15.14585-43.50437,15.14585a47.55961,47.55961,0,0,1-27.75805-8.52066q-14.836-10.0785-14.82671-27.11989,0-24.91471,24.92394-42.8851,21.73351-15.76512,43.82351-15.7839,18.6085,0,30.76078,9.79688,12.13355,9.76887,12.143,27.11988Q912.37055,478.59154,886.80845,496.26174Z"/><path d="M1367.46108,334.96058q-12.94995,64.60162-30.187,107.86694c-.23706,1.10633-1.56079,2.17322-3.99072,3.161a17.77744,17.77744,0,0,1-4.64258,1.50147h-67.36743q-27.41125,96.3393-41.30957,144.47461c-.21729.71118-1.48169,1.699-3.83277,2.983-2.33105,1.28418-4.0498,1.93616-5.156,1.93616h-98.009c-4.0105,0-6.10449-2.13367-6.34155-6.38123L1146.53115,447.49h-67.58472q-6.31165,0-6.302-5.65027,0-3.319,15.60693-58.75391,3.28967-11.67572,6.30225-23.7268a139.29319,139.29319,0,0,1,7.96167-23.707c.67163-1.10632,2.76586-2.17309,6.30224-3.18066a34.01891,34.01891,0,0,1,8.65284-1.50147H1354.5209a29.49494,29.49494,0,0,1,6.9541,1.50147Q1366.45328,333.98267,1367.46108,334.96058Z"/><g id="id33"><path class="cls-1" d="M1388.08859,487.99805l72.06185-.03837,43.51338-61.62478,32.424,60.66549,81.92335,1.84184-66.26774,41.51806,12.701,72.13859-60.93408-37.56579-78.81526,35.99256L1445.646,529.401Z"/></g><g id="id33-2" data-name="id33"><path class="cls-1" d="M1549.8086,365.45595l48.04121-.02558,29.00891-41.08317,21.616,40.44364,54.61555,1.22789-44.17848,27.6787,8.46733,48.09238L1626.7564,416.746l-52.54348,23.995,13.96725-47.68308Z"/></g><g id="id33-3" data-name="id33"><path class="cls-1" d="M1426.40905,344.90158l24.0206-.01279,14.50446-20.54159,10.808,20.22182,27.30778.61395-22.08924,13.83935,4.23366,24.04618L1464.883,370.54658l-26.27174,11.99751,6.98362-23.84154Z"/></g></g></g></svg>